<svg width="250" height="292" viewBox="0 0 250 292" fill="none" xmlns="http://www.w3.org/2000/svg">
<path fill-rule="evenodd" clip-rule="evenodd" d="M0 49C0 40.7157 6.71573 34 15 34H235C243.284 34 250 40.7157 250 49V277C250 285.284 243.284 292 235 292H15C6.71573 292 0 285.284 0 277V49Z" fill="#EDF0F6"/>
<path fill-rule="evenodd" clip-rule="evenodd" d="M202.884 33.4829C200.736 32.571 195.236 30.8821 195.236 22.8339C195.236 14.7858 208.564 -2.34861 216.006 0.416357C223.447 3.18132 220.234 23.9732 216.006 29.9083C211.778 35.8435 205.031 34.3947 202.884 33.4829Z" fill="#C5DDF0"/>
<path d="M199.003 72.279H198.457C198.457 46.0228 203.304 24.678 213.006 8.24744L213.476 8.52504C203.829 24.8635 199.003 46.1139 199.003 72.279Z" fill="#7297C4"/>
<path fill-rule="evenodd" clip-rule="evenodd" d="M192.186 52.8204C195.72 51.3662 200.766 45.5578 197.096 37.2876C193.427 29.0174 180.451 18.6602 174.335 23.9745C168.22 29.2889 175.615 46.726 179.43 50.8077C183.245 54.8894 188.652 54.2746 192.186 52.8204Z" fill="#C5DDF0"/>
<path d="M194.777 72.2804L194.231 72.2776C194.314 55.7727 189.87 42.5817 180.902 32.6906L181.307 32.3238C190.372 42.3225 194.861 55.646 194.777 72.2804Z" fill="#7297C4"/>
<path fill-rule="evenodd" clip-rule="evenodd" d="M206.993 58.0305C205.008 56.5391 202.048 54.5333 204.644 47.8786C207.24 41.2238 218.91 34.6451 222.793 38.3659C226.676 42.0868 222.073 54.8571 217.657 58.3285C213.24 61.8 208.977 59.5219 206.993 58.0305Z" fill="#C5DDF0"/>
<path d="M203.798 72.3269L203.261 72.2311C205.45 59.9421 210.192 50.1453 217.488 42.8485L217.874 43.2345C210.662 50.4479 205.969 60.1428 203.798 72.3269Z" fill="#7297C4"/>
<path fill-rule="evenodd" clip-rule="evenodd" d="M184.735 68.9288H214.103V80.7583C214.103 85.9277 209.912 90.1183 204.743 90.1183H194.095C188.925 90.1183 184.735 85.9277 184.735 80.7583V68.9288Z" fill="url(#paint0_linear_101_23)"/>
<mask id="mask0_101_23" style="mask-type:luminance" maskUnits="userSpaceOnUse" x="184" y="68" width="31" height="23">
<path fill-rule="evenodd" clip-rule="evenodd" d="M184.735 68.9288H214.103V80.7583C214.103 85.9277 209.912 90.1183 204.743 90.1183H194.095C188.925 90.1183 184.735 85.9277 184.735 80.7583V68.9288Z" fill="white"/>
</mask>
<g mask="url(#mask0_101_23)">
<path d="M183.541 73.2738V72.7278H214.781V73.2738H183.541Z" fill="#7297C4"/>
<path d="M183.541 76.9183V76.3723H214.781V76.9183H183.541Z" fill="#7297C4"/>
</g>
<rect x="25" y="49.3587" width="84.15" height="42.075" fill="url(#paint1_linear_101_23)"/>
<mask id="mask1_101_23" style="mask-type:luminance" maskUnits="userSpaceOnUse" x="25" y="49" width="85" height="43">
<rect x="25" y="49.3587" width="84.15" height="42.075" fill="white"/>
</mask>
<g mask="url(#mask1_101_23)">
<rect opacity="0.3" x="58.6602" y="108.762" width="96.7974" height="23.3031" transform="rotate(-30 58.6602 108.762)" fill="white"/>
<path d="M70.3113 68.4081C69.775 68.4081 69.3403 67.9734 69.3403 67.4371C69.3403 66.9009 69.775 66.4662 70.3113 66.4662H88.3434C88.8797 66.4662 89.3144 66.9009 89.3144 67.4371C89.3144 67.9734 88.8797 68.4081 88.3434 68.4081H70.3113Z" fill="white"/>
<path opacity="0.15" fill-rule="evenodd" clip-rule="evenodd" d="M25 49.3587H48.9504V92.081H25V49.3587Z" fill="#001D4B"/>
<path fill-rule="evenodd" clip-rule="evenodd" d="M10.6709 90.1391C10.6709 99.0766 17.9161 106.322 26.8536 106.322C35.791 106.322 43.0363 99.0766 43.0363 90.1391C43.0363 81.2017 35.791 73.9564 26.8536 73.9564C17.9161 73.9564 10.6709 81.2017 10.6709 90.1391ZM36.5632 90.1391C36.5632 95.5016 32.2161 99.8487 26.8536 99.8487C21.4911 99.8487 17.144 95.5016 17.144 90.1391C17.144 84.7766 21.4911 80.4295 26.8536 80.4295C32.2161 80.4295 36.5632 84.7766 36.5632 90.1391Z" fill="#E0987C"/>
<path d="M25 57.9473V57.1823H109.15V57.9473H25Z" fill="#D33234"/>
</g>
<rect x="36.8999" y="19" width="60.9396" height="30.4698" fill="url(#paint2_linear_101_23)"/>
<mask id="mask2_101_23" style="mask-type:luminance" maskUnits="userSpaceOnUse" x="36" y="19" width="62" height="31">
<rect x="36.8999" y="19" width="60.9396" height="30.4698" fill="white"/>
</mask>
<g mask="url(#mask2_101_23)">
<path d="M69.0625 34.0452H84.7252" stroke="#0069D5" stroke-width="1.95319" stroke-linecap="round" stroke-linejoin="round"/>
<path opacity="0.12" fill-rule="evenodd" clip-rule="evenodd" d="M36.8999 19H54.8953V49.9385H36.8999V19Z" fill="#001D4B"/>
<path opacity="0.3" fill-rule="evenodd" clip-rule="evenodd" d="M41.327 43.0242C42.0462 43.0242 42.6292 42.4413 42.6292 41.7221C42.6292 41.003 42.0462 40.42 41.327 40.42C40.6079 40.42 40.0249 41.003 40.0249 41.7221C40.0249 42.4413 40.6079 43.0242 41.327 43.0242ZM41.327 46.9306C42.0462 46.9306 42.6292 46.3476 42.6292 45.6285C42.6292 44.9093 42.0462 44.3264 41.327 44.3264C40.6079 44.3264 40.0249 44.9093 40.0249 45.6285C40.0249 46.3476 40.6079 46.9306 41.327 46.9306ZM45.8845 46.9306C46.6036 46.9306 47.1866 46.3476 47.1866 45.6285C47.1866 44.9093 46.6036 44.3264 45.8845 44.3264C45.1653 44.3264 44.5823 44.9093 44.5823 45.6285C44.5823 46.3476 45.1653 46.9306 45.8845 46.9306ZM51.7441 45.6285C51.7441 46.3476 51.1611 46.9306 50.4419 46.9306C49.7228 46.9306 49.1398 46.3476 49.1398 45.6285C49.1398 44.9093 49.7228 44.3264 50.4419 44.3264C51.1611 44.3264 51.7441 44.9093 51.7441 45.6285ZM47.1866 41.7221C47.1866 42.4413 46.6036 43.0242 45.8845 43.0242C45.1653 43.0242 44.5823 42.4413 44.5823 41.7221C44.5823 41.003 45.1653 40.42 45.8845 40.42C46.6036 40.42 47.1866 41.003 47.1866 41.7221ZM50.4419 43.0242C51.1611 43.0242 51.7441 42.4413 51.7441 41.7221C51.7441 41.003 51.1611 40.42 50.4419 40.42C49.7228 40.42 49.1398 41.003 49.1398 41.7221C49.1398 42.4413 49.7228 43.0242 50.4419 43.0242Z" fill="white"/>
<path d="M36.8999 25.8216V25.3658H97.8395V25.8216H36.8999Z" fill="#0069D5"/>
</g>
<path fill-rule="evenodd" clip-rule="evenodd" d="M25 230C25 225.582 28.5817 222 33 222H217C221.418 222 225 225.582 225 230V259C225 263.418 221.418 267 217 267H33C28.5817 267 25 263.418 25 259V230Z" fill="#101010"/>
<path d="M96.048 240.926L92.72 250H90.51L87.182 240.926H89.132L91.628 248.141L94.111 240.926H96.048ZM100.459 240.926V250H98.6392V240.926H100.459ZM105.577 242.395V244.67H108.632V246.113H105.577V248.518H109.022V250H103.757V240.913H109.022V242.395H105.577ZM124.305 240.926L121.77 250H119.625L117.922 243.539L116.141 250L114.009 250.013L111.565 240.926H113.515L115.114 247.972L116.96 240.926H118.988L120.73 247.933L122.342 240.926H124.305ZM137.766 240.926V242.395H135.348V250H133.528V242.395H131.11V240.926H137.766ZM142.414 240.926V250H140.594V240.926H142.414ZM152.329 243.734C152.329 244.219 152.212 244.674 151.978 245.099C151.753 245.524 151.393 245.866 150.899 246.126C150.414 246.386 149.799 246.516 149.053 246.516H147.532V250H145.712V240.926H149.053C149.755 240.926 150.353 241.047 150.847 241.29C151.341 241.533 151.71 241.866 151.952 242.291C152.204 242.716 152.329 243.197 152.329 243.734ZM148.975 245.047C149.478 245.047 149.851 244.934 150.093 244.709C150.336 244.475 150.457 244.15 150.457 243.734C150.457 242.85 149.963 242.408 148.975 242.408H147.532V245.047H148.975ZM158.255 250.091C157.622 250.091 157.05 249.983 156.539 249.766C156.036 249.549 155.637 249.237 155.343 248.83C155.048 248.423 154.896 247.942 154.888 247.387H156.838C156.864 247.76 156.994 248.054 157.228 248.271C157.47 248.488 157.8 248.596 158.216 248.596C158.64 248.596 158.974 248.496 159.217 248.297C159.459 248.089 159.581 247.82 159.581 247.491C159.581 247.222 159.498 247.001 159.334 246.828C159.169 246.655 158.961 246.52 158.71 246.425C158.467 246.321 158.129 246.208 157.696 246.087C157.106 245.914 156.625 245.745 156.253 245.58C155.889 245.407 155.572 245.151 155.304 244.813C155.044 244.466 154.914 244.007 154.914 243.435C154.914 242.898 155.048 242.43 155.317 242.031C155.585 241.632 155.962 241.329 156.448 241.121C156.933 240.904 157.488 240.796 158.112 240.796C159.048 240.796 159.806 241.026 160.387 241.485C160.976 241.936 161.301 242.568 161.362 243.383H159.36C159.342 243.071 159.208 242.815 158.957 242.616C158.714 242.408 158.389 242.304 157.982 242.304C157.626 242.304 157.34 242.395 157.124 242.577C156.916 242.759 156.812 243.023 156.812 243.37C156.812 243.613 156.89 243.816 157.046 243.981C157.21 244.137 157.41 244.267 157.644 244.371C157.886 244.466 158.224 244.579 158.658 244.709C159.247 244.882 159.728 245.056 160.101 245.229C160.473 245.402 160.794 245.662 161.063 246.009C161.331 246.356 161.466 246.811 161.466 247.374C161.466 247.859 161.34 248.31 161.089 248.726C160.837 249.142 160.469 249.476 159.984 249.727C159.498 249.97 158.922 250.091 158.255 250.091Z" fill="white"/>
<path opacity="0.7" d="M31.924 150.46C31.924 150.668 31.912 150.888 31.888 151.12H26.632C26.672 151.768 26.892 152.276 27.292 152.644C27.7 153.004 28.192 153.184 28.768 153.184C29.24 153.184 29.632 153.076 29.944 152.86C30.264 152.636 30.488 152.34 30.616 151.972H31.792C31.616 152.604 31.264 153.12 30.736 153.52C30.208 153.912 29.552 154.108 28.768 154.108C28.144 154.108 27.584 153.968 27.088 153.688C26.6 153.408 26.216 153.012 25.936 152.5C25.656 151.98 25.516 151.38 25.516 150.7C25.516 150.02 25.652 149.424 25.924 148.912C26.196 148.4 26.576 148.008 27.064 147.736C27.56 147.456 28.128 147.316 28.768 147.316C29.392 147.316 29.944 147.452 30.424 147.724C30.904 147.996 31.272 148.372 31.528 148.852C31.792 149.324 31.924 149.86 31.924 150.46ZM30.796 150.232C30.796 149.816 30.704 149.46 30.52 149.164C30.336 148.86 30.084 148.632 29.764 148.48C29.452 148.32 29.104 148.24 28.72 148.24C28.168 148.24 27.696 148.416 27.304 148.768C26.92 149.12 26.7 149.608 26.644 150.232H30.796ZM34.358 146.356C34.15 146.356 33.974 146.284 33.83 146.14C33.686 145.996 33.614 145.82 33.614 145.612C33.614 145.404 33.686 145.228 33.83 145.084C33.974 144.94 34.15 144.868 34.358 144.868C34.558 144.868 34.726 144.94 34.862 145.084C35.006 145.228 35.078 145.404 35.078 145.612C35.078 145.82 35.006 145.996 34.862 146.14C34.726 146.284 34.558 146.356 34.358 146.356ZM34.886 147.424V154H33.794V147.424H34.886ZM43.0077 147.424V154H41.9157V153.028C41.7077 153.364 41.4157 153.628 41.0397 153.82C40.6717 154.004 40.2637 154.096 39.8157 154.096C39.3037 154.096 38.8437 153.992 38.4357 153.784C38.0277 153.568 37.7037 153.248 37.4637 152.824C37.2317 152.4 37.1157 151.884 37.1157 151.276V147.424H38.1957V151.132C38.1957 151.78 38.3597 152.28 38.6877 152.632C39.0157 152.976 39.4637 153.148 40.0317 153.148C40.6157 153.148 41.0757 152.968 41.4117 152.608C41.7477 152.248 41.9157 151.724 41.9157 151.036V147.424H43.0077ZM47.608 154.108C47.104 154.108 46.652 154.024 46.252 153.856C45.852 153.68 45.536 153.44 45.304 153.136C45.072 152.824 44.944 152.468 44.92 152.068H46.048C46.08 152.396 46.232 152.664 46.504 152.872C46.784 153.08 47.148 153.184 47.596 153.184C48.012 153.184 48.34 153.092 48.58 152.908C48.82 152.724 48.94 152.492 48.94 152.212C48.94 151.924 48.812 151.712 48.556 151.576C48.3 151.432 47.904 151.292 47.368 151.156C46.88 151.028 46.48 150.9 46.168 150.772C45.864 150.636 45.6 150.44 45.376 150.184C45.16 149.92 45.052 149.576 45.052 149.152C45.052 148.816 45.152 148.508 45.352 148.228C45.552 147.948 45.836 147.728 46.204 147.568C46.572 147.4 46.992 147.316 47.464 147.316C48.192 147.316 48.78 147.5 49.228 147.868C49.676 148.236 49.916 148.74 49.948 149.38H48.856C48.832 149.036 48.692 148.76 48.436 148.552C48.188 148.344 47.852 148.24 47.428 148.24C47.036 148.24 46.724 148.324 46.492 148.492C46.26 148.66 46.144 148.88 46.144 149.152C46.144 149.368 46.212 149.548 46.348 149.692C46.492 149.828 46.668 149.94 46.876 150.028C47.092 150.108 47.388 150.2 47.764 150.304C48.236 150.432 48.62 150.56 48.916 150.688C49.212 150.808 49.464 150.992 49.672 151.24C49.888 151.488 50 151.812 50.008 152.212C50.008 152.572 49.908 152.896 49.708 153.184C49.508 153.472 49.224 153.7 48.856 153.868C48.496 154.028 48.08 154.108 47.608 154.108ZM59.8861 147.304C60.3981 147.304 60.8541 147.412 61.2541 147.628C61.6541 147.836 61.9701 148.152 62.2021 148.576C62.4341 149 62.5501 149.516 62.5501 150.124V154H61.4701V150.28C61.4701 149.624 61.3061 149.124 60.9781 148.78C60.6581 148.428 60.2221 148.252 59.6701 148.252C59.1021 148.252 58.6501 148.436 58.3141 148.804C57.9781 149.164 57.8101 149.688 57.8101 150.376V154H56.7301V150.28C56.7301 149.624 56.5661 149.124 56.2381 148.78C55.9181 148.428 55.4821 148.252 54.9301 148.252C54.3621 148.252 53.9101 148.436 53.5741 148.804C53.2381 149.164 53.0701 149.688 53.0701 150.376V154H51.9781V147.424H53.0701V148.372C53.2861 148.028 53.5741 147.764 53.9341 147.58C54.3021 147.396 54.7061 147.304 55.1461 147.304C55.6981 147.304 56.1861 147.428 56.6101 147.676C57.0341 147.924 57.3501 148.288 57.5581 148.768C57.7421 148.304 58.0461 147.944 58.4701 147.688C58.8941 147.432 59.3661 147.304 59.8861 147.304ZM67.638 154.108C67.022 154.108 66.462 153.968 65.958 153.688C65.462 153.408 65.07 153.012 64.782 152.5C64.502 151.98 64.362 151.38 64.362 150.7C64.362 150.028 64.506 149.436 64.794 148.924C65.09 148.404 65.49 148.008 65.994 147.736C66.498 147.456 67.062 147.316 67.686 147.316C68.31 147.316 68.874 147.456 69.378 147.736C69.882 148.008 70.278 148.4 70.566 148.912C70.862 149.424 71.01 150.02 71.01 150.7C71.01 151.38 70.858 151.98 70.554 152.5C70.258 153.012 69.854 153.408 69.342 153.688C68.83 153.968 68.262 154.108 67.638 154.108ZM67.638 153.148C68.03 153.148 68.398 153.056 68.742 152.872C69.086 152.688 69.362 152.412 69.57 152.044C69.786 151.676 69.894 151.228 69.894 150.7C69.894 150.172 69.79 149.724 69.582 149.356C69.374 148.988 69.102 148.716 68.766 148.54C68.43 148.356 68.066 148.264 67.674 148.264C67.274 148.264 66.906 148.356 66.57 148.54C66.242 148.716 65.978 148.988 65.778 149.356C65.578 149.724 65.478 150.172 65.478 150.7C65.478 151.236 65.574 151.688 65.766 152.056C65.966 152.424 66.23 152.7 66.558 152.884C66.886 153.06 67.246 153.148 67.638 153.148ZM72.4663 150.688C72.4663 150.016 72.6023 149.428 72.8743 148.924C73.1463 148.412 73.5183 148.016 73.9903 147.736C74.4703 147.456 75.0063 147.316 75.5983 147.316C76.1103 147.316 76.5863 147.436 77.0263 147.676C77.4663 147.908 77.8023 148.216 78.0343 148.6V145.12H79.1383V154H78.0343V152.764C77.8183 153.156 77.4983 153.48 77.0743 153.736C76.6503 153.984 76.1543 154.108 75.5863 154.108C75.0023 154.108 74.4703 153.964 73.9903 153.676C73.5183 153.388 73.1463 152.984 72.8743 152.464C72.6023 151.944 72.4663 151.352 72.4663 150.688ZM78.0343 150.7C78.0343 150.204 77.9343 149.772 77.7343 149.404C77.5343 149.036 77.2623 148.756 76.9183 148.564C76.5823 148.364 76.2103 148.264 75.8023 148.264C75.3943 148.264 75.0223 148.36 74.6863 148.552C74.3503 148.744 74.0823 149.024 73.8823 149.392C73.6823 149.76 73.5823 150.192 73.5823 150.688C73.5823 151.192 73.6823 151.632 73.8823 152.008C74.0823 152.376 74.3503 152.66 74.6863 152.86C75.0223 153.052 75.3943 153.148 75.8023 153.148C76.2103 153.148 76.5823 153.052 76.9183 152.86C77.2623 152.66 77.5343 152.376 77.7343 152.008C77.9343 151.632 78.0343 151.196 78.0343 150.7ZM86.3721 148.324V152.2C86.3721 152.52 86.4401 152.748 86.5761 152.884C86.7121 153.012 86.9481 153.076 87.2841 153.076H88.0881V154H87.1041C86.4961 154 86.0401 153.86 85.7361 153.58C85.4321 153.3 85.2801 152.84 85.2801 152.2V148.324H84.4281V147.424H85.2801V145.768H86.3721V147.424H88.0881V148.324H86.3721ZM95.8397 150.46C95.8397 150.668 95.8277 150.888 95.8037 151.12H90.5477C90.5877 151.768 90.8077 152.276 91.2077 152.644C91.6157 153.004 92.1077 153.184 92.6837 153.184C93.1557 153.184 93.5477 153.076 93.8597 152.86C94.1797 152.636 94.4037 152.34 94.5317 151.972H95.7077C95.5317 152.604 95.1797 153.12 94.6517 153.52C94.1237 153.912 93.4677 154.108 92.6837 154.108C92.0597 154.108 91.4997 153.968 91.0037 153.688C90.5157 153.408 90.1317 153.012 89.8517 152.5C89.5717 151.98 89.4317 151.38 89.4317 150.7C89.4317 150.02 89.5677 149.424 89.8397 148.912C90.1117 148.4 90.4917 148.008 90.9797 147.736C91.4757 147.456 92.0437 147.316 92.6837 147.316C93.3077 147.316 93.8597 147.452 94.3397 147.724C94.8197 147.996 95.1877 148.372 95.4437 148.852C95.7077 149.324 95.8397 149.86 95.8397 150.46ZM94.7117 150.232C94.7117 149.816 94.6197 149.46 94.4357 149.164C94.2517 148.86 93.9997 148.632 93.6797 148.48C93.3677 148.32 93.0197 148.24 92.6357 148.24C92.0837 148.24 91.6117 148.416 91.2197 148.768C90.8357 149.12 90.6157 149.608 90.5597 150.232H94.7117ZM105.618 147.304C106.13 147.304 106.586 147.412 106.986 147.628C107.386 147.836 107.702 148.152 107.934 148.576C108.166 149 108.282 149.516 108.282 150.124V154H107.202V150.28C107.202 149.624 107.038 149.124 106.71 148.78C106.39 148.428 105.954 148.252 105.402 148.252C104.834 148.252 104.382 148.436 104.046 148.804C103.71 149.164 103.542 149.688 103.542 150.376V154H102.462V150.28C102.462 149.624 102.298 149.124 101.97 148.78C101.65 148.428 101.214 148.252 100.662 148.252C100.094 148.252 99.6417 148.436 99.3057 148.804C98.9697 149.164 98.8017 149.688 98.8017 150.376V154H97.7097V147.424H98.8017V148.372C99.0177 148.028 99.3057 147.764 99.6657 147.58C100.034 147.396 100.438 147.304 100.878 147.304C101.43 147.304 101.918 147.428 102.342 147.676C102.766 147.924 103.082 148.288 103.29 148.768C103.474 148.304 103.778 147.944 104.202 147.688C104.626 147.432 105.098 147.304 105.618 147.304ZM111.594 148.636C111.81 148.26 112.13 147.948 112.554 147.7C112.986 147.444 113.486 147.316 114.054 147.316C114.638 147.316 115.166 147.456 115.638 147.736C116.118 148.016 116.494 148.412 116.766 148.924C117.038 149.428 117.174 150.016 117.174 150.688C117.174 151.352 117.038 151.944 116.766 152.464C116.494 152.984 116.118 153.388 115.638 153.676C115.166 153.964 114.638 154.108 114.054 154.108C113.494 154.108 112.998 153.984 112.566 153.736C112.142 153.48 111.818 153.164 111.594 152.788V157.12H110.502V147.424H111.594V148.636ZM116.058 150.688C116.058 150.192 115.958 149.76 115.758 149.392C115.558 149.024 115.286 148.744 114.942 148.552C114.606 148.36 114.234 148.264 113.826 148.264C113.426 148.264 113.054 148.364 112.71 148.564C112.374 148.756 112.102 149.04 111.894 149.416C111.694 149.784 111.594 150.212 111.594 150.7C111.594 151.196 111.694 151.632 111.894 152.008C112.102 152.376 112.374 152.66 112.71 152.86C113.054 153.052 113.426 153.148 113.826 153.148C114.234 153.148 114.606 153.052 114.942 152.86C115.286 152.66 115.558 152.376 115.758 152.008C115.958 151.632 116.058 151.192 116.058 150.688ZM121.908 154.108C121.292 154.108 120.732 153.968 120.228 153.688C119.732 153.408 119.34 153.012 119.052 152.5C118.772 151.98 118.632 151.38 118.632 150.7C118.632 150.028 118.776 149.436 119.064 148.924C119.36 148.404 119.76 148.008 120.264 147.736C120.768 147.456 121.332 147.316 121.956 147.316C122.58 147.316 123.144 147.456 123.648 147.736C124.152 148.008 124.548 148.4 124.836 148.912C125.132 149.424 125.28 150.02 125.28 150.7C125.28 151.38 125.128 151.98 124.824 152.5C124.528 153.012 124.124 153.408 123.612 153.688C123.1 153.968 122.532 154.108 121.908 154.108ZM121.908 153.148C122.3 153.148 122.668 153.056 123.012 152.872C123.356 152.688 123.632 152.412 123.84 152.044C124.056 151.676 124.164 151.228 124.164 150.7C124.164 150.172 124.06 149.724 123.852 149.356C123.644 148.988 123.372 148.716 123.036 148.54C122.7 148.356 122.336 148.264 121.944 148.264C121.544 148.264 121.176 148.356 120.84 148.54C120.512 148.716 120.248 148.988 120.048 149.356C119.848 149.724 119.748 150.172 119.748 150.7C119.748 151.236 119.844 151.688 120.036 152.056C120.236 152.424 120.5 152.7 120.828 152.884C121.156 153.06 121.516 153.148 121.908 153.148ZM128.236 148.492C128.428 148.116 128.7 147.824 129.052 147.616C129.412 147.408 129.848 147.304 130.36 147.304V148.432H130.072C128.848 148.432 128.236 149.096 128.236 150.424V154H127.144V147.424H128.236V148.492ZM136.241 146.356C136.033 146.356 135.857 146.284 135.713 146.14C135.569 145.996 135.497 145.82 135.497 145.612C135.497 145.404 135.569 145.228 135.713 145.084C135.857 144.94 136.033 144.868 136.241 144.868C136.441 144.868 136.609 144.94 136.745 145.084C136.889 145.228 136.961 145.404 136.961 145.612C136.961 145.82 136.889 145.996 136.745 146.14C136.609 146.284 136.441 146.356 136.241 146.356ZM136.769 147.424V154H135.677V147.424H136.769ZM142.262 147.304C143.062 147.304 143.71 147.548 144.206 148.036C144.702 148.516 144.95 149.212 144.95 150.124V154H143.87V150.28C143.87 149.624 143.706 149.124 143.378 148.78C143.05 148.428 142.602 148.252 142.034 148.252C141.458 148.252 140.998 148.432 140.654 148.792C140.318 149.152 140.15 149.676 140.15 150.364V154H139.058V147.424H140.15V148.36C140.366 148.024 140.658 147.764 141.026 147.58C141.402 147.396 141.814 147.304 142.262 147.304ZM146.755 150.7C146.755 150.02 146.891 149.428 147.163 148.924C147.435 148.412 147.811 148.016 148.291 147.736C148.779 147.456 149.335 147.316 149.959 147.316C150.767 147.316 151.431 147.512 151.951 147.904C152.479 148.296 152.827 148.84 152.995 149.536H151.819C151.707 149.136 151.487 148.82 151.159 148.588C150.839 148.356 150.439 148.24 149.959 148.24C149.335 148.24 148.831 148.456 148.447 148.888C148.063 149.312 147.871 149.916 147.871 150.7C147.871 151.492 148.063 152.104 148.447 152.536C148.831 152.968 149.335 153.184 149.959 153.184C150.439 153.184 150.839 153.072 151.159 152.848C151.479 152.624 151.699 152.304 151.819 151.888H152.995C152.819 152.56 152.467 153.1 151.939 153.508C151.411 153.908 150.751 154.108 149.959 154.108C149.335 154.108 148.779 153.968 148.291 153.688C147.811 153.408 147.435 153.012 147.163 152.5C146.891 151.988 146.755 151.388 146.755 150.7ZM155.444 146.356C155.236 146.356 155.06 146.284 154.916 146.14C154.772 145.996 154.7 145.82 154.7 145.612C154.7 145.404 154.772 145.228 154.916 145.084C155.06 144.94 155.236 144.868 155.444 144.868C155.644 144.868 155.812 144.94 155.948 145.084C156.092 145.228 156.164 145.404 156.164 145.612C156.164 145.82 156.092 145.996 155.948 146.14C155.812 146.284 155.644 146.356 155.444 146.356ZM155.972 147.424V154H154.88V147.424H155.972ZM157.854 150.688C157.854 150.016 157.99 149.428 158.262 148.924C158.534 148.412 158.906 148.016 159.378 147.736C159.858 147.456 160.394 147.316 160.986 147.316C161.498 147.316 161.974 147.436 162.414 147.676C162.854 147.908 163.19 148.216 163.422 148.6V145.12H164.526V154H163.422V152.764C163.206 153.156 162.886 153.48 162.462 153.736C162.038 153.984 161.542 154.108 160.974 154.108C160.39 154.108 159.858 153.964 159.378 153.676C158.906 153.388 158.534 152.984 158.262 152.464C157.99 151.944 157.854 151.352 157.854 150.688ZM163.422 150.7C163.422 150.204 163.322 149.772 163.122 149.404C162.922 149.036 162.65 148.756 162.306 148.564C161.97 148.364 161.598 148.264 161.19 148.264C160.782 148.264 160.41 148.36 160.074 148.552C159.738 148.744 159.47 149.024 159.27 149.392C159.07 149.76 158.97 150.192 158.97 150.688C158.97 151.192 159.07 151.632 159.27 152.008C159.47 152.376 159.738 152.66 160.074 152.86C160.41 153.052 160.782 153.148 161.19 153.148C161.598 153.148 161.97 153.052 162.306 152.86C162.65 152.66 162.922 152.376 163.122 152.008C163.322 151.632 163.422 151.196 163.422 150.7ZM167.364 146.356C167.156 146.356 166.98 146.284 166.836 146.14C166.692 145.996 166.62 145.82 166.62 145.612C166.62 145.404 166.692 145.228 166.836 145.084C166.98 144.94 167.156 144.868 167.364 144.868C167.564 144.868 167.732 144.94 167.868 145.084C168.012 145.228 168.084 145.404 168.084 145.612C168.084 145.82 168.012 145.996 167.868 146.14C167.732 146.284 167.564 146.356 167.364 146.356ZM167.892 147.424V154H166.8V147.424H167.892ZM169.774 150.688C169.774 150.016 169.91 149.428 170.182 148.924C170.454 148.412 170.826 148.016 171.298 147.736C171.778 147.456 172.314 147.316 172.906 147.316C173.418 147.316 173.894 147.436 174.334 147.676C174.774 147.908 175.11 148.216 175.342 148.6V145.12H176.446V154H175.342V152.764C175.126 153.156 174.806 153.48 174.382 153.736C173.958 153.984 173.462 154.108 172.894 154.108C172.31 154.108 171.778 153.964 171.298 153.676C170.826 153.388 170.454 152.984 170.182 152.464C169.91 151.944 169.774 151.352 169.774 150.688ZM175.342 150.7C175.342 150.204 175.242 149.772 175.042 149.404C174.842 149.036 174.57 148.756 174.226 148.564C173.89 148.364 173.518 148.264 173.11 148.264C172.702 148.264 172.33 148.36 171.994 148.552C171.658 148.744 171.39 149.024 171.19 149.392C170.99 149.76 170.89 150.192 170.89 150.688C170.89 151.192 170.99 151.632 171.19 152.008C171.39 152.376 171.658 152.66 171.994 152.86C172.33 153.052 172.702 153.148 173.11 153.148C173.518 153.148 173.89 153.052 174.226 152.86C174.57 152.66 174.842 152.376 175.042 152.008C175.242 151.632 175.342 151.196 175.342 150.7ZM184.552 147.424V154H183.46V153.028C183.252 153.364 182.96 153.628 182.584 153.82C182.216 154.004 181.808 154.096 181.36 154.096C180.848 154.096 180.388 153.992 179.98 153.784C179.572 153.568 179.248 153.248 179.008 152.824C178.776 152.4 178.66 151.884 178.66 151.276V147.424H179.74V151.132C179.74 151.78 179.904 152.28 180.232 152.632C180.56 152.976 181.008 153.148 181.576 153.148C182.16 153.148 182.62 152.968 182.956 152.608C183.292 152.248 183.46 151.724 183.46 151.036V147.424H184.552ZM190.028 147.304C190.828 147.304 191.476 147.548 191.972 148.036C192.468 148.516 192.716 149.212 192.716 150.124V154H191.636V150.28C191.636 149.624 191.472 149.124 191.144 148.78C190.816 148.428 190.368 148.252 189.8 148.252C189.224 148.252 188.764 148.432 188.42 148.792C188.084 149.152 187.916 149.676 187.916 150.364V154H186.824V147.424H187.916V148.36C188.132 148.024 188.424 147.764 188.792 147.58C189.168 147.396 189.58 147.304 190.028 147.304ZM196.26 148.324V152.2C196.26 152.52 196.328 152.748 196.464 152.884C196.6 153.012 196.836 153.076 197.172 153.076H197.976V154H196.992C196.384 154 195.928 153.86 195.624 153.58C195.32 153.3 195.168 152.84 195.168 152.2V148.324H194.316V147.424H195.168V145.768H196.26V147.424H197.976V148.324H196.26ZM209.188 147.424V154H208.096V153.028C207.888 153.364 207.596 153.628 207.22 153.82C206.852 154.004 206.444 154.096 205.996 154.096C205.484 154.096 205.024 153.992 204.616 153.784C204.208 153.568 203.884 153.248 203.644 152.824C203.412 152.4 203.296 151.884 203.296 151.276V147.424H204.376V151.132C204.376 151.78 204.54 152.28 204.868 152.632C205.196 152.976 205.644 153.148 206.212 153.148C206.796 153.148 207.256 152.968 207.592 152.608C207.928 152.248 208.096 151.724 208.096 151.036V147.424H209.188ZM212.792 148.324V152.2C212.792 152.52 212.86 152.748 212.996 152.884C213.132 153.012 213.368 153.076 213.704 153.076H214.508V154H213.524C212.916 154 212.46 153.86 212.156 153.58C211.852 153.3 211.7 152.84 211.7 152.2V148.324H210.848V147.424H211.7V145.768H212.792V147.424H214.508V148.324H212.792ZM27.016 166.12V175H25.924V166.12H27.016ZM28.8977 171.688C28.8977 171.016 29.0337 170.428 29.3057 169.924C29.5777 169.412 29.9497 169.016 30.4217 168.736C30.9017 168.456 31.4337 168.316 32.0177 168.316C32.5937 168.316 33.0937 168.44 33.5177 168.688C33.9417 168.936 34.2577 169.248 34.4657 169.624V168.424H35.5697V175H34.4657V173.776C34.2497 174.16 33.9257 174.48 33.4937 174.736C33.0697 174.984 32.5737 175.108 32.0057 175.108C31.4217 175.108 30.8937 174.964 30.4217 174.676C29.9497 174.388 29.5777 173.984 29.3057 173.464C29.0337 172.944 28.8977 172.352 28.8977 171.688ZM34.4657 171.7C34.4657 171.204 34.3657 170.772 34.1657 170.404C33.9657 170.036 33.6937 169.756 33.3497 169.564C33.0137 169.364 32.6417 169.264 32.2337 169.264C31.8257 169.264 31.4537 169.36 31.1177 169.552C30.7817 169.744 30.5137 170.024 30.3137 170.392C30.1137 170.76 30.0137 171.192 30.0137 171.688C30.0137 172.192 30.1137 172.632 30.3137 173.008C30.5137 173.376 30.7817 173.66 31.1177 173.86C31.4537 174.052 31.8257 174.148 32.2337 174.148C32.6417 174.148 33.0137 174.052 33.3497 173.86C33.6937 173.66 33.9657 173.376 34.1657 173.008C34.3657 172.632 34.4657 172.196 34.4657 171.7ZM38.9356 169.648C39.1596 169.256 39.4876 168.936 39.9196 168.688C40.3516 168.44 40.8436 168.316 41.3956 168.316C41.9876 168.316 42.5196 168.456 42.9916 168.736C43.4636 169.016 43.8356 169.412 44.1076 169.924C44.3796 170.428 44.5156 171.016 44.5156 171.688C44.5156 172.352 44.3796 172.944 44.1076 173.464C43.8356 173.984 43.4596 174.388 42.9796 174.676C42.5076 174.964 41.9796 175.108 41.3956 175.108C40.8276 175.108 40.3276 174.984 39.8956 174.736C39.4716 174.488 39.1516 174.172 38.9356 173.788V175H37.8436V166.12H38.9356V169.648ZM43.3996 171.688C43.3996 171.192 43.2996 170.76 43.0996 170.392C42.8996 170.024 42.6276 169.744 42.2836 169.552C41.9476 169.36 41.5756 169.264 41.1676 169.264C40.7676 169.264 40.3956 169.364 40.0516 169.564C39.7156 169.756 39.4436 170.04 39.2356 170.416C39.0356 170.784 38.9356 171.212 38.9356 171.7C38.9356 172.196 39.0356 172.632 39.2356 173.008C39.4436 173.376 39.7156 173.66 40.0516 173.86C40.3956 174.052 40.7676 174.148 41.1676 174.148C41.5756 174.148 41.9476 174.052 42.2836 173.86C42.6276 173.66 42.8996 173.376 43.0996 173.008C43.2996 172.632 43.3996 172.192 43.3996 171.688ZM49.2496 175.108C48.6336 175.108 48.0736 174.968 47.5696 174.688C47.0736 174.408 46.6816 174.012 46.3936 173.5C46.1136 172.98 45.9736 172.38 45.9736 171.7C45.9736 171.028 46.1176 170.436 46.4056 169.924C46.7016 169.404 47.1016 169.008 47.6056 168.736C48.1096 168.456 48.6736 168.316 49.2976 168.316C49.9216 168.316 50.4856 168.456 50.9896 168.736C51.4936 169.008 51.8896 169.4 52.1776 169.912C52.4736 170.424 52.6216 171.02 52.6216 171.7C52.6216 172.38 52.4696 172.98 52.1656 173.5C51.8696 174.012 51.4656 174.408 50.9536 174.688C50.4416 174.968 49.8736 175.108 49.2496 175.108ZM49.2496 174.148C49.6416 174.148 50.0096 174.056 50.3536 173.872C50.6976 173.688 50.9736 173.412 51.1816 173.044C51.3976 172.676 51.5056 172.228 51.5056 171.7C51.5056 171.172 51.4016 170.724 51.1936 170.356C50.9856 169.988 50.7136 169.716 50.3776 169.54C50.0416 169.356 49.6776 169.264 49.2856 169.264C48.8856 169.264 48.5176 169.356 48.1816 169.54C47.8536 169.716 47.5896 169.988 47.3896 170.356C47.1896 170.724 47.0896 171.172 47.0896 171.7C47.0896 172.236 47.1856 172.688 47.3776 173.056C47.5776 173.424 47.8416 173.7 48.1696 173.884C48.4976 174.06 48.8576 174.148 49.2496 174.148ZM55.5779 169.492C55.7699 169.116 56.0419 168.824 56.3939 168.616C56.7539 168.408 57.1899 168.304 57.7019 168.304V169.432H57.4139C56.1899 169.432 55.5779 170.096 55.5779 171.424V175H54.4859V168.424H55.5779V169.492ZM65.3911 171.46C65.3911 171.668 65.3791 171.888 65.3551 172.12H60.0991C60.1391 172.768 60.3591 173.276 60.7591 173.644C61.1671 174.004 61.6591 174.184 62.2351 174.184C62.7071 174.184 63.0991 174.076 63.4111 173.86C63.7311 173.636 63.9551 173.34 64.0831 172.972H65.2591C65.0831 173.604 64.7311 174.12 64.2031 174.52C63.6751 174.912 63.0191 175.108 62.2351 175.108C61.6111 175.108 61.0511 174.968 60.5551 174.688C60.0671 174.408 59.6831 174.012 59.4031 173.5C59.1231 172.98 58.9831 172.38 58.9831 171.7C58.9831 171.02 59.1191 170.424 59.3911 169.912C59.6631 169.4 60.0431 169.008 60.5311 168.736C61.0271 168.456 61.5951 168.316 62.2351 168.316C62.8591 168.316 63.4111 168.452 63.8911 168.724C64.3711 168.996 64.7391 169.372 64.9951 169.852C65.2591 170.324 65.3911 170.86 65.3911 171.46ZM64.2631 171.232C64.2631 170.816 64.1711 170.46 63.9871 170.164C63.8031 169.86 63.5511 169.632 63.2311 169.48C62.9191 169.32 62.5711 169.24 62.1871 169.24C61.6351 169.24 61.1631 169.416 60.7711 169.768C60.3871 170.12 60.1671 170.608 60.1111 171.232H64.2631ZM76.8888 171.46C76.8888 171.668 76.8768 171.888 76.8528 172.12H71.5968C71.6368 172.768 71.8568 173.276 72.2568 173.644C72.6648 174.004 73.1568 174.184 73.7328 174.184C74.2048 174.184 74.5968 174.076 74.9088 173.86C75.2288 173.636 75.4528 173.34 75.5808 172.972H76.7568C76.5808 173.604 76.2288 174.12 75.7008 174.52C75.1728 174.912 74.5168 175.108 73.7328 175.108C73.1088 175.108 72.5488 174.968 72.0528 174.688C71.5648 174.408 71.1808 174.012 70.9008 173.5C70.6208 172.98 70.4808 172.38 70.4808 171.7C70.4808 171.02 70.6168 170.424 70.8888 169.912C71.1608 169.4 71.5408 169.008 72.0288 168.736C72.5248 168.456 73.0928 168.316 73.7328 168.316C74.3568 168.316 74.9088 168.452 75.3888 168.724C75.8688 168.996 76.2368 169.372 76.4928 169.852C76.7568 170.324 76.8888 170.86 76.8888 171.46ZM75.7608 171.232C75.7608 170.816 75.6688 170.46 75.4848 170.164C75.3008 169.86 75.0488 169.632 74.7288 169.48C74.4168 169.32 74.0688 169.24 73.6848 169.24C73.1328 169.24 72.6608 169.416 72.2688 169.768C71.8848 170.12 71.6648 170.608 71.6088 171.232H75.7608ZM80.0908 169.324V173.2C80.0908 173.52 80.1588 173.748 80.2948 173.884C80.4308 174.012 80.6668 174.076 81.0028 174.076H81.8068V175H80.8228C80.2148 175 79.7588 174.86 79.4548 174.58C79.1508 174.3 78.9988 173.84 78.9988 173.2V169.324H78.1468V168.424H78.9988V166.768H80.0908V168.424H81.8068V169.324H80.0908ZM86.7783 171.688C86.7783 171.016 86.9143 170.428 87.1863 169.924C87.4583 169.412 87.8303 169.016 88.3023 168.736C88.7823 168.456 89.3183 168.316 89.9103 168.316C90.4223 168.316 90.8983 168.436 91.3383 168.676C91.7783 168.908 92.1143 169.216 92.3463 169.6V166.12H93.4503V175H92.3463V173.764C92.1303 174.156 91.8103 174.48 91.3863 174.736C90.9623 174.984 90.4663 175.108 89.8983 175.108C89.3143 175.108 88.7823 174.964 88.3023 174.676C87.8303 174.388 87.4583 173.984 87.1863 173.464C86.9143 172.944 86.7783 172.352 86.7783 171.688ZM92.3463 171.7C92.3463 171.204 92.2463 170.772 92.0463 170.404C91.8463 170.036 91.5743 169.756 91.2303 169.564C90.8943 169.364 90.5223 169.264 90.1143 169.264C89.7063 169.264 89.3343 169.36 88.9983 169.552C88.6623 169.744 88.3943 170.024 88.1943 170.392C87.9943 170.76 87.8943 171.192 87.8943 171.688C87.8943 172.192 87.9943 172.632 88.1943 173.008C88.3943 173.376 88.6623 173.66 88.9983 173.86C89.3343 174.052 89.7063 174.148 90.1143 174.148C90.5223 174.148 90.8943 174.052 91.2303 173.86C91.5743 173.66 91.8463 173.376 92.0463 173.008C92.2463 172.632 92.3463 172.196 92.3463 171.7ZM98.5922 175.108C97.9762 175.108 97.4162 174.968 96.9122 174.688C96.4162 174.408 96.0242 174.012 95.7362 173.5C95.4562 172.98 95.3162 172.38 95.3162 171.7C95.3162 171.028 95.4602 170.436 95.7482 169.924C96.0442 169.404 96.4442 169.008 96.9482 168.736C97.4522 168.456 98.0162 168.316 98.6402 168.316C99.2642 168.316 99.8282 168.456 100.332 168.736C100.836 169.008 101.232 169.4 101.52 169.912C101.816 170.424 101.964 171.02 101.964 171.7C101.964 172.38 101.812 172.98 101.508 173.5C101.212 174.012 100.808 174.408 100.296 174.688C99.7842 174.968 99.2162 175.108 98.5922 175.108ZM98.5922 174.148C98.9842 174.148 99.3522 174.056 99.6962 173.872C100.04 173.688 100.316 173.412 100.524 173.044C100.74 172.676 100.848 172.228 100.848 171.7C100.848 171.172 100.744 170.724 100.536 170.356C100.328 169.988 100.056 169.716 99.7202 169.54C99.3842 169.356 99.0202 169.264 98.6282 169.264C98.2282 169.264 97.8602 169.356 97.5242 169.54C97.1962 169.716 96.9322 169.988 96.7322 170.356C96.5322 170.724 96.4322 171.172 96.4322 171.7C96.4322 172.236 96.5282 172.688 96.7202 173.056C96.9202 173.424 97.1842 173.7 97.5122 173.884C97.8402 174.06 98.2002 174.148 98.5922 174.148ZM104.921 166.12V175H103.829V166.12H104.921ZM110.078 175.108C109.462 175.108 108.902 174.968 108.398 174.688C107.902 174.408 107.51 174.012 107.222 173.5C106.942 172.98 106.802 172.38 106.802 171.7C106.802 171.028 106.946 170.436 107.234 169.924C107.53 169.404 107.93 169.008 108.434 168.736C108.938 168.456 109.502 168.316 110.126 168.316C110.75 168.316 111.314 168.456 111.818 168.736C112.322 169.008 112.718 169.4 113.006 169.912C113.302 170.424 113.45 171.02 113.45 171.7C113.45 172.38 113.298 172.98 112.994 173.5C112.698 174.012 112.294 174.408 111.782 174.688C111.27 174.968 110.702 175.108 110.078 175.108ZM110.078 174.148C110.47 174.148 110.838 174.056 111.182 173.872C111.526 173.688 111.802 173.412 112.01 173.044C112.226 172.676 112.334 172.228 112.334 171.7C112.334 171.172 112.23 170.724 112.022 170.356C111.814 169.988 111.542 169.716 111.206 169.54C110.87 169.356 110.506 169.264 110.114 169.264C109.714 169.264 109.346 169.356 109.01 169.54C108.682 169.716 108.418 169.988 108.218 170.356C108.018 170.724 107.918 171.172 107.918 171.7C107.918 172.236 108.014 172.688 108.206 173.056C108.406 173.424 108.67 173.7 108.998 173.884C109.326 174.06 109.686 174.148 110.078 174.148ZM116.407 169.492C116.599 169.116 116.871 168.824 117.223 168.616C117.583 168.408 118.019 168.304 118.531 168.304V169.432H118.243C117.019 169.432 116.407 170.096 116.407 171.424V175H115.315V168.424H116.407V169.492ZM126.22 171.46C126.22 171.668 126.208 171.888 126.184 172.12H120.928C120.968 172.768 121.188 173.276 121.588 173.644C121.996 174.004 122.488 174.184 123.064 174.184C123.536 174.184 123.928 174.076 124.24 173.86C124.56 173.636 124.784 173.34 124.912 172.972H126.088C125.912 173.604 125.56 174.12 125.032 174.52C124.504 174.912 123.848 175.108 123.064 175.108C122.44 175.108 121.88 174.968 121.384 174.688C120.896 174.408 120.512 174.012 120.232 173.5C119.952 172.98 119.812 172.38 119.812 171.7C119.812 171.02 119.948 170.424 120.22 169.912C120.492 169.4 120.872 169.008 121.36 168.736C121.856 168.456 122.424 168.316 123.064 168.316C123.688 168.316 124.24 168.452 124.72 168.724C125.2 168.996 125.568 169.372 125.824 169.852C126.088 170.324 126.22 170.86 126.22 171.46ZM125.092 171.232C125.092 170.816 125 170.46 124.816 170.164C124.632 169.86 124.38 169.632 124.06 169.48C123.748 169.32 123.4 169.24 123.016 169.24C122.464 169.24 121.992 169.416 121.6 169.768C121.216 170.12 120.996 170.608 120.94 171.232H125.092ZM139.626 168.304C140.138 168.304 140.594 168.412 140.994 168.628C141.394 168.836 141.71 169.152 141.942 169.576C142.174 170 142.29 170.516 142.29 171.124V175H141.21V171.28C141.21 170.624 141.046 170.124 140.718 169.78C140.398 169.428 139.962 169.252 139.41 169.252C138.842 169.252 138.39 169.436 138.054 169.804C137.718 170.164 137.55 170.688 137.55 171.376V175H136.47V171.28C136.47 170.624 136.306 170.124 135.978 169.78C135.658 169.428 135.222 169.252 134.67 169.252C134.102 169.252 133.65 169.436 133.314 169.804C132.978 170.164 132.81 170.688 132.81 171.376V175H131.718V168.424H132.81V169.372C133.026 169.028 133.314 168.764 133.674 168.58C134.042 168.396 134.446 168.304 134.886 168.304C135.438 168.304 135.926 168.428 136.35 168.676C136.774 168.924 137.09 169.288 137.298 169.768C137.482 169.304 137.786 168.944 138.21 168.688C138.634 168.432 139.106 168.304 139.626 168.304ZM144.101 171.688C144.101 171.016 144.237 170.428 144.509 169.924C144.781 169.412 145.153 169.016 145.625 168.736C146.105 168.456 146.637 168.316 147.221 168.316C147.797 168.316 148.297 168.44 148.721 168.688C149.145 168.936 149.461 169.248 149.669 169.624V168.424H150.773V175H149.669V173.776C149.453 174.16 149.129 174.48 148.697 174.736C148.273 174.984 147.777 175.108 147.209 175.108C146.625 175.108 146.097 174.964 145.625 174.676C145.153 174.388 144.781 173.984 144.509 173.464C144.237 172.944 144.101 172.352 144.101 171.688ZM149.669 171.7C149.669 171.204 149.569 170.772 149.369 170.404C149.169 170.036 148.897 169.756 148.553 169.564C148.217 169.364 147.845 169.264 147.437 169.264C147.029 169.264 146.657 169.36 146.321 169.552C145.985 169.744 145.717 170.024 145.517 170.392C145.317 170.76 145.217 171.192 145.217 171.688C145.217 172.192 145.317 172.632 145.517 173.008C145.717 173.376 145.985 173.66 146.321 173.86C146.657 174.052 147.029 174.148 147.437 174.148C147.845 174.148 148.217 174.052 148.553 173.86C148.897 173.66 149.169 173.376 149.369 173.008C149.569 172.632 149.669 172.196 149.669 171.7ZM155.759 168.316C156.327 168.316 156.823 168.44 157.247 168.688C157.679 168.936 157.999 169.248 158.207 169.624V168.424H159.311V175.144C159.311 175.744 159.183 176.276 158.927 176.74C158.671 177.212 158.303 177.58 157.823 177.844C157.351 178.108 156.799 178.24 156.167 178.24C155.303 178.24 154.583 178.036 154.007 177.628C153.431 177.22 153.091 176.664 152.987 175.96H154.067C154.187 176.36 154.435 176.68 154.811 176.92C155.187 177.168 155.639 177.292 156.167 177.292C156.767 177.292 157.255 177.104 157.631 176.728C158.015 176.352 158.207 175.824 158.207 175.144V173.764C157.991 174.148 157.671 174.468 157.247 174.724C156.823 174.98 156.327 175.108 155.759 175.108C155.175 175.108 154.643 174.964 154.163 174.676C153.691 174.388 153.319 173.984 153.047 173.464C152.775 172.944 152.639 172.352 152.639 171.688C152.639 171.016 152.775 170.428 153.047 169.924C153.319 169.412 153.691 169.016 154.163 168.736C154.643 168.456 155.175 168.316 155.759 168.316ZM158.207 171.7C158.207 171.204 158.107 170.772 157.907 170.404C157.707 170.036 157.435 169.756 157.091 169.564C156.755 169.364 156.383 169.264 155.975 169.264C155.567 169.264 155.195 169.36 154.859 169.552C154.523 169.744 154.255 170.024 154.055 170.392C153.855 170.76 153.755 171.192 153.755 171.688C153.755 172.192 153.855 172.632 154.055 173.008C154.255 173.376 154.523 173.66 154.859 173.86C155.195 174.052 155.567 174.148 155.975 174.148C156.383 174.148 156.755 174.052 157.091 173.86C157.435 173.66 157.707 173.376 157.907 173.008C158.107 172.632 158.207 172.196 158.207 171.7ZM164.789 168.304C165.589 168.304 166.237 168.548 166.733 169.036C167.229 169.516 167.477 170.212 167.477 171.124V175H166.397V171.28C166.397 170.624 166.233 170.124 165.905 169.78C165.577 169.428 165.129 169.252 164.561 169.252C163.985 169.252 163.525 169.432 163.181 169.792C162.845 170.152 162.677 170.676 162.677 171.364V175H161.585V168.424H162.677V169.36C162.893 169.024 163.185 168.764 163.553 168.58C163.929 168.396 164.341 168.304 164.789 168.304ZM169.282 171.688C169.282 171.016 169.418 170.428 169.69 169.924C169.962 169.412 170.334 169.016 170.806 168.736C171.286 168.456 171.818 168.316 172.402 168.316C172.978 168.316 173.478 168.44 173.902 168.688C174.326 168.936 174.642 169.248 174.85 169.624V168.424H175.954V175H174.85V173.776C174.634 174.16 174.31 174.48 173.878 174.736C173.454 174.984 172.958 175.108 172.39 175.108C171.806 175.108 171.278 174.964 170.806 174.676C170.334 174.388 169.962 173.984 169.69 173.464C169.418 172.944 169.282 172.352 169.282 171.688ZM174.85 171.7C174.85 171.204 174.75 170.772 174.55 170.404C174.35 170.036 174.078 169.756 173.734 169.564C173.398 169.364 173.026 169.264 172.618 169.264C172.21 169.264 171.838 169.36 171.502 169.552C171.166 169.744 170.898 170.024 170.698 170.392C170.498 170.76 170.398 171.192 170.398 171.688C170.398 172.192 170.498 172.632 170.698 173.008C170.898 173.376 171.166 173.66 171.502 173.86C171.838 174.052 172.21 174.148 172.618 174.148C173.026 174.148 173.398 174.052 173.734 173.86C174.078 173.66 174.35 173.376 174.55 173.008C174.75 172.632 174.85 172.196 174.85 171.7ZM181.447 171.688C181.447 171.016 181.583 170.428 181.855 169.924C182.127 169.412 182.499 169.016 182.971 168.736C183.451 168.456 183.983 168.316 184.567 168.316C185.143 168.316 185.643 168.44 186.067 168.688C186.491 168.936 186.807 169.248 187.015 169.624V168.424H188.119V175H187.015V173.776C186.799 174.16 186.475 174.48 186.043 174.736C185.619 174.984 185.123 175.108 184.555 175.108C183.971 175.108 183.443 174.964 182.971 174.676C182.499 174.388 182.127 173.984 181.855 173.464C181.583 172.944 181.447 172.352 181.447 171.688ZM187.015 171.7C187.015 171.204 186.915 170.772 186.715 170.404C186.515 170.036 186.243 169.756 185.899 169.564C185.563 169.364 185.191 169.264 184.783 169.264C184.375 169.264 184.003 169.36 183.667 169.552C183.331 169.744 183.063 170.024 182.863 170.392C182.663 170.76 182.563 171.192 182.563 171.688C182.563 172.192 182.663 172.632 182.863 173.008C183.063 173.376 183.331 173.66 183.667 173.86C184.003 174.052 184.375 174.148 184.783 174.148C185.191 174.148 185.563 174.052 185.899 173.86C186.243 173.66 186.515 173.376 186.715 173.008C186.915 172.632 187.015 172.196 187.015 171.7ZM191.485 166.12V175H190.393V166.12H191.485ZM194.339 167.356C194.131 167.356 193.955 167.284 193.811 167.14C193.667 166.996 193.595 166.82 193.595 166.612C193.595 166.404 193.667 166.228 193.811 166.084C193.955 165.94 194.131 165.868 194.339 165.868C194.539 165.868 194.707 165.94 194.843 166.084C194.987 166.228 195.059 166.404 195.059 166.612C195.059 166.82 194.987 166.996 194.843 167.14C194.707 167.284 194.539 167.356 194.339 167.356ZM194.867 168.424V175H193.775V168.424H194.867ZM196.749 171.688C196.749 171.016 196.885 170.428 197.157 169.924C197.429 169.412 197.801 169.016 198.273 168.736C198.753 168.456 199.289 168.316 199.881 168.316C200.449 168.316 200.945 168.444 201.369 168.7C201.801 168.948 202.117 169.256 202.317 169.624V168.424H203.421V178.12H202.317V173.788C202.109 174.156 201.789 174.468 201.357 174.724C200.925 174.98 200.421 175.108 199.845 175.108C199.269 175.108 198.745 174.964 198.273 174.676C197.801 174.388 197.429 173.984 197.157 173.464C196.885 172.944 196.749 172.352 196.749 171.688ZM202.317 171.7C202.317 171.204 202.217 170.772 202.017 170.404C201.817 170.036 201.545 169.756 201.201 169.564C200.865 169.364 200.493 169.264 200.085 169.264C199.677 169.264 199.305 169.36 198.969 169.552C198.633 169.744 198.365 170.024 198.165 170.392C197.965 170.76 197.865 171.192 197.865 171.688C197.865 172.192 197.965 172.632 198.165 173.008C198.365 173.376 198.633 173.66 198.969 173.86C199.305 174.052 199.677 174.148 200.085 174.148C200.493 174.148 200.865 174.052 201.201 173.86C201.545 173.66 201.817 173.376 202.017 173.008C202.217 172.632 202.317 172.196 202.317 171.7ZM211.527 168.424V175H210.435V174.028C210.227 174.364 209.935 174.628 209.559 174.82C209.191 175.004 208.783 175.096 208.335 175.096C207.823 175.096 207.363 174.992 206.955 174.784C206.547 174.568 206.223 174.248 205.983 173.824C205.751 173.4 205.635 172.884 205.635 172.276V168.424H206.715V172.132C206.715 172.78 206.879 173.28 207.207 173.632C207.535 173.976 207.983 174.148 208.551 174.148C209.135 174.148 209.595 173.968 209.931 173.608C210.267 173.248 210.435 172.724 210.435 172.036V168.424H211.527ZM213.391 171.688C213.391 171.016 213.527 170.428 213.799 169.924C214.071 169.412 214.443 169.016 214.915 168.736C215.395 168.456 215.927 168.316 216.511 168.316C217.087 168.316 217.587 168.44 218.011 168.688C218.435 168.936 218.751 169.248 218.959 169.624V168.424H220.063V175H218.959V173.776C218.743 174.16 218.419 174.48 217.987 174.736C217.563 174.984 217.067 175.108 216.499 175.108C215.915 175.108 215.387 174.964 214.915 174.676C214.443 174.388 214.071 173.984 213.799 173.464C213.527 172.944 213.391 172.352 213.391 171.688ZM218.959 171.7C218.959 171.204 218.859 170.772 218.659 170.404C218.459 170.036 218.187 169.756 217.843 169.564C217.507 169.364 217.135 169.264 216.727 169.264C216.319 169.264 215.947 169.36 215.611 169.552C215.275 169.744 215.007 170.024 214.807 170.392C214.607 170.76 214.507 171.192 214.507 171.688C214.507 172.192 214.607 172.632 214.807 173.008C215.007 173.376 215.275 173.66 215.611 173.86C215.947 174.052 216.319 174.148 216.727 174.148C217.135 174.148 217.507 174.052 217.843 173.86C218.187 173.66 218.459 173.376 218.659 173.008C218.859 172.632 218.959 172.196 218.959 171.7ZM222.685 175.072C222.477 175.072 222.301 175 222.157 174.856C222.013 174.712 221.941 174.536 221.941 174.328C221.941 174.12 222.013 173.944 222.157 173.8C222.301 173.656 222.477 173.584 222.685 173.584C222.885 173.584 223.053 173.656 223.189 173.8C223.333 173.944 223.405 174.12 223.405 174.328C223.405 174.536 223.333 174.712 223.189 174.856C223.053 175 222.885 175.072 222.685 175.072ZM26.992 187.636V192.928C26.992 193.672 27.172 194.224 27.532 194.584C27.9 194.944 28.408 195.124 29.056 195.124C29.696 195.124 30.196 194.944 30.556 194.584C30.924 194.224 31.108 193.672 31.108 192.928V187.636H32.2V192.916C32.2 193.612 32.06 194.2 31.78 194.68C31.5 195.152 31.12 195.504 30.64 195.736C30.168 195.968 29.636 196.084 29.044 196.084C28.452 196.084 27.916 195.968 27.436 195.736C26.964 195.504 26.588 195.152 26.308 194.68C26.036 194.2 25.9 193.612 25.9 192.916V187.636H26.992ZM35.7822 190.324V194.2C35.7822 194.52 35.8502 194.748 35.9862 194.884C36.1222 195.012 36.3582 195.076 36.6942 195.076H37.4982V196H36.5142C35.9062 196 35.4502 195.86 35.1462 195.58C34.8422 195.3 34.6902 194.84 34.6902 194.2V190.324H33.8382V189.424H34.6902V187.768H35.7822V189.424H37.4982V190.324H35.7822ZM48.8777 192.46C48.8777 192.668 48.8657 192.888 48.8417 193.12H43.5857C43.6257 193.768 43.8457 194.276 44.2457 194.644C44.6537 195.004 45.1457 195.184 45.7217 195.184C46.1937 195.184 46.5857 195.076 46.8977 194.86C47.2177 194.636 47.4417 194.34 47.5697 193.972H48.7457C48.5697 194.604 48.2177 195.12 47.6897 195.52C47.1617 195.912 46.5057 196.108 45.7217 196.108C45.0977 196.108 44.5377 195.968 44.0417 195.688C43.5537 195.408 43.1697 195.012 42.8897 194.5C42.6097 193.98 42.4697 193.38 42.4697 192.7C42.4697 192.02 42.6057 191.424 42.8777 190.912C43.1497 190.4 43.5297 190.008 44.0177 189.736C44.5137 189.456 45.0817 189.316 45.7217 189.316C46.3457 189.316 46.8977 189.452 47.3777 189.724C47.8577 189.996 48.2257 190.372 48.4817 190.852C48.7457 191.324 48.8777 191.86 48.8777 192.46ZM47.7497 192.232C47.7497 191.816 47.6577 191.46 47.4737 191.164C47.2897 190.86 47.0377 190.632 46.7177 190.48C46.4057 190.32 46.0577 190.24 45.6737 190.24C45.1217 190.24 44.6497 190.416 44.2577 190.768C43.8737 191.12 43.6537 191.608 43.5977 192.232H47.7497ZM53.9517 189.304C54.7517 189.304 55.3997 189.548 55.8957 190.036C56.3917 190.516 56.6397 191.212 56.6397 192.124V196H55.5597V192.28C55.5597 191.624 55.3957 191.124 55.0677 190.78C54.7397 190.428 54.2917 190.252 53.7237 190.252C53.1477 190.252 52.6877 190.432 52.3437 190.792C52.0077 191.152 51.8397 191.676 51.8397 192.364V196H50.7477V189.424H51.8397V190.36C52.0557 190.024 52.3477 189.764 52.7157 189.58C53.0917 189.396 53.5037 189.304 53.9517 189.304ZM59.416 188.356C59.208 188.356 59.032 188.284 58.888 188.14C58.744 187.996 58.672 187.82 58.672 187.612C58.672 187.404 58.744 187.228 58.888 187.084C59.032 186.94 59.208 186.868 59.416 186.868C59.616 186.868 59.784 186.94 59.92 187.084C60.064 187.228 60.136 187.404 60.136 187.612C60.136 187.82 60.064 187.996 59.92 188.14C59.784 188.284 59.616 188.356 59.416 188.356ZM59.944 189.424V196H58.852V189.424H59.944ZM70.1417 189.304C70.6537 189.304 71.1097 189.412 71.5097 189.628C71.9097 189.836 72.2257 190.152 72.4577 190.576C72.6897 191 72.8057 191.516 72.8057 192.124V196H71.7257V192.28C71.7257 191.624 71.5617 191.124 71.2337 190.78C70.9137 190.428 70.4777 190.252 69.9257 190.252C69.3577 190.252 68.9057 190.436 68.5697 190.804C68.2337 191.164 68.0657 191.688 68.0657 192.376V196H66.9857V192.28C66.9857 191.624 66.8217 191.124 66.4937 190.78C66.1737 190.428 65.7377 190.252 65.1857 190.252C64.6177 190.252 64.1657 190.436 63.8297 190.804C63.4937 191.164 63.3257 191.688 63.3257 192.376V196H62.2337V189.424H63.3257V190.372C63.5417 190.028 63.8297 189.764 64.1897 189.58C64.5577 189.396 64.9617 189.304 65.4017 189.304C65.9537 189.304 66.4417 189.428 66.8657 189.676C67.2897 189.924 67.6057 190.288 67.8137 190.768C67.9977 190.304 68.3017 189.944 68.7257 189.688C69.1497 189.432 69.6217 189.304 70.1417 189.304ZM78.2454 192.688C78.2454 192.016 78.3814 191.428 78.6534 190.924C78.9254 190.412 79.2974 190.016 79.7694 189.736C80.2494 189.456 80.7814 189.316 81.3654 189.316C81.9414 189.316 82.4414 189.44 82.8654 189.688C83.2894 189.936 83.6054 190.248 83.8134 190.624V189.424H84.9174V196H83.8134V194.776C83.5974 195.16 83.2734 195.48 82.8414 195.736C82.4174 195.984 81.9214 196.108 81.3534 196.108C80.7694 196.108 80.2414 195.964 79.7694 195.676C79.2974 195.388 78.9254 194.984 78.6534 194.464C78.3814 193.944 78.2454 193.352 78.2454 192.688ZM83.8134 192.7C83.8134 192.204 83.7134 191.772 83.5134 191.404C83.3134 191.036 83.0414 190.756 82.6974 190.564C82.3614 190.364 81.9894 190.264 81.5814 190.264C81.1734 190.264 80.8014 190.36 80.4654 190.552C80.1294 190.744 79.8614 191.024 79.6614 191.392C79.4614 191.76 79.3614 192.192 79.3614 192.688C79.3614 193.192 79.4614 193.632 79.6614 194.008C79.8614 194.376 80.1294 194.66 80.4654 194.86C80.8014 195.052 81.1734 195.148 81.5814 195.148C81.9894 195.148 82.3614 195.052 82.6974 194.86C83.0414 194.66 83.3134 194.376 83.5134 194.008C83.7134 193.632 83.8134 193.196 83.8134 192.7ZM86.7833 192.688C86.7833 192.016 86.9193 191.428 87.1913 190.924C87.4633 190.412 87.8353 190.016 88.3073 189.736C88.7873 189.456 89.3233 189.316 89.9153 189.316C90.4273 189.316 90.9033 189.436 91.3433 189.676C91.7833 189.908 92.1193 190.216 92.3513 190.6V187.12H93.4553V196H92.3513V194.764C92.1353 195.156 91.8153 195.48 91.3913 195.736C90.9673 195.984 90.4713 196.108 89.9033 196.108C89.3193 196.108 88.7873 195.964 88.3073 195.676C87.8353 195.388 87.4633 194.984 87.1913 194.464C86.9193 193.944 86.7833 193.352 86.7833 192.688ZM92.3513 192.7C92.3513 192.204 92.2513 191.772 92.0513 191.404C91.8513 191.036 91.5793 190.756 91.2353 190.564C90.8993 190.364 90.5273 190.264 90.1193 190.264C89.7113 190.264 89.3393 190.36 89.0033 190.552C88.6673 190.744 88.3993 191.024 88.1993 191.392C87.9993 191.76 87.8993 192.192 87.8993 192.688C87.8993 193.192 87.9993 193.632 88.1993 194.008C88.3993 194.376 88.6673 194.66 89.0033 194.86C89.3393 195.052 89.7113 195.148 90.1193 195.148C90.5273 195.148 90.8993 195.052 91.2353 194.86C91.5793 194.66 91.8513 194.376 92.0513 194.008C92.2513 193.632 92.3513 193.196 92.3513 192.7ZM107.265 189.304C107.777 189.304 108.233 189.412 108.633 189.628C109.033 189.836 109.349 190.152 109.581 190.576C109.813 191 109.929 191.516 109.929 192.124V196H108.849V192.28C108.849 191.624 108.685 191.124 108.357 190.78C108.037 190.428 107.601 190.252 107.049 190.252C106.481 190.252 106.029 190.436 105.693 190.804C105.357 191.164 105.189 191.688 105.189 192.376V196H104.109V192.28C104.109 191.624 103.945 191.124 103.617 190.78C103.297 190.428 102.861 190.252 102.309 190.252C101.741 190.252 101.289 190.436 100.953 190.804C100.617 191.164 100.449 191.688 100.449 192.376V196H99.357V189.424H100.449V190.372C100.665 190.028 100.953 189.764 101.313 189.58C101.681 189.396 102.085 189.304 102.525 189.304C103.077 189.304 103.565 189.428 103.989 189.676C104.413 189.924 104.729 190.288 104.937 190.768C105.121 190.304 105.425 189.944 105.849 189.688C106.273 189.432 106.745 189.304 107.265 189.304ZM112.713 188.356C112.505 188.356 112.329 188.284 112.185 188.14C112.041 187.996 111.969 187.82 111.969 187.612C111.969 187.404 112.041 187.228 112.185 187.084C112.329 186.94 112.505 186.868 112.713 186.868C112.913 186.868 113.081 186.94 113.217 187.084C113.361 187.228 113.433 187.404 113.433 187.612C113.433 187.82 113.361 187.996 113.217 188.14C113.081 188.284 112.913 188.356 112.713 188.356ZM113.241 189.424V196H112.149V189.424H113.241ZM118.735 189.304C119.535 189.304 120.183 189.548 120.679 190.036C121.175 190.516 121.423 191.212 121.423 192.124V196H120.343V192.28C120.343 191.624 120.179 191.124 119.851 190.78C119.523 190.428 119.075 190.252 118.507 190.252C117.931 190.252 117.471 190.432 117.127 190.792C116.791 191.152 116.623 191.676 116.623 192.364V196H115.531V189.424H116.623V190.36C116.839 190.024 117.131 189.764 117.499 189.58C117.875 189.396 118.287 189.304 118.735 189.304ZM124.199 188.356C123.991 188.356 123.815 188.284 123.671 188.14C123.527 187.996 123.455 187.82 123.455 187.612C123.455 187.404 123.527 187.228 123.671 187.084C123.815 186.94 123.991 186.868 124.199 186.868C124.399 186.868 124.567 186.94 124.703 187.084C124.847 187.228 124.919 187.404 124.919 187.612C124.919 187.82 124.847 187.996 124.703 188.14C124.567 188.284 124.399 188.356 124.199 188.356ZM124.727 189.424V196H123.635V189.424H124.727ZM134.925 189.304C135.437 189.304 135.893 189.412 136.293 189.628C136.693 189.836 137.009 190.152 137.241 190.576C137.473 191 137.589 191.516 137.589 192.124V196H136.509V192.28C136.509 191.624 136.345 191.124 136.017 190.78C135.697 190.428 135.261 190.252 134.709 190.252C134.141 190.252 133.689 190.436 133.353 190.804C133.017 191.164 132.849 191.688 132.849 192.376V196H131.769V192.28C131.769 191.624 131.605 191.124 131.277 190.78C130.957 190.428 130.521 190.252 129.969 190.252C129.401 190.252 128.949 190.436 128.613 190.804C128.277 191.164 128.109 191.688 128.109 192.376V196H127.017V189.424H128.109V190.372C128.325 190.028 128.613 189.764 128.973 189.58C129.341 189.396 129.745 189.304 130.185 189.304C130.737 189.304 131.225 189.428 131.649 189.676C132.073 189.924 132.389 190.288 132.597 190.768C132.781 190.304 133.085 189.944 133.509 189.688C133.933 189.432 134.405 189.304 134.925 189.304ZM140.156 196.072C139.948 196.072 139.772 196 139.628 195.856C139.484 195.712 139.412 195.536 139.412 195.328C139.412 195.12 139.484 194.944 139.628 194.8C139.772 194.656 139.948 194.584 140.156 194.584C140.356 194.584 140.524 194.656 140.66 194.8C140.804 194.944 140.876 195.12 140.876 195.328C140.876 195.536 140.804 195.712 140.66 195.856C140.524 196 140.356 196.072 140.156 196.072Z" fill="#404852"/>
<path d="M29.96 129.112C29.1813 129.112 28.4773 128.979 27.848 128.712C27.2293 128.445 26.7387 128.061 26.376 127.56C26.0133 127.059 25.8267 126.467 25.816 125.784H28.216C28.248 126.243 28.408 126.605 28.696 126.872C28.9947 127.139 29.4 127.272 29.912 127.272C30.4347 127.272 30.8453 127.149 31.144 126.904C31.4427 126.648 31.592 126.317 31.592 125.912C31.592 125.581 31.4907 125.309 31.288 125.096C31.0853 124.883 30.8293 124.717 30.52 124.6C30.2213 124.472 29.8053 124.333 29.272 124.184C28.5467 123.971 27.9547 123.763 27.496 123.56C27.048 123.347 26.6587 123.032 26.328 122.616C26.008 122.189 25.848 121.624 25.848 120.92C25.848 120.259 26.0133 119.683 26.344 119.192C26.6747 118.701 27.1387 118.328 27.736 118.072C28.3333 117.805 29.016 117.672 29.784 117.672C30.936 117.672 31.8693 117.955 32.584 118.52C33.3093 119.075 33.7093 119.853 33.784 120.856H31.32C31.2987 120.472 31.1333 120.157 30.824 119.912C30.5253 119.656 30.1253 119.528 29.624 119.528C29.1867 119.528 28.8347 119.64 28.568 119.864C28.312 120.088 28.184 120.413 28.184 120.84C28.184 121.139 28.28 121.389 28.472 121.592C28.6747 121.784 28.92 121.944 29.208 122.072C29.5067 122.189 29.9227 122.328 30.456 122.488C31.1813 122.701 31.7733 122.915 32.232 123.128C32.6907 123.341 33.0853 123.661 33.416 124.088C33.7467 124.515 33.912 125.075 33.912 125.768C33.912 126.365 33.7573 126.92 33.448 127.432C33.1387 127.944 32.6853 128.355 32.088 128.664C31.4907 128.963 30.7813 129.112 29.96 129.112ZM35.6209 124.536C35.6209 123.64 35.7969 122.845 36.1489 122.152C36.5115 121.459 36.9969 120.925 37.6049 120.552C38.2235 120.179 38.9115 119.992 39.6689 119.992C40.3302 119.992 40.9062 120.125 41.3969 120.392C41.8982 120.659 42.2982 120.995 42.5969 121.4V120.136H44.8529V129H42.5969V127.704C42.3089 128.12 41.9089 128.467 41.3969 128.744C40.8955 129.011 40.3142 129.144 39.6529 129.144C38.9062 129.144 38.2235 128.952 37.6049 128.568C36.9969 128.184 36.5115 127.645 36.1489 126.952C35.7969 126.248 35.6209 125.443 35.6209 124.536ZM42.5969 124.568C42.5969 124.024 42.4902 123.56 42.2769 123.176C42.0635 122.781 41.7755 122.483 41.4129 122.28C41.0502 122.067 40.6609 121.96 40.2449 121.96C39.8289 121.96 39.4449 122.061 39.0929 122.264C38.7409 122.467 38.4529 122.765 38.2289 123.16C38.0155 123.544 37.9089 124.003 37.9089 124.536C37.9089 125.069 38.0155 125.539 38.2289 125.944C38.4529 126.339 38.7409 126.643 39.0929 126.856C39.4555 127.069 39.8395 127.176 40.2449 127.176C40.6609 127.176 41.0502 127.075 41.4129 126.872C41.7755 126.659 42.0635 126.36 42.2769 125.976C42.4902 125.581 42.5969 125.112 42.5969 124.568ZM51.0795 126.936L53.3195 120.136H55.7035L52.4235 129H49.7035L46.4395 120.136H48.8395L51.0795 126.936ZM65.5444 124.376C65.5444 124.696 65.5231 124.984 65.4804 125.24H59.0004C59.0538 125.88 59.2778 126.381 59.6724 126.744C60.0671 127.107 60.5524 127.288 61.1284 127.288C61.9604 127.288 62.5524 126.931 62.9044 126.216H65.3204C65.0644 127.069 64.5738 127.773 63.8484 128.328C63.1231 128.872 62.2324 129.144 61.1764 129.144C60.3231 129.144 59.5551 128.957 58.8724 128.584C58.2004 128.2 57.6724 127.661 57.2884 126.968C56.9151 126.275 56.7284 125.475 56.7284 124.568C56.7284 123.651 56.9151 122.845 57.2884 122.152C57.6618 121.459 58.1844 120.925 58.8564 120.552C59.5284 120.179 60.3018 119.992 61.1764 119.992C62.0191 119.992 62.7711 120.173 63.4324 120.536C64.1044 120.899 64.6218 121.416 64.9844 122.088C65.3578 122.749 65.5444 123.512 65.5444 124.376ZM63.2244 123.736C63.2138 123.16 63.0058 122.701 62.6004 122.36C62.1951 122.008 61.6991 121.832 61.1124 121.832C60.5578 121.832 60.0884 122.003 59.7044 122.344C59.3311 122.675 59.1018 123.139 59.0164 123.736H63.2244ZM82.6857 120.008C83.7737 120.008 84.6483 120.344 85.3097 121.016C85.9817 121.677 86.3177 122.605 86.3177 123.8V129H84.0777V124.104C84.0777 123.411 83.9017 122.883 83.5497 122.52C83.1977 122.147 82.7177 121.96 82.1097 121.96C81.5017 121.96 81.0163 122.147 80.6537 122.52C80.3017 122.883 80.1257 123.411 80.1257 124.104V129H77.8857V124.104C77.8857 123.411 77.7097 122.883 77.3577 122.52C77.0057 122.147 76.5257 121.96 75.9177 121.96C75.299 121.96 74.8083 122.147 74.4457 122.52C74.0937 122.883 73.9177 123.411 73.9177 124.104V129H71.6777V120.136H73.9177V121.208C74.2057 120.835 74.5737 120.541 75.0217 120.328C75.4803 120.115 75.9817 120.008 76.5257 120.008C77.219 120.008 77.8377 120.157 78.3817 120.456C78.9257 120.744 79.347 121.16 79.6457 121.704C79.9337 121.192 80.3497 120.781 80.8937 120.472C81.4483 120.163 82.0457 120.008 82.6857 120.008ZM92.7221 129.144C91.8688 129.144 91.1008 128.957 90.4181 128.584C89.7355 128.2 89.1968 127.661 88.8021 126.968C88.4181 126.275 88.2261 125.475 88.2261 124.568C88.2261 123.661 88.4235 122.861 88.8181 122.168C89.2235 121.475 89.7728 120.941 90.4661 120.568C91.1595 120.184 91.9328 119.992 92.7861 119.992C93.6395 119.992 94.4128 120.184 95.1061 120.568C95.7995 120.941 96.3435 121.475 96.7381 122.168C97.1435 122.861 97.3461 123.661 97.3461 124.568C97.3461 125.475 97.1381 126.275 96.7221 126.968C96.3168 127.661 95.7621 128.2 95.0581 128.584C94.3648 128.957 93.5861 129.144 92.7221 129.144ZM92.7221 127.192C93.1275 127.192 93.5061 127.096 93.8581 126.904C94.2208 126.701 94.5088 126.403 94.7221 126.008C94.9355 125.613 95.0421 125.133 95.0421 124.568C95.0421 123.725 94.8181 123.08 94.3701 122.632C93.9328 122.173 93.3941 121.944 92.7541 121.944C92.1141 121.944 91.5755 122.173 91.1381 122.632C90.7115 123.08 90.4981 123.725 90.4981 124.568C90.4981 125.411 90.7061 126.061 91.1221 126.52C91.5488 126.968 92.0821 127.192 92.7221 127.192ZM101.572 121.512C101.86 121.043 102.233 120.675 102.692 120.408C103.161 120.141 103.695 120.008 104.292 120.008V122.36H103.7C102.996 122.36 102.463 122.525 102.1 122.856C101.748 123.187 101.572 123.763 101.572 124.584V129H99.3321V120.136H101.572V121.512ZM114.384 124.376C114.384 124.696 114.362 124.984 114.32 125.24H107.84C107.893 125.88 108.117 126.381 108.512 126.744C108.906 127.107 109.392 127.288 109.968 127.288C110.8 127.288 111.392 126.931 111.744 126.216H114.16C113.904 127.069 113.413 127.773 112.688 128.328C111.962 128.872 111.072 129.144 110.016 129.144C109.162 129.144 108.394 128.957 107.712 128.584C107.04 128.2 106.512 127.661 106.128 126.968C105.754 126.275 105.568 125.475 105.568 124.568C105.568 123.651 105.754 122.845 106.128 122.152C106.501 121.459 107.024 120.925 107.696 120.552C108.368 120.179 109.141 119.992 110.016 119.992C110.858 119.992 111.61 120.173 112.272 120.536C112.944 120.899 113.461 121.416 113.824 122.088C114.197 122.749 114.384 123.512 114.384 124.376ZM112.064 123.736C112.053 123.16 111.845 122.701 111.44 122.36C111.034 122.008 110.538 121.832 109.952 121.832C109.397 121.832 108.928 122.003 108.544 122.344C108.17 122.675 107.941 123.139 107.856 123.736H112.064ZM131.525 120.008C132.613 120.008 133.488 120.344 134.149 121.016C134.821 121.677 135.157 122.605 135.157 123.8V129H132.917V124.104C132.917 123.411 132.741 122.883 132.389 122.52C132.037 122.147 131.557 121.96 130.949 121.96C130.341 121.96 129.856 122.147 129.493 122.52C129.141 122.883 128.965 123.411 128.965 124.104V129H126.725V124.104C126.725 123.411 126.549 122.883 126.197 122.52C125.845 122.147 125.365 121.96 124.757 121.96C124.138 121.96 123.648 122.147 123.285 122.52C122.933 122.883 122.757 123.411 122.757 124.104V129H120.517V120.136H122.757V121.208C123.045 120.835 123.413 120.541 123.861 120.328C124.32 120.115 124.821 120.008 125.365 120.008C126.058 120.008 126.677 120.157 127.221 120.456C127.765 120.744 128.186 121.16 128.485 121.704C128.773 121.192 129.189 120.781 129.733 120.472C130.288 120.163 130.885 120.008 131.525 120.008ZM141.561 129.144C140.708 129.144 139.94 128.957 139.257 128.584C138.575 128.2 138.036 127.661 137.641 126.968C137.257 126.275 137.065 125.475 137.065 124.568C137.065 123.661 137.263 122.861 137.657 122.168C138.063 121.475 138.612 120.941 139.305 120.568C139.999 120.184 140.772 119.992 141.625 119.992C142.479 119.992 143.252 120.184 143.945 120.568C144.639 120.941 145.183 121.475 145.577 122.168C145.983 122.861 146.185 123.661 146.185 124.568C146.185 125.475 145.977 126.275 145.561 126.968C145.156 127.661 144.601 128.2 143.897 128.584C143.204 128.957 142.425 129.144 141.561 129.144ZM141.561 127.192C141.967 127.192 142.345 127.096 142.697 126.904C143.06 126.701 143.348 126.403 143.561 126.008C143.775 125.613 143.881 125.133 143.881 124.568C143.881 123.725 143.657 123.08 143.209 122.632C142.772 122.173 142.233 121.944 141.593 121.944C140.953 121.944 140.415 122.173 139.977 122.632C139.551 123.08 139.337 123.725 139.337 124.568C139.337 125.411 139.545 126.061 139.961 126.52C140.388 126.968 140.921 127.192 141.561 127.192ZM153.083 120.008C154.139 120.008 154.993 120.344 155.643 121.016C156.294 121.677 156.619 122.605 156.619 123.8V129H154.379V124.104C154.379 123.4 154.203 122.861 153.851 122.488C153.499 122.104 153.019 121.912 152.411 121.912C151.793 121.912 151.302 122.104 150.939 122.488C150.587 122.861 150.411 123.4 150.411 124.104V129H148.171V120.136H150.411V121.24C150.71 120.856 151.089 120.557 151.547 120.344C152.017 120.12 152.529 120.008 153.083 120.008ZM167.332 124.376C167.332 124.696 167.311 124.984 167.268 125.24H160.788C160.842 125.88 161.066 126.381 161.46 126.744C161.855 127.107 162.34 127.288 162.916 127.288C163.748 127.288 164.34 126.931 164.692 126.216H167.108C166.852 127.069 166.362 127.773 165.636 128.328C164.911 128.872 164.02 129.144 162.964 129.144C162.111 129.144 161.343 128.957 160.66 128.584C159.988 128.2 159.46 127.661 159.076 126.968C158.703 126.275 158.516 125.475 158.516 124.568C158.516 123.651 158.703 122.845 159.076 122.152C159.45 121.459 159.972 120.925 160.644 120.552C161.316 120.179 162.09 119.992 162.964 119.992C163.807 119.992 164.559 120.173 165.22 120.536C165.892 120.899 166.41 121.416 166.772 122.088C167.146 122.749 167.332 123.512 167.332 124.376ZM165.012 123.736C165.002 123.16 164.794 122.701 164.388 122.36C163.983 122.008 163.487 121.832 162.9 121.832C162.346 121.832 161.876 122.003 161.492 122.344C161.119 122.675 160.89 123.139 160.804 123.736H165.012ZM177.79 120.136L172.302 133.192H169.918L171.838 128.776L168.286 120.136H170.798L173.086 126.328L175.406 120.136H177.79Z" fill="#273240"/>
<defs>
<linearGradient id="paint0_linear_101_23" x1="185.417" y1="53.8452" x2="158.62" y2="100.137" gradientUnits="userSpaceOnUse">
<stop stop-color="#CBDDEE"/>
<stop offset="1" stop-color="#B8D0E6"/>
<stop offset="1" stop-color="#B8D0E6"/>
</linearGradient>
<linearGradient id="paint1_linear_101_23" x1="135.854" y1="69.5192" x2="82.9344" y2="13.5042" gradientUnits="userSpaceOnUse">
<stop stop-color="#FFB966"/>
<stop offset="1" stop-color="#FF895F"/>
<stop offset="1" stop-color="#FF895F"/>
</linearGradient>
<linearGradient id="paint2_linear_101_23" x1="119.966" y1="40.6998" x2="103.16" y2="6.84759" gradientUnits="userSpaceOnUse">
<stop stop-color="#85D4FF"/>
<stop offset="1" stop-color="#51A4FF"/>
</linearGradient>
</defs>
</svg>
