<svg width="250" height="37" viewBox="0 0 250 37" fill="none" xmlns="http://www.w3.org/2000/svg">
<path d="M6.292 7.965V9.174H2.457V11.839H5.447V13.048H2.457V17H0.975V7.965H6.292ZM11.2367 17.117C10.5607 17.117 9.94972 16.9653 9.40372 16.662C8.85772 16.35 8.42872 15.9167 8.11672 15.362C7.80472 14.7987 7.64872 14.1487 7.64872 13.412C7.64872 12.684 7.80905 12.0383 8.12972 11.475C8.45038 10.9117 8.88805 10.4783 9.44272 10.175C9.99738 9.87167 10.617 9.72 11.3017 9.72C11.9864 9.72 12.606 9.87167 13.1607 10.175C13.7154 10.4783 14.153 10.9117 14.4737 11.475C14.7944 12.0383 14.9547 12.684 14.9547 13.412C14.9547 14.14 14.79 14.7857 14.4607 15.349C14.1314 15.9123 13.6807 16.35 13.1087 16.662C12.5454 16.9653 11.9214 17.117 11.2367 17.117ZM11.2367 15.83C11.618 15.83 11.9734 15.739 12.3027 15.557C12.6407 15.375 12.9137 15.102 13.1217 14.738C13.3297 14.374 13.4337 13.932 13.4337 13.412C13.4337 12.892 13.334 12.4543 13.1347 12.099C12.9354 11.735 12.671 11.462 12.3417 11.28C12.0124 11.098 11.657 11.007 11.2757 11.007C10.8944 11.007 10.539 11.098 10.2097 11.28C9.88905 11.462 9.63338 11.735 9.44272 12.099C9.25205 12.4543 9.15672 12.892 9.15672 13.412C9.15672 14.1833 9.35172 14.7813 9.74172 15.206C10.1404 15.622 10.6387 15.83 11.2367 15.83ZM19.991 17.117C19.315 17.117 18.704 16.9653 18.158 16.662C17.612 16.35 17.183 15.9167 16.871 15.362C16.559 14.7987 16.403 14.1487 16.403 13.412C16.403 12.684 16.5634 12.0383 16.884 11.475C17.2047 10.9117 17.6424 10.4783 18.197 10.175C18.7517 9.87167 19.3714 9.72 20.056 9.72C20.7407 9.72 21.3604 9.87167 21.915 10.175C22.4697 10.4783 22.9074 10.9117 23.228 11.475C23.5487 12.0383 23.709 12.684 23.709 13.412C23.709 14.14 23.5444 14.7857 23.215 15.349C22.8857 15.9123 22.435 16.35 21.863 16.662C21.2997 16.9653 20.6757 17.117 19.991 17.117ZM19.991 15.83C20.3724 15.83 20.7277 15.739 21.057 15.557C21.395 15.375 21.668 15.102 21.876 14.738C22.084 14.374 22.188 13.932 22.188 13.412C22.188 12.892 22.0884 12.4543 21.889 12.099C21.6897 11.735 21.4254 11.462 21.096 11.28C20.7667 11.098 20.4114 11.007 20.03 11.007C19.6487 11.007 19.2934 11.098 18.964 11.28C18.6434 11.462 18.3877 11.735 18.197 12.099C18.0064 12.4543 17.911 12.892 17.911 13.412C17.911 14.1833 18.106 14.7813 18.496 15.206C18.8947 15.622 19.393 15.83 19.991 15.83ZM25.1444 13.386C25.1444 12.6667 25.2917 12.0297 25.5864 11.475C25.8897 10.9203 26.297 10.4913 26.8084 10.188C27.3284 9.876 27.9047 9.72 28.5374 9.72C29.0054 9.72 29.4647 9.824 29.9154 10.032C30.3747 10.2313 30.7387 10.5 31.0074 10.838V7.38H32.5024V17H31.0074V15.921C30.7647 16.2677 30.4267 16.5537 29.9934 16.779C29.5687 17.0043 29.079 17.117 28.5244 17.117C27.9004 17.117 27.3284 16.961 26.8084 16.649C26.297 16.3283 25.8897 15.8863 25.5864 15.323C25.2917 14.751 25.1444 14.1053 25.1444 13.386ZM31.0074 13.412C31.0074 12.918 30.9034 12.489 30.6954 12.125C30.496 11.761 30.2317 11.4837 29.9024 11.293C29.573 11.1023 29.2177 11.007 28.8364 11.007C28.455 11.007 28.0997 11.1023 27.7704 11.293C27.441 11.475 27.1724 11.748 26.9644 12.112C26.765 12.4673 26.6654 12.892 26.6654 13.386C26.6654 13.88 26.765 14.3133 26.9644 14.686C27.1724 15.0587 27.441 15.3447 27.7704 15.544C28.1084 15.7347 28.4637 15.83 28.8364 15.83C29.2177 15.83 29.573 15.7347 29.9024 15.544C30.2317 15.3533 30.496 15.076 30.6954 14.712C30.9034 14.3393 31.0074 13.906 31.0074 13.412ZM38.2604 13.386C38.2604 12.6667 38.4078 12.0297 38.7024 11.475C39.0058 10.9203 39.4131 10.4913 39.9244 10.188C40.4444 9.876 41.0164 9.72 41.6404 9.72C42.2038 9.72 42.6934 9.83267 43.1094 10.058C43.5341 10.2747 43.8721 10.5477 44.1234 10.877V9.837H45.6184V17H44.1234V15.934C43.8721 16.272 43.5298 16.5537 43.0964 16.779C42.6631 17.0043 42.1691 17.117 41.6144 17.117C40.9991 17.117 40.4358 16.961 39.9244 16.649C39.4131 16.3283 39.0058 15.8863 38.7024 15.323C38.4078 14.751 38.2604 14.1053 38.2604 13.386ZM44.1234 13.412C44.1234 12.918 44.0194 12.489 43.8114 12.125C43.6121 11.761 43.3478 11.4837 43.0184 11.293C42.6891 11.1023 42.3338 11.007 41.9524 11.007C41.5711 11.007 41.2158 11.1023 40.8864 11.293C40.5571 11.475 40.2884 11.748 40.0804 12.112C39.8811 12.4673 39.7814 12.892 39.7814 13.386C39.7814 13.88 39.8811 14.3133 40.0804 14.686C40.2884 15.0587 40.5571 15.3447 40.8864 15.544C41.2244 15.7347 41.5798 15.83 41.9524 15.83C42.3338 15.83 42.6891 15.7347 43.0184 15.544C43.3478 15.3533 43.6121 15.076 43.8114 14.712C44.0194 14.3393 44.1234 13.906 44.1234 13.412ZM51.6433 9.72C52.2066 9.72 52.7093 9.837 53.1513 10.071C53.6019 10.305 53.9529 10.6517 54.2043 11.111C54.4556 11.5703 54.5813 12.125 54.5813 12.775V17H53.1123V12.996C53.1123 12.3547 52.9519 11.865 52.6313 11.527C52.3106 11.1803 51.8729 11.007 51.3183 11.007C50.7636 11.007 50.3216 11.1803 49.9923 11.527C49.6716 11.865 49.5113 12.3547 49.5113 12.996V17H48.0293V9.837H49.5113V10.656C49.7539 10.3613 50.0616 10.1317 50.4343 9.967C50.8156 9.80233 51.2186 9.72 51.6433 9.72ZM56.4419 13.386C56.4419 12.6667 56.5893 12.0297 56.8839 11.475C57.1873 10.9203 57.5946 10.4913 58.1059 10.188C58.6259 9.876 59.2023 9.72 59.8349 9.72C60.3029 9.72 60.7623 9.824 61.2129 10.032C61.6723 10.2313 62.0363 10.5 62.3049 10.838V7.38H63.7999V17H62.3049V15.921C62.0623 16.2677 61.7243 16.5537 61.2909 16.779C60.8663 17.0043 60.3766 17.117 59.8219 17.117C59.1979 17.117 58.6259 16.961 58.1059 16.649C57.5946 16.3283 57.1873 15.8863 56.8839 15.323C56.5893 14.751 56.4419 14.1053 56.4419 13.386ZM62.3049 13.412C62.3049 12.918 62.2009 12.489 61.9929 12.125C61.7936 11.761 61.5293 11.4837 61.1999 11.293C60.8706 11.1023 60.5153 11.007 60.1339 11.007C59.7526 11.007 59.3973 11.1023 59.0679 11.293C58.7386 11.475 58.4699 11.748 58.2619 12.112C58.0626 12.4673 57.9629 12.892 57.9629 13.386C57.9629 13.88 58.0626 14.3133 58.2619 14.686C58.4699 15.0587 58.7386 15.3447 59.0679 15.544C59.4059 15.7347 59.7613 15.83 60.1339 15.83C60.5153 15.83 60.8706 15.7347 61.1999 15.544C61.5293 15.3533 61.7936 15.076 61.9929 14.712C62.2009 14.3393 62.3049 13.906 62.3049 13.412ZM73.003 7.965C73.965 7.965 74.8057 8.15133 75.525 8.524C76.253 8.888 76.812 9.41667 77.202 10.11C77.6007 10.7947 77.8 11.5963 77.8 12.515C77.8 13.4337 77.6007 14.231 77.202 14.907C76.812 15.583 76.253 16.103 75.525 16.467C74.8057 16.8223 73.965 17 73.003 17H70.052V7.965H73.003ZM73.003 15.791C74.0603 15.791 74.8707 15.505 75.434 14.933C75.9973 14.361 76.279 13.555 76.279 12.515C76.279 11.4663 75.9973 10.6473 75.434 10.058C74.8707 9.46867 74.0603 9.174 73.003 9.174H71.534V15.791H73.003ZM81.2151 10.877C81.4318 10.513 81.7178 10.2313 82.0731 10.032C82.4371 9.824 82.8661 9.72 83.3601 9.72V11.254H82.9831C82.4024 11.254 81.9604 11.4013 81.6571 11.696C81.3624 11.9907 81.2151 12.502 81.2151 13.23V17H79.7331V9.837H81.2151V10.877ZM85.9406 8.888C85.672 8.888 85.4466 8.797 85.2646 8.615C85.0826 8.433 84.9916 8.20767 84.9916 7.939C84.9916 7.67033 85.0826 7.445 85.2646 7.263C85.4466 7.081 85.672 6.99 85.9406 6.99C86.2006 6.99 86.4216 7.081 86.6036 7.263C86.7856 7.445 86.8766 7.67033 86.8766 7.939C86.8766 8.20767 86.7856 8.433 86.6036 8.615C86.4216 8.797 86.2006 8.888 85.9406 8.888ZM86.6686 9.837V17H85.1866V9.837H86.6686ZM92.6927 9.72C93.256 9.72 93.7587 9.837 94.2007 10.071C94.6513 10.305 95.0023 10.6517 95.2537 11.111C95.505 11.5703 95.6307 12.125 95.6307 12.775V17H94.1617V12.996C94.1617 12.3547 94.0013 11.865 93.6807 11.527C93.36 11.1803 92.9223 11.007 92.3677 11.007C91.813 11.007 91.371 11.1803 91.0417 11.527C90.721 11.865 90.5607 12.3547 90.5607 12.996V17H89.0787V9.837H90.5607V10.656C90.8033 10.3613 91.111 10.1317 91.4837 9.967C91.865 9.80233 92.268 9.72 92.6927 9.72ZM100.819 13.425L104.121 17H102.119L99.4673 13.919V17H97.9853V7.38H99.4673V12.97L102.067 9.837H104.121L100.819 13.425ZM108.248 17.117C107.685 17.117 107.178 17.0173 106.727 16.818C106.285 16.61 105.934 16.3327 105.674 15.986C105.414 15.6307 105.275 15.2363 105.258 14.803H106.792C106.818 15.1063 106.961 15.362 107.221 15.57C107.49 15.7693 107.823 15.869 108.222 15.869C108.638 15.869 108.959 15.791 109.184 15.635C109.418 15.4703 109.535 15.2623 109.535 15.011C109.535 14.7423 109.405 14.543 109.145 14.413C108.894 14.283 108.491 14.14 107.936 13.984C107.399 13.8367 106.961 13.6937 106.623 13.555C106.285 13.4163 105.99 13.204 105.739 12.918C105.496 12.632 105.375 12.255 105.375 11.787C105.375 11.4057 105.488 11.059 105.713 10.747C105.938 10.4263 106.259 10.175 106.675 9.993C107.1 9.811 107.585 9.72 108.131 9.72C108.946 9.72 109.6 9.928 110.094 10.344C110.597 10.7513 110.865 11.3103 110.9 12.021H109.418C109.392 11.7003 109.262 11.4447 109.028 11.254C108.794 11.0633 108.478 10.968 108.079 10.968C107.689 10.968 107.39 11.0417 107.182 11.189C106.974 11.3363 106.87 11.5313 106.87 11.774C106.87 11.9647 106.939 12.125 107.078 12.255C107.217 12.385 107.386 12.489 107.585 12.567C107.784 12.6363 108.079 12.7273 108.469 12.84C108.989 12.9787 109.414 13.1217 109.743 13.269C110.081 13.4077 110.371 13.6157 110.614 13.893C110.857 14.1703 110.982 14.5387 110.991 14.998C110.991 15.4053 110.878 15.7693 110.653 16.09C110.428 16.4107 110.107 16.662 109.691 16.844C109.284 17.026 108.803 17.117 108.248 17.117Z" fill="#273240"/>
<path d="M199.729 12.112C199.244 11.9213 198.871 11.644 198.611 11.28C198.351 10.916 198.221 10.474 198.221 9.954C198.221 9.486 198.338 9.06567 198.572 8.693C198.806 8.31167 199.153 8.01267 199.612 7.796C200.08 7.57067 200.644 7.458 201.302 7.458C201.961 7.458 202.52 7.57067 202.979 7.796C203.447 8.01267 203.798 8.31167 204.032 8.693C204.275 9.06567 204.396 9.486 204.396 9.954C204.396 10.4567 204.262 10.8987 203.993 11.28C203.725 11.6527 203.356 11.93 202.888 12.112C203.426 12.2767 203.85 12.567 204.162 12.983C204.483 13.3903 204.643 13.8843 204.643 14.465C204.643 15.0283 204.505 15.5223 204.227 15.947C203.95 16.363 203.556 16.688 203.044 16.922C202.542 17.1473 201.961 17.26 201.302 17.26C200.644 17.26 200.063 17.1473 199.56 16.922C199.066 16.688 198.681 16.363 198.403 15.947C198.126 15.5223 197.987 15.0283 197.987 14.465C197.987 13.8843 198.143 13.386 198.455 12.97C198.767 12.554 199.192 12.268 199.729 12.112ZM203.252 10.097C203.252 9.56833 203.079 9.161 202.732 8.875C202.386 8.589 201.909 8.446 201.302 8.446C200.704 8.446 200.232 8.589 199.885 8.875C199.539 9.161 199.365 9.57267 199.365 10.11C199.365 10.5953 199.543 10.9853 199.898 11.28C200.262 11.5747 200.73 11.722 201.302 11.722C201.883 11.722 202.351 11.5747 202.706 11.28C203.07 10.9767 203.252 10.5823 203.252 10.097ZM201.302 12.632C200.661 12.632 200.137 12.7837 199.729 13.087C199.322 13.3817 199.118 13.828 199.118 14.426C199.118 14.9807 199.313 15.427 199.703 15.765C200.102 16.103 200.635 16.272 201.302 16.272C201.97 16.272 202.498 16.103 202.888 15.765C203.278 15.427 203.473 14.9807 203.473 14.426C203.473 13.8453 203.274 13.4033 202.875 13.1C202.477 12.788 201.952 12.632 201.302 12.632ZM212.464 8.524L208.85 17H207.654L211.32 8.641H206.302V7.627H212.464V8.524ZM214.097 16.051C215.198 15.167 216.06 14.4433 216.684 13.88C217.308 13.308 217.832 12.7143 218.257 12.099C218.69 11.475 218.907 10.864 218.907 10.266C218.907 9.70267 218.768 9.26067 218.491 8.94C218.222 8.61067 217.785 8.446 217.178 8.446C216.589 8.446 216.129 8.63233 215.8 9.005C215.479 9.369 215.306 9.85867 215.28 10.474H214.136C214.171 9.50333 214.465 8.75367 215.02 8.225C215.575 7.69633 216.29 7.432 217.165 7.432C218.058 7.432 218.764 7.679 219.284 8.173C219.813 8.667 220.077 9.34733 220.077 10.214C220.077 10.9333 219.86 11.6353 219.427 12.32C219.002 12.996 218.517 13.594 217.971 14.114C217.425 14.6253 216.727 15.2233 215.878 15.908H220.35V16.896H214.097V16.051ZM222.754 17.078C222.528 17.078 222.338 17 222.182 16.844C222.026 16.688 221.948 16.4973 221.948 16.272C221.948 16.0467 222.026 15.856 222.182 15.7C222.338 15.544 222.528 15.466 222.754 15.466C222.97 15.466 223.152 15.544 223.3 15.7C223.456 15.856 223.534 16.0467 223.534 16.272C223.534 16.4973 223.456 16.688 223.3 16.844C223.152 17 222.97 17.078 222.754 17.078ZM225.089 14.907V14.01L229.652 7.692H231.069V13.88H232.369V14.907H231.069V17H229.899V14.907H225.089ZM229.951 8.927L226.454 13.88H229.951V8.927ZM234.016 12.203C234.016 10.7123 234.258 9.551 234.744 8.719C235.229 7.87833 236.078 7.458 237.292 7.458C238.496 7.458 239.341 7.87833 239.827 8.719C240.312 9.551 240.555 10.7123 240.555 12.203C240.555 13.7197 240.312 14.8983 239.827 15.739C239.341 16.5797 238.496 17 237.292 17C236.078 17 235.229 16.5797 234.744 15.739C234.258 14.8983 234.016 13.7197 234.016 12.203ZM239.385 12.203C239.385 11.449 239.333 10.812 239.229 10.292C239.133 9.76333 238.93 9.33867 238.618 9.018C238.314 8.69733 237.872 8.537 237.292 8.537C236.702 8.537 236.252 8.69733 235.94 9.018C235.636 9.33867 235.433 9.76333 235.329 10.292C235.233 10.812 235.186 11.449 235.186 12.203C235.186 12.983 235.233 13.6373 235.329 14.166C235.433 14.6947 235.636 15.1193 235.94 15.44C236.252 15.7607 236.702 15.921 237.292 15.921C237.872 15.921 238.314 15.7607 238.618 15.44C238.93 15.1193 239.133 14.6947 239.229 14.166C239.333 13.6373 239.385 12.983 239.385 12.203ZM242.643 12.203C242.643 10.7123 242.886 9.551 243.371 8.719C243.856 7.87833 244.706 7.458 245.919 7.458C247.124 7.458 247.969 7.87833 248.454 8.719C248.939 9.551 249.182 10.7123 249.182 12.203C249.182 13.7197 248.939 14.8983 248.454 15.739C247.969 16.5797 247.124 17 245.919 17C244.706 17 243.856 16.5797 243.371 15.739C242.886 14.8983 242.643 13.7197 242.643 12.203ZM248.012 12.203C248.012 11.449 247.96 10.812 247.856 10.292C247.761 9.76333 247.557 9.33867 247.245 9.018C246.942 8.69733 246.5 8.537 245.919 8.537C245.33 8.537 244.879 8.69733 244.567 9.018C244.264 9.33867 244.06 9.76333 243.956 10.292C243.861 10.812 243.813 11.449 243.813 12.203C243.813 12.983 243.861 13.6373 243.956 14.166C244.06 14.6947 244.264 15.1193 244.567 15.44C244.879 15.7607 245.33 15.921 245.919 15.921C246.5 15.921 246.942 15.7607 247.245 15.44C247.557 15.1193 247.761 14.6947 247.856 14.166C247.96 13.6373 248.012 12.983 248.012 12.203Z" fill="#273240"/>
<rect y="32" width="250" height="5" rx="2.5" fill="#ECEFF5"/>
<rect y="32" width="70" height="5" rx="2.5" fill="#31BA96"/>
</svg>
