<svg width="250" height="37" viewBox="0 0 250 37" fill="none" xmlns="http://www.w3.org/2000/svg">
<path d="M3.952 17.091C3.34533 17.091 2.79933 16.987 2.314 16.779C1.82867 16.5623 1.44733 16.259 1.17 15.869C0.892667 15.479 0.754 15.024 0.754 14.504H2.34C2.37467 14.894 2.52633 15.2147 2.795 15.466C3.07233 15.7173 3.458 15.843 3.952 15.843C4.46333 15.843 4.862 15.7217 5.148 15.479C5.434 15.2277 5.577 14.907 5.577 14.517C5.577 14.2137 5.486 13.9667 5.304 13.776C5.13067 13.5853 4.90967 13.438 4.641 13.334C4.381 13.23 4.017 13.1173 3.549 12.996C2.95967 12.84 2.47867 12.684 2.106 12.528C1.742 12.3633 1.43 12.112 1.17 11.774C0.91 11.436 0.78 10.9853 0.78 10.422C0.78 9.902 0.91 9.447 1.17 9.057C1.43 8.667 1.794 8.368 2.262 8.16C2.73 7.952 3.27167 7.848 3.887 7.848C4.76233 7.848 5.47733 8.069 6.032 8.511C6.59533 8.94433 6.90733 9.54233 6.968 10.305H5.33C5.304 9.97567 5.148 9.694 4.862 9.46C4.576 9.226 4.199 9.109 3.731 9.109C3.30633 9.109 2.95967 9.21733 2.691 9.434C2.42233 9.65067 2.288 9.96267 2.288 10.37C2.288 10.6473 2.37033 10.877 2.535 11.059C2.70833 11.2323 2.925 11.371 3.185 11.475C3.445 11.579 3.80033 11.6917 4.251 11.813C4.849 11.9777 5.33433 12.1423 5.707 12.307C6.08833 12.4717 6.409 12.7273 6.669 13.074C6.93767 13.412 7.072 13.867 7.072 14.439C7.072 14.8983 6.94633 15.3317 6.695 15.739C6.45233 16.1463 6.09267 16.4757 5.616 16.727C5.148 16.9697 4.59333 17.091 3.952 17.091ZM12.99 9.72C13.536 9.72 14.0213 9.837 14.446 10.071C14.8793 10.305 15.2173 10.6517 15.46 11.111C15.7113 11.5703 15.837 12.125 15.837 12.775V17H14.368V12.996C14.368 12.3547 14.2077 11.865 13.887 11.527C13.5663 11.1803 13.1287 11.007 12.574 11.007C12.0193 11.007 11.5773 11.1803 11.248 11.527C10.9273 11.865 10.767 12.3547 10.767 12.996V17H9.28499V7.38H10.767V10.669C11.0183 10.3657 11.3347 10.1317 11.716 9.967C12.106 9.80233 12.5307 9.72 12.99 9.72ZM21.2987 17.117C20.6227 17.117 20.0117 16.9653 19.4657 16.662C18.9197 16.35 18.4907 15.9167 18.1787 15.362C17.8667 14.7987 17.7107 14.1487 17.7107 13.412C17.7107 12.684 17.871 12.0383 18.1917 11.475C18.5123 10.9117 18.95 10.4783 19.5047 10.175C20.0593 9.87167 20.679 9.72 21.3637 9.72C22.0483 9.72 22.668 9.87167 23.2227 10.175C23.7773 10.4783 24.215 10.9117 24.5357 11.475C24.8563 12.0383 25.0167 12.684 25.0167 13.412C25.0167 14.14 24.852 14.7857 24.5227 15.349C24.1933 15.9123 23.7427 16.35 23.1707 16.662C22.6073 16.9653 21.9833 17.117 21.2987 17.117ZM21.2987 15.83C21.68 15.83 22.0353 15.739 22.3647 15.557C22.7027 15.375 22.9757 15.102 23.1837 14.738C23.3917 14.374 23.4957 13.932 23.4957 13.412C23.4957 12.892 23.396 12.4543 23.1967 12.099C22.9973 11.735 22.733 11.462 22.4037 11.28C22.0743 11.098 21.719 11.007 21.3377 11.007C20.9563 11.007 20.601 11.098 20.2717 11.28C19.951 11.462 19.6953 11.735 19.5047 12.099C19.314 12.4543 19.2187 12.892 19.2187 13.412C19.2187 14.1833 19.4137 14.7813 19.8037 15.206C20.2023 15.622 20.7007 15.83 21.2987 15.83ZM28.428 10.89C28.6793 10.5607 29.0216 10.2833 29.455 10.058C29.8883 9.83267 30.378 9.72 30.924 9.72C31.548 9.72 32.1156 9.876 32.627 10.188C33.147 10.4913 33.5543 10.9203 33.849 11.475C34.1436 12.0297 34.291 12.6667 34.291 13.386C34.291 14.1053 34.1436 14.751 33.849 15.323C33.5543 15.8863 33.147 16.3283 32.627 16.649C32.1156 16.961 31.548 17.117 30.924 17.117C30.378 17.117 29.8926 17.0087 29.468 16.792C29.0433 16.5667 28.6966 16.2893 28.428 15.96V20.406H26.946V9.837H28.428V10.89ZM32.783 13.386C32.783 12.892 32.679 12.4673 32.471 12.112C32.2716 11.748 32.003 11.475 31.665 11.293C31.3356 11.1023 30.9803 11.007 30.599 11.007C30.2263 11.007 29.871 11.1023 29.533 11.293C29.2036 11.4837 28.935 11.761 28.727 12.125C28.5276 12.489 28.428 12.918 28.428 13.412C28.428 13.906 28.5276 14.3393 28.727 14.712C28.935 15.076 29.2036 15.3533 29.533 15.544C29.871 15.7347 30.2263 15.83 30.599 15.83C30.9803 15.83 31.3356 15.7347 31.665 15.544C32.003 15.3447 32.2716 15.0587 32.471 14.686C32.679 14.3133 32.783 13.88 32.783 13.386ZM37.7028 10.89C37.9541 10.5607 38.2965 10.2833 38.7298 10.058C39.1631 9.83267 39.6528 9.72 40.1988 9.72C40.8228 9.72 41.3905 9.876 41.9018 10.188C42.4218 10.4913 42.8291 10.9203 43.1238 11.475C43.4185 12.0297 43.5658 12.6667 43.5658 13.386C43.5658 14.1053 43.4185 14.751 43.1238 15.323C42.8291 15.8863 42.4218 16.3283 41.9018 16.649C41.3905 16.961 40.8228 17.117 40.1988 17.117C39.6528 17.117 39.1675 17.0087 38.7428 16.792C38.3181 16.5667 37.9715 16.2893 37.7028 15.96V20.406H36.2208V9.837H37.7028V10.89ZM42.0578 13.386C42.0578 12.892 41.9538 12.4673 41.7458 12.112C41.5465 11.748 41.2778 11.475 40.9398 11.293C40.6105 11.1023 40.2551 11.007 39.8738 11.007C39.5011 11.007 39.1458 11.1023 38.8078 11.293C38.4785 11.4837 38.2098 11.761 38.0018 12.125C37.8025 12.489 37.7028 12.918 37.7028 13.412C37.7028 13.906 37.8025 14.3393 38.0018 14.712C38.2098 15.076 38.4785 15.3533 38.8078 15.544C39.1458 15.7347 39.5011 15.83 39.8738 15.83C40.2551 15.83 40.6105 15.7347 40.9398 15.544C41.2778 15.3447 41.5465 15.0587 41.7458 14.686C41.9538 14.3133 42.0578 13.88 42.0578 13.386ZM46.2496 8.888C45.981 8.888 45.7556 8.797 45.5736 8.615C45.3916 8.433 45.3006 8.20767 45.3006 7.939C45.3006 7.67033 45.3916 7.445 45.5736 7.263C45.7556 7.081 45.981 6.99 46.2496 6.99C46.5096 6.99 46.7306 7.081 46.9126 7.263C47.0946 7.445 47.1856 7.67033 47.1856 7.939C47.1856 8.20767 47.0946 8.433 46.9126 8.615C46.7306 8.797 46.5096 8.888 46.2496 8.888ZM46.9776 9.837V17H45.4956V9.837H46.9776ZM53.0017 9.72C53.565 9.72 54.0677 9.837 54.5097 10.071C54.9603 10.305 55.3113 10.6517 55.5627 11.111C55.814 11.5703 55.9397 12.125 55.9397 12.775V17H54.4707V12.996C54.4707 12.3547 54.3103 11.865 53.9897 11.527C53.669 11.1803 53.2313 11.007 52.6767 11.007C52.122 11.007 51.68 11.1803 51.3507 11.527C51.03 11.865 50.8697 12.3547 50.8697 12.996V17H49.3877V9.837H50.8697V10.656C51.1123 10.3613 51.42 10.1317 51.7927 9.967C52.174 9.80233 52.577 9.72 53.0017 9.72ZM61.1803 9.72C61.735 9.72 62.2247 9.83267 62.6493 10.058C63.0827 10.2747 63.4207 10.5477 63.6633 10.877V9.837H65.1583V17.117C65.1583 17.7757 65.0197 18.3607 64.7423 18.872C64.465 19.392 64.062 19.7993 63.5333 20.094C63.0133 20.3887 62.3893 20.536 61.6613 20.536C60.6907 20.536 59.8847 20.3063 59.2433 19.847C58.602 19.3963 58.238 18.781 58.1513 18.001H59.6203C59.733 18.3737 59.9713 18.6727 60.3353 18.898C60.708 19.132 61.15 19.249 61.6613 19.249C62.2593 19.249 62.7403 19.067 63.1043 18.703C63.477 18.339 63.6633 17.8103 63.6633 17.117V15.921C63.412 16.259 63.0697 16.545 62.6363 16.779C62.2117 17.0043 61.7263 17.117 61.1803 17.117C60.5563 17.117 59.9843 16.961 59.4643 16.649C58.953 16.3283 58.5457 15.8863 58.2423 15.323C57.9477 14.751 57.8003 14.1053 57.8003 13.386C57.8003 12.6667 57.9477 12.0297 58.2423 11.475C58.5457 10.9203 58.953 10.4913 59.4643 10.188C59.9843 9.876 60.5563 9.72 61.1803 9.72ZM63.6633 13.412C63.6633 12.918 63.5593 12.489 63.3513 12.125C63.152 11.761 62.8877 11.4837 62.5583 11.293C62.229 11.1023 61.8737 11.007 61.4923 11.007C61.111 11.007 60.7557 11.1023 60.4263 11.293C60.097 11.475 59.8283 11.748 59.6203 12.112C59.421 12.4673 59.3213 12.892 59.3213 13.386C59.3213 13.88 59.421 14.3133 59.6203 14.686C59.8283 15.0587 60.097 15.3447 60.4263 15.544C60.7643 15.7347 61.1197 15.83 61.4923 15.83C61.8737 15.83 62.229 15.7347 62.5583 15.544C62.8877 15.3533 63.152 15.076 63.3513 14.712C63.5593 14.3393 63.6633 13.906 63.6633 13.412Z" fill="#273240"/>
<path d="M190.4 8.68V7.601H192.844V17H191.648V8.68H190.4ZM195.912 17.078C195.687 17.078 195.496 17 195.34 16.844C195.184 16.688 195.106 16.4973 195.106 16.272C195.106 16.0467 195.184 15.856 195.34 15.7C195.496 15.544 195.687 15.466 195.912 15.466C196.129 15.466 196.311 15.544 196.458 15.7C196.614 15.856 196.692 16.0467 196.692 16.272C196.692 16.4973 196.614 16.688 196.458 16.844C196.311 17 196.129 17.078 195.912 17.078ZM198.508 9.967C198.569 9.16967 198.876 8.54567 199.431 8.095C199.986 7.64433 200.705 7.419 201.589 7.419C202.178 7.419 202.685 7.52733 203.11 7.744C203.543 7.952 203.868 8.238 204.085 8.602C204.31 8.966 204.423 9.37767 204.423 9.837C204.423 10.3743 204.267 10.838 203.955 11.228C203.652 11.618 203.253 11.8693 202.759 11.982V12.047C203.322 12.1857 203.769 12.4587 204.098 12.866C204.427 13.2733 204.592 13.8063 204.592 14.465C204.592 14.959 204.479 15.4053 204.254 15.804C204.029 16.194 203.691 16.5017 203.24 16.727C202.789 16.9523 202.248 17.065 201.615 17.065C200.696 17.065 199.942 16.8267 199.353 16.35C198.764 15.8647 198.434 15.18 198.365 14.296H199.509C199.57 14.816 199.782 15.2407 200.146 15.57C200.51 15.8993 200.995 16.064 201.602 16.064C202.209 16.064 202.668 15.908 202.98 15.596C203.301 15.2753 203.461 14.8637 203.461 14.361C203.461 13.711 203.244 13.243 202.811 12.957C202.378 12.671 201.723 12.528 200.848 12.528H200.549V11.54H200.861C201.658 11.5313 202.261 11.4013 202.668 11.15C203.075 10.89 203.279 10.4913 203.279 9.954C203.279 9.49467 203.127 9.12633 202.824 8.849C202.529 8.57167 202.105 8.433 201.55 8.433C201.013 8.433 200.579 8.57167 200.25 8.849C199.921 9.12633 199.726 9.499 199.665 9.967H198.508ZM212.439 8.524L208.825 17H207.629L211.295 8.641H206.277V7.627H212.439V8.524ZM215.93 12.112C215.445 11.9213 215.072 11.644 214.812 11.28C214.552 10.916 214.422 10.474 214.422 9.954C214.422 9.486 214.539 9.06567 214.773 8.693C215.007 8.31167 215.354 8.01267 215.813 7.796C216.281 7.57067 216.845 7.458 217.503 7.458C218.162 7.458 218.721 7.57067 219.18 7.796C219.648 8.01267 219.999 8.31167 220.233 8.693C220.476 9.06567 220.597 9.486 220.597 9.954C220.597 10.4567 220.463 10.8987 220.194 11.28C219.926 11.6527 219.557 11.93 219.089 12.112C219.627 12.2767 220.051 12.567 220.363 12.983C220.684 13.3903 220.844 13.8843 220.844 14.465C220.844 15.0283 220.706 15.5223 220.428 15.947C220.151 16.363 219.757 16.688 219.245 16.922C218.743 17.1473 218.162 17.26 217.503 17.26C216.845 17.26 216.264 17.1473 215.761 16.922C215.267 16.688 214.882 16.363 214.604 15.947C214.327 15.5223 214.188 15.0283 214.188 14.465C214.188 13.8843 214.344 13.386 214.656 12.97C214.968 12.554 215.393 12.268 215.93 12.112ZM219.453 10.097C219.453 9.56833 219.28 9.161 218.933 8.875C218.587 8.589 218.11 8.446 217.503 8.446C216.905 8.446 216.433 8.589 216.086 8.875C215.74 9.161 215.566 9.57267 215.566 10.11C215.566 10.5953 215.744 10.9853 216.099 11.28C216.463 11.5747 216.931 11.722 217.503 11.722C218.084 11.722 218.552 11.5747 218.907 11.28C219.271 10.9767 219.453 10.5823 219.453 10.097ZM217.503 12.632C216.862 12.632 216.338 12.7837 215.93 13.087C215.523 13.3817 215.319 13.828 215.319 14.426C215.319 14.9807 215.514 15.427 215.904 15.765C216.303 16.103 216.836 16.272 217.503 16.272C218.171 16.272 218.699 16.103 219.089 15.765C219.479 15.427 219.674 14.9807 219.674 14.426C219.674 13.8453 219.475 13.4033 219.076 13.1C218.678 12.788 218.153 12.632 217.503 12.632ZM223.452 17.078C223.227 17.078 223.036 17 222.88 16.844C222.724 16.688 222.646 16.4973 222.646 16.272C222.646 16.0467 222.724 15.856 222.88 15.7C223.036 15.544 223.227 15.466 223.452 15.466C223.669 15.466 223.851 15.544 223.998 15.7C224.154 15.856 224.232 16.0467 224.232 16.272C224.232 16.4973 224.154 16.688 223.998 16.844C223.851 17 223.669 17.078 223.452 17.078ZM225.931 16.051C227.031 15.167 227.894 14.4433 228.518 13.88C229.142 13.308 229.666 12.7143 230.091 12.099C230.524 11.475 230.741 10.864 230.741 10.266C230.741 9.70267 230.602 9.26067 230.325 8.94C230.056 8.61067 229.618 8.446 229.012 8.446C228.422 8.446 227.963 8.63233 227.634 9.005C227.313 9.369 227.14 9.85867 227.114 10.474H225.97C226.004 9.50333 226.299 8.75367 226.854 8.225C227.408 7.69633 228.123 7.432 228.999 7.432C229.891 7.432 230.598 7.679 231.118 8.173C231.646 8.667 231.911 9.34733 231.911 10.214C231.911 10.9333 231.694 11.6353 231.261 12.32C230.836 12.996 230.351 13.594 229.805 14.114C229.259 14.6253 228.561 15.2233 227.712 15.908H232.184V16.896H225.931V16.051ZM234.016 12.203C234.016 10.7123 234.258 9.551 234.744 8.719C235.229 7.87833 236.078 7.458 237.292 7.458C238.496 7.458 239.341 7.87833 239.827 8.719C240.312 9.551 240.555 10.7123 240.555 12.203C240.555 13.7197 240.312 14.8983 239.827 15.739C239.341 16.5797 238.496 17 237.292 17C236.078 17 235.229 16.5797 234.744 15.739C234.258 14.8983 234.016 13.7197 234.016 12.203ZM239.385 12.203C239.385 11.449 239.333 10.812 239.229 10.292C239.133 9.76333 238.93 9.33867 238.618 9.018C238.314 8.69733 237.872 8.537 237.292 8.537C236.702 8.537 236.252 8.69733 235.94 9.018C235.636 9.33867 235.433 9.76333 235.329 10.292C235.233 10.812 235.186 11.449 235.186 12.203C235.186 12.983 235.233 13.6373 235.329 14.166C235.433 14.6947 235.636 15.1193 235.94 15.44C236.252 15.7607 236.702 15.921 237.292 15.921C237.872 15.921 238.314 15.7607 238.618 15.44C238.93 15.1193 239.133 14.6947 239.229 14.166C239.333 13.6373 239.385 12.983 239.385 12.203ZM242.643 12.203C242.643 10.7123 242.886 9.551 243.371 8.719C243.856 7.87833 244.706 7.458 245.919 7.458C247.124 7.458 247.969 7.87833 248.454 8.719C248.939 9.551 249.182 10.7123 249.182 12.203C249.182 13.7197 248.939 14.8983 248.454 15.739C247.969 16.5797 247.124 17 245.919 17C244.706 17 243.856 16.5797 243.371 15.739C242.886 14.8983 242.643 13.7197 242.643 12.203ZM248.012 12.203C248.012 11.449 247.96 10.812 247.856 10.292C247.761 9.76333 247.557 9.33867 247.245 9.018C246.942 8.69733 246.5 8.537 245.919 8.537C245.33 8.537 244.879 8.69733 244.567 9.018C244.264 9.33867 244.06 9.76333 243.956 10.292C243.861 10.812 243.813 11.449 243.813 12.203C243.813 12.983 243.861 13.6373 243.956 14.166C244.06 14.6947 244.264 15.1193 244.567 15.44C244.879 15.7607 245.33 15.921 245.919 15.921C246.5 15.921 246.942 15.7607 247.245 15.44C247.557 15.1193 247.761 14.6947 247.856 14.166C247.96 13.6373 248.012 12.983 248.012 12.203Z" fill="#273240"/>
<rect y="32" width="250" height="5" rx="2.5" fill="#ECEFF5"/>
<rect y="32" width="110" height="5" rx="2.5" fill="#31BA96"/>
</svg>
