<svg width="250" height="37" viewBox="0 0 250 37" fill="none" xmlns="http://www.w3.org/2000/svg">
<path d="M8.19 7.965V17H6.708V13.048H2.457V17H0.975V7.965H2.457V11.839H6.708V7.965H8.19ZM13.7123 17.117C13.0363 17.117 12.4253 16.9653 11.8793 16.662C11.3333 16.35 10.9043 15.9167 10.5923 15.362C10.2803 14.7987 10.1243 14.1487 10.1243 13.412C10.1243 12.684 10.2846 12.0383 10.6053 11.475C10.926 10.9117 11.3636 10.4783 11.9183 10.175C12.473 9.87167 13.0926 9.72 13.7773 9.72C14.462 9.72 15.0816 9.87167 15.6363 10.175C16.191 10.4783 16.6286 10.9117 16.9493 11.475C17.27 12.0383 17.4303 12.684 17.4303 13.412C17.4303 14.14 17.2656 14.7857 16.9363 15.349C16.607 15.9123 16.1563 16.35 15.5843 16.662C15.021 16.9653 14.397 17.117 13.7123 17.117ZM13.7123 15.83C14.0936 15.83 14.449 15.739 14.7783 15.557C15.1163 15.375 15.3893 15.102 15.5973 14.738C15.8053 14.374 15.9093 13.932 15.9093 13.412C15.9093 12.892 15.8096 12.4543 15.6103 12.099C15.411 11.735 15.1466 11.462 14.8173 11.28C14.488 11.098 14.1326 11.007 13.7513 11.007C13.37 11.007 13.0146 11.098 12.6853 11.28C12.3646 11.462 12.109 11.735 11.9183 12.099C11.7276 12.4543 11.6323 12.892 11.6323 13.412C11.6323 14.1833 11.8273 14.7813 12.2173 15.206C12.616 15.622 13.1143 15.83 13.7123 15.83ZM25.8466 9.837V17H24.3646V16.155C24.1306 16.4497 23.823 16.6837 23.4416 16.857C23.069 17.0217 22.6703 17.104 22.2456 17.104C21.6823 17.104 21.1753 16.987 20.7246 16.753C20.2826 16.519 19.9316 16.1723 19.6716 15.713C19.4203 15.2537 19.2946 14.699 19.2946 14.049V9.837H20.7636V13.828C20.7636 14.4693 20.924 14.9633 21.2446 15.31C21.5653 15.648 22.003 15.817 22.5576 15.817C23.1123 15.817 23.55 15.648 23.8706 15.31C24.2 14.9633 24.3646 14.4693 24.3646 13.828V9.837H25.8466ZM30.8663 17.117C30.303 17.117 29.796 17.0173 29.3453 16.818C28.9033 16.61 28.5523 16.3327 28.2923 15.986C28.0323 15.6307 27.8936 15.2363 27.8763 14.803H29.4103C29.4363 15.1063 29.5793 15.362 29.8393 15.57C30.108 15.7693 30.4416 15.869 30.8403 15.869C31.2563 15.869 31.577 15.791 31.8023 15.635C32.0363 15.4703 32.1533 15.2623 32.1533 15.011C32.1533 14.7423 32.0233 14.543 31.7633 14.413C31.512 14.283 31.109 14.14 30.5543 13.984C30.017 13.8367 29.5793 13.6937 29.2413 13.555C28.9033 13.4163 28.6086 13.204 28.3573 12.918C28.1146 12.632 27.9933 12.255 27.9933 11.787C27.9933 11.4057 28.106 11.059 28.3313 10.747C28.5566 10.4263 28.8773 10.175 29.2933 9.993C29.718 9.811 30.2033 9.72 30.7493 9.72C31.564 9.72 32.2183 9.928 32.7123 10.344C33.215 10.7513 33.4836 11.3103 33.5183 12.021H32.0363C32.0103 11.7003 31.8803 11.4447 31.6463 11.254C31.4123 11.0633 31.096 10.968 30.6973 10.968C30.3073 10.968 30.0083 11.0417 29.8003 11.189C29.5923 11.3363 29.4883 11.5313 29.4883 11.774C29.4883 11.9647 29.5576 12.125 29.6963 12.255C29.835 12.385 30.004 12.489 30.2033 12.567C30.4026 12.6363 30.6973 12.7273 31.0873 12.84C31.6073 12.9787 32.032 13.1217 32.3613 13.269C32.6993 13.4077 32.9896 13.6157 33.2323 13.893C33.475 14.1703 33.6006 14.5387 33.6093 14.998C33.6093 15.4053 33.4966 15.7693 33.2713 16.09C33.046 16.4107 32.7253 16.662 32.3093 16.844C31.902 17.026 31.421 17.117 30.8663 17.117ZM36.4289 8.888C36.1603 8.888 35.9349 8.797 35.7529 8.615C35.5709 8.433 35.4799 8.20767 35.4799 7.939C35.4799 7.67033 35.5709 7.445 35.7529 7.263C35.9349 7.081 36.1603 6.99 36.4289 6.99C36.6889 6.99 36.9099 7.081 37.0919 7.263C37.2739 7.445 37.3649 7.67033 37.3649 7.939C37.3649 8.20767 37.2739 8.433 37.0919 8.615C36.9099 8.797 36.6889 8.888 36.4289 8.888ZM37.1569 9.837V17H35.6749V9.837H37.1569ZM43.1809 9.72C43.7443 9.72 44.2469 9.837 44.6889 10.071C45.1396 10.305 45.4906 10.6517 45.7419 11.111C45.9933 11.5703 46.1189 12.125 46.1189 12.775V17H44.6499V12.996C44.6499 12.3547 44.4896 11.865 44.1689 11.527C43.8483 11.1803 43.4106 11.007 42.8559 11.007C42.3013 11.007 41.8593 11.1803 41.5299 11.527C41.2093 11.865 41.0489 12.3547 41.0489 12.996V17H39.5669V9.837H41.0489V10.656C41.2916 10.3613 41.5993 10.1317 41.9719 9.967C42.3533 9.80233 42.7563 9.72 43.1809 9.72ZM51.3596 9.72C51.9143 9.72 52.4039 9.83267 52.8286 10.058C53.2619 10.2747 53.5999 10.5477 53.8426 10.877V9.837H55.3376V17.117C55.3376 17.7757 55.1989 18.3607 54.9216 18.872C54.6443 19.392 54.2413 19.7993 53.7126 20.094C53.1926 20.3887 52.5686 20.536 51.8406 20.536C50.8699 20.536 50.0639 20.3063 49.4226 19.847C48.7813 19.3963 48.4173 18.781 48.3306 18.001H49.7996C49.9123 18.3737 50.1506 18.6727 50.5146 18.898C50.8873 19.132 51.3293 19.249 51.8406 19.249C52.4386 19.249 52.9196 19.067 53.2836 18.703C53.6563 18.339 53.8426 17.8103 53.8426 17.117V15.921C53.5913 16.259 53.2489 16.545 52.8156 16.779C52.3909 17.0043 51.9056 17.117 51.3596 17.117C50.7356 17.117 50.1636 16.961 49.6436 16.649C49.1323 16.3283 48.7249 15.8863 48.4216 15.323C48.1269 14.751 47.9796 14.1053 47.9796 13.386C47.9796 12.6667 48.1269 12.0297 48.4216 11.475C48.7249 10.9203 49.1323 10.4913 49.6436 10.188C50.1636 9.876 50.7356 9.72 51.3596 9.72ZM53.8426 13.412C53.8426 12.918 53.7386 12.489 53.5306 12.125C53.3313 11.761 53.0669 11.4837 52.7376 11.293C52.4083 11.1023 52.0529 11.007 51.6716 11.007C51.2903 11.007 50.9349 11.1023 50.6056 11.293C50.2763 11.475 50.0076 11.748 49.7996 12.112C49.6003 12.4673 49.5006 12.892 49.5006 13.386C49.5006 13.88 49.6003 14.3133 49.7996 14.686C50.0076 15.0587 50.2763 15.3447 50.6056 15.544C50.9436 15.7347 51.2989 15.83 51.6716 15.83C52.0529 15.83 52.4083 15.7347 52.7376 15.544C53.0669 15.3533 53.3313 15.076 53.5306 14.712C53.7386 14.3393 53.8426 13.906 53.8426 13.412Z" fill="#273240"/>
<path d="M198.455 14.478C198.542 14.972 198.741 15.3533 199.053 15.622C199.374 15.8907 199.803 16.025 200.34 16.025C201.06 16.025 201.588 15.7433 201.926 15.18C202.273 14.6167 202.438 13.6677 202.42 12.333C202.238 12.723 201.935 13.0307 201.51 13.256C201.086 13.4727 200.613 13.581 200.093 13.581C199.513 13.581 198.993 13.464 198.533 13.23C198.083 12.9873 197.727 12.6363 197.467 12.177C197.207 11.7177 197.077 11.163 197.077 10.513C197.077 9.58567 197.346 8.84033 197.883 8.277C198.421 7.705 199.183 7.419 200.171 7.419C201.385 7.419 202.234 7.81333 202.719 8.602C203.213 9.39067 203.46 10.565 203.46 12.125C203.46 13.217 203.361 14.1183 203.161 14.829C202.971 15.5397 202.641 16.0813 202.173 16.454C201.714 16.8267 201.081 17.013 200.275 17.013C199.391 17.013 198.702 16.7747 198.208 16.298C197.714 15.8213 197.433 15.2147 197.363 14.478H198.455ZM200.288 12.58C200.869 12.58 201.346 12.4023 201.718 12.047C202.091 11.683 202.277 11.1933 202.277 10.578C202.277 9.928 202.095 9.40367 201.731 9.005C201.367 8.60633 200.856 8.407 200.197 8.407C199.591 8.407 199.105 8.59767 198.741 8.979C198.386 9.36033 198.208 9.863 198.208 10.487C198.208 11.1197 198.386 11.6267 198.741 12.008C199.097 12.3893 199.612 12.58 200.288 12.58ZM205.444 16.051C206.545 15.167 207.407 14.4433 208.031 13.88C208.655 13.308 209.179 12.7143 209.604 12.099C210.037 11.475 210.254 10.864 210.254 10.266C210.254 9.70267 210.115 9.26067 209.838 8.94C209.569 8.61067 209.132 8.446 208.525 8.446C207.936 8.446 207.476 8.63233 207.147 9.005C206.826 9.369 206.653 9.85867 206.627 10.474H205.483C205.518 9.50333 205.812 8.75367 206.367 8.225C206.922 7.69633 207.637 7.432 208.512 7.432C209.405 7.432 210.111 7.679 210.631 8.173C211.16 8.667 211.424 9.34733 211.424 10.214C211.424 10.9333 211.207 11.6353 210.774 12.32C210.349 12.996 209.864 13.594 209.318 14.114C208.772 14.6253 208.074 15.2233 207.225 15.908H211.697V16.896H205.444V16.051ZM215.245 12.112C214.76 11.9213 214.387 11.644 214.127 11.28C213.867 10.916 213.737 10.474 213.737 9.954C213.737 9.486 213.854 9.06567 214.088 8.693C214.322 8.31167 214.669 8.01267 215.128 7.796C215.596 7.57067 216.159 7.458 216.818 7.458C217.477 7.458 218.036 7.57067 218.495 7.796C218.963 8.01267 219.314 8.31167 219.548 8.693C219.791 9.06567 219.912 9.486 219.912 9.954C219.912 10.4567 219.778 10.8987 219.509 11.28C219.24 11.6527 218.872 11.93 218.404 12.112C218.941 12.2767 219.366 12.567 219.678 12.983C219.999 13.3903 220.159 13.8843 220.159 14.465C220.159 15.0283 220.02 15.5223 219.743 15.947C219.466 16.363 219.071 16.688 218.56 16.922C218.057 17.1473 217.477 17.26 216.818 17.26C216.159 17.26 215.579 17.1473 215.076 16.922C214.582 16.688 214.196 16.363 213.919 15.947C213.642 15.5223 213.503 15.0283 213.503 14.465C213.503 13.8843 213.659 13.386 213.971 12.97C214.283 12.554 214.708 12.268 215.245 12.112ZM218.768 10.097C218.768 9.56833 218.595 9.161 218.248 8.875C217.901 8.589 217.425 8.446 216.818 8.446C216.22 8.446 215.748 8.589 215.401 8.875C215.054 9.161 214.881 9.57267 214.881 10.11C214.881 10.5953 215.059 10.9853 215.414 11.28C215.778 11.5747 216.246 11.722 216.818 11.722C217.399 11.722 217.867 11.5747 218.222 11.28C218.586 10.9767 218.768 10.5823 218.768 10.097ZM216.818 12.632C216.177 12.632 215.652 12.7837 215.245 13.087C214.838 13.3817 214.634 13.828 214.634 14.426C214.634 14.9807 214.829 15.427 215.219 15.765C215.618 16.103 216.151 16.272 216.818 16.272C217.485 16.272 218.014 16.103 218.404 15.765C218.794 15.427 218.989 14.9807 218.989 14.426C218.989 13.8453 218.79 13.4033 218.391 13.1C217.992 12.788 217.468 12.632 216.818 12.632ZM222.766 17.078C222.541 17.078 222.35 17 222.194 16.844C222.038 16.688 221.96 16.4973 221.96 16.272C221.96 16.0467 222.038 15.856 222.194 15.7C222.35 15.544 222.541 15.466 222.766 15.466C222.983 15.466 223.165 15.544 223.312 15.7C223.468 15.856 223.546 16.0467 223.546 16.272C223.546 16.4973 223.468 16.688 223.312 16.844C223.165 17 222.983 17.078 222.766 17.078ZM231.381 8.628H226.818V11.592C227.018 11.3147 227.312 11.0893 227.702 10.916C228.092 10.734 228.513 10.643 228.963 10.643C229.683 10.643 230.268 10.7947 230.718 11.098C231.169 11.3927 231.49 11.7783 231.68 12.255C231.88 12.723 231.979 13.2213 231.979 13.75C231.979 14.374 231.862 14.933 231.628 15.427C231.394 15.921 231.035 16.311 230.549 16.597C230.073 16.883 229.479 17.026 228.768 17.026C227.858 17.026 227.122 16.792 226.558 16.324C225.995 15.856 225.653 15.232 225.531 14.452H226.688C226.801 14.946 227.039 15.3317 227.403 15.609C227.767 15.8863 228.227 16.025 228.781 16.025C229.466 16.025 229.982 15.8213 230.328 15.414C230.675 14.998 230.848 14.452 230.848 13.776C230.848 13.1 230.675 12.58 230.328 12.216C229.982 11.8433 229.47 11.657 228.794 11.657C228.335 11.657 227.932 11.7697 227.585 11.995C227.247 12.2117 227 12.5107 226.844 12.892H225.726V7.588H231.381V8.628ZM234.016 12.203C234.016 10.7123 234.258 9.551 234.744 8.719C235.229 7.87833 236.078 7.458 237.292 7.458C238.496 7.458 239.341 7.87833 239.827 8.719C240.312 9.551 240.555 10.7123 240.555 12.203C240.555 13.7197 240.312 14.8983 239.827 15.739C239.341 16.5797 238.496 17 237.292 17C236.078 17 235.229 16.5797 234.744 15.739C234.258 14.8983 234.016 13.7197 234.016 12.203ZM239.385 12.203C239.385 11.449 239.333 10.812 239.229 10.292C239.133 9.76333 238.93 9.33867 238.618 9.018C238.314 8.69733 237.872 8.537 237.292 8.537C236.702 8.537 236.252 8.69733 235.94 9.018C235.636 9.33867 235.433 9.76333 235.329 10.292C235.233 10.812 235.186 11.449 235.186 12.203C235.186 12.983 235.233 13.6373 235.329 14.166C235.433 14.6947 235.636 15.1193 235.94 15.44C236.252 15.7607 236.702 15.921 237.292 15.921C237.872 15.921 238.314 15.7607 238.618 15.44C238.93 15.1193 239.133 14.6947 239.229 14.166C239.333 13.6373 239.385 12.983 239.385 12.203ZM242.643 12.203C242.643 10.7123 242.886 9.551 243.371 8.719C243.856 7.87833 244.706 7.458 245.919 7.458C247.124 7.458 247.969 7.87833 248.454 8.719C248.939 9.551 249.182 10.7123 249.182 12.203C249.182 13.7197 248.939 14.8983 248.454 15.739C247.969 16.5797 247.124 17 245.919 17C244.706 17 243.856 16.5797 243.371 15.739C242.886 14.8983 242.643 13.7197 242.643 12.203ZM248.012 12.203C248.012 11.449 247.96 10.812 247.856 10.292C247.761 9.76333 247.557 9.33867 247.245 9.018C246.942 8.69733 246.5 8.537 245.919 8.537C245.33 8.537 244.879 8.69733 244.567 9.018C244.264 9.33867 244.06 9.76333 243.956 10.292C243.861 10.812 243.813 11.449 243.813 12.203C243.813 12.983 243.861 13.6373 243.956 14.166C244.06 14.6947 244.264 15.1193 244.567 15.44C244.879 15.7607 245.33 15.921 245.919 15.921C246.5 15.921 246.942 15.7607 247.245 15.44C247.557 15.1193 247.761 14.6947 247.856 14.166C247.96 13.6373 248.012 12.983 248.012 12.203Z" fill="#273240"/>
<rect y="32" width="250" height="5" rx="2.5" fill="#ECEFF5"/>
<rect y="32" width="90" height="5" rx="2.5" fill="#31BA96"/>
</svg>
