<svg width="250" height="37" viewBox="0 0 250 37" fill="none" xmlns="http://www.w3.org/2000/svg">
<path d="M6.812 7.965V9.174H4.407V17H2.925V9.174H0.507V7.965H6.812ZM10.2592 10.877C10.4758 10.513 10.7618 10.2313 11.1172 10.032C11.4812 9.824 11.9102 9.72 12.4042 9.72V11.254H12.0272C11.4465 11.254 11.0045 11.4013 10.7012 11.696C10.4065 11.9907 10.2592 12.502 10.2592 13.23V17H8.77718V9.837H10.2592V10.877ZM13.7367 13.386C13.7367 12.6667 13.8841 12.0297 14.1787 11.475C14.4821 10.9203 14.8894 10.4913 15.4007 10.188C15.9207 9.876 16.4927 9.72 17.1167 9.72C17.6801 9.72 18.1697 9.83267 18.5857 10.058C19.0104 10.2747 19.3484 10.5477 19.5997 10.877V9.837H21.0947V17H19.5997V15.934C19.3484 16.272 19.0061 16.5537 18.5727 16.779C18.1394 17.0043 17.6454 17.117 17.0907 17.117C16.4754 17.117 15.9121 16.961 15.4007 16.649C14.8894 16.3283 14.4821 15.8863 14.1787 15.323C13.8841 14.751 13.7367 14.1053 13.7367 13.386ZM19.5997 13.412C19.5997 12.918 19.4957 12.489 19.2877 12.125C19.0884 11.761 18.8241 11.4837 18.4947 11.293C18.1654 11.1023 17.8101 11.007 17.4287 11.007C17.0474 11.007 16.6921 11.1023 16.3627 11.293C16.0334 11.475 15.7647 11.748 15.5567 12.112C15.3574 12.4673 15.2577 12.892 15.2577 13.386C15.2577 13.88 15.3574 14.3133 15.5567 14.686C15.7647 15.0587 16.0334 15.3447 16.3627 15.544C16.7007 15.7347 17.0561 15.83 17.4287 15.83C17.8101 15.83 18.1654 15.7347 18.4947 15.544C18.8241 15.3533 19.0884 15.076 19.2877 14.712C19.4957 14.3393 19.5997 13.906 19.5997 13.412ZM27.1196 9.72C27.6829 9.72 28.1856 9.837 28.6276 10.071C29.0782 10.305 29.4292 10.6517 29.6806 11.111C29.9319 11.5703 30.0576 12.125 30.0576 12.775V17H28.5886V12.996C28.5886 12.3547 28.4282 11.865 28.1076 11.527C27.7869 11.1803 27.3492 11.007 26.7946 11.007C26.2399 11.007 25.7979 11.1803 25.4686 11.527C25.1479 11.865 24.9876 12.3547 24.9876 12.996V17H23.5056V9.837H24.9876V10.656C25.2302 10.3613 25.5379 10.1317 25.9106 9.967C26.2919 9.80233 26.6949 9.72 27.1196 9.72ZM35.0122 17.117C34.4489 17.117 33.9419 17.0173 33.4912 16.818C33.0492 16.61 32.6982 16.3327 32.4382 15.986C32.1782 15.6307 32.0396 15.2363 32.0222 14.803H33.5562C33.5822 15.1063 33.7252 15.362 33.9852 15.57C34.2539 15.7693 34.5876 15.869 34.9862 15.869C35.4022 15.869 35.7229 15.791 35.9482 15.635C36.1822 15.4703 36.2992 15.2623 36.2992 15.011C36.2992 14.7423 36.1692 14.543 35.9092 14.413C35.6579 14.283 35.2549 14.14 34.7002 13.984C34.1629 13.8367 33.7252 13.6937 33.3872 13.555C33.0492 13.4163 32.7546 13.204 32.5032 12.918C32.2606 12.632 32.1392 12.255 32.1392 11.787C32.1392 11.4057 32.2519 11.059 32.4772 10.747C32.7026 10.4263 33.0232 10.175 33.4392 9.993C33.8639 9.811 34.3492 9.72 34.8952 9.72C35.7099 9.72 36.3642 9.928 36.8582 10.344C37.3609 10.7513 37.6296 11.3103 37.6642 12.021H36.1822C36.1562 11.7003 36.0262 11.4447 35.7922 11.254C35.5582 11.0633 35.2419 10.968 34.8432 10.968C34.4532 10.968 34.1542 11.0417 33.9462 11.189C33.7382 11.3363 33.6342 11.5313 33.6342 11.774C33.6342 11.9647 33.7036 12.125 33.8422 12.255C33.9809 12.385 34.1499 12.489 34.3492 12.567C34.5486 12.6363 34.8432 12.7273 35.2332 12.84C35.7532 12.9787 36.1779 13.1217 36.5072 13.269C36.8452 13.4077 37.1356 13.6157 37.3782 13.893C37.6209 14.1703 37.7466 14.5387 37.7552 14.998C37.7552 15.4053 37.6426 15.7693 37.4172 16.09C37.1919 16.4107 36.8712 16.662 36.4552 16.844C36.0479 17.026 35.5669 17.117 35.0122 17.117ZM41.3028 10.89C41.5542 10.5607 41.8965 10.2833 42.3298 10.058C42.7632 9.83267 43.2528 9.72 43.7988 9.72C44.4228 9.72 44.9905 9.876 45.5018 10.188C46.0218 10.4913 46.4292 10.9203 46.7238 11.475C47.0185 12.0297 47.1658 12.6667 47.1658 13.386C47.1658 14.1053 47.0185 14.751 46.7238 15.323C46.4292 15.8863 46.0218 16.3283 45.5018 16.649C44.9905 16.961 44.4228 17.117 43.7988 17.117C43.2528 17.117 42.7675 17.0087 42.3428 16.792C41.9182 16.5667 41.5715 16.2893 41.3028 15.96V20.406H39.8208V9.837H41.3028V10.89ZM45.6578 13.386C45.6578 12.892 45.5538 12.4673 45.3458 12.112C45.1465 11.748 44.8778 11.475 44.5398 11.293C44.2105 11.1023 43.8552 11.007 43.4738 11.007C43.1012 11.007 42.7458 11.1023 42.4078 11.293C42.0785 11.4837 41.8098 11.761 41.6018 12.125C41.4025 12.489 41.3028 12.918 41.3028 13.412C41.3028 13.906 41.4025 14.3393 41.6018 14.712C41.8098 15.076 42.0785 15.3533 42.4078 15.544C42.7458 15.7347 43.1012 15.83 43.4738 15.83C43.8552 15.83 44.2105 15.7347 44.5398 15.544C44.8778 15.3447 45.1465 15.0587 45.3458 14.686C45.5538 14.3133 45.6578 13.88 45.6578 13.386ZM52.2027 17.117C51.5267 17.117 50.9157 16.9653 50.3697 16.662C49.8237 16.35 49.3947 15.9167 49.0827 15.362C48.7707 14.7987 48.6147 14.1487 48.6147 13.412C48.6147 12.684 48.775 12.0383 49.0957 11.475C49.4163 10.9117 49.854 10.4783 50.4087 10.175C50.9633 9.87167 51.583 9.72 52.2677 9.72C52.9523 9.72 53.572 9.87167 54.1267 10.175C54.6813 10.4783 55.119 10.9117 55.4397 11.475C55.7603 12.0383 55.9207 12.684 55.9207 13.412C55.9207 14.14 55.756 14.7857 55.4267 15.349C55.0973 15.9123 54.6467 16.35 54.0747 16.662C53.5113 16.9653 52.8873 17.117 52.2027 17.117ZM52.2027 15.83C52.584 15.83 52.9393 15.739 53.2687 15.557C53.6067 15.375 53.8797 15.102 54.0877 14.738C54.2957 14.374 54.3997 13.932 54.3997 13.412C54.3997 12.892 54.3 12.4543 54.1007 12.099C53.9013 11.735 53.637 11.462 53.3077 11.28C52.9783 11.098 52.623 11.007 52.2417 11.007C51.8603 11.007 51.505 11.098 51.1757 11.28C50.855 11.462 50.5993 11.735 50.4087 12.099C50.218 12.4543 50.1227 12.892 50.1227 13.412C50.1227 14.1833 50.3177 14.7813 50.7077 15.206C51.1063 15.622 51.6047 15.83 52.2027 15.83ZM59.332 10.877C59.5487 10.513 59.8347 10.2313 60.19 10.032C60.554 9.824 60.983 9.72 61.477 9.72V11.254H61.1C60.5193 11.254 60.0773 11.4013 59.774 11.696C59.4793 11.9907 59.332 12.502 59.332 13.23V17H57.85V9.837H59.332V10.877ZM65.0325 11.046V15.011C65.0325 15.2797 65.0932 15.4747 65.2145 15.596C65.3445 15.7087 65.5612 15.765 65.8645 15.765H66.7745V17H65.6045C64.9372 17 64.4259 16.844 64.0705 16.532C63.7152 16.22 63.5375 15.713 63.5375 15.011V11.046H62.6925V9.837H63.5375V8.056H65.0325V9.837H66.7745V11.046H65.0325ZM68.1107 13.386C68.1107 12.6667 68.2581 12.0297 68.5527 11.475C68.8561 10.9203 69.2634 10.4913 69.7747 10.188C70.2947 9.876 70.8667 9.72 71.4907 9.72C72.0541 9.72 72.5437 9.83267 72.9597 10.058C73.3844 10.2747 73.7224 10.5477 73.9737 10.877V9.837H75.4687V17H73.9737V15.934C73.7224 16.272 73.3801 16.5537 72.9467 16.779C72.5134 17.0043 72.0194 17.117 71.4647 17.117C70.8494 17.117 70.2861 16.961 69.7747 16.649C69.2634 16.3283 68.8561 15.8863 68.5527 15.323C68.2581 14.751 68.1107 14.1053 68.1107 13.386ZM73.9737 13.412C73.9737 12.918 73.8697 12.489 73.6617 12.125C73.4624 11.761 73.1981 11.4837 72.8687 11.293C72.5394 11.1023 72.1841 11.007 71.8027 11.007C71.4214 11.007 71.0661 11.1023 70.7367 11.293C70.4074 11.475 70.1387 11.748 69.9307 12.112C69.7314 12.4673 69.6317 12.892 69.6317 13.386C69.6317 13.88 69.7314 14.3133 69.9307 14.686C70.1387 15.0587 70.4074 15.3447 70.7367 15.544C71.0747 15.7347 71.4301 15.83 71.8027 15.83C72.1841 15.83 72.5394 15.7347 72.8687 15.544C73.1981 15.3533 73.4624 15.076 73.6617 14.712C73.8697 14.3393 73.9737 13.906 73.9737 13.412ZM79.6086 11.046V15.011C79.6086 15.2797 79.6692 15.4747 79.7906 15.596C79.9206 15.7087 80.1372 15.765 80.4406 15.765H81.3506V17H80.1806C79.5132 17 79.0019 16.844 78.6466 16.532C78.2912 16.22 78.1136 15.713 78.1136 15.011V11.046H77.2686V9.837H78.1136V8.056H79.6086V9.837H81.3506V11.046H79.6086ZM83.9348 8.888C83.6661 8.888 83.4408 8.797 83.2588 8.615C83.0768 8.433 82.9858 8.20767 82.9858 7.939C82.9858 7.67033 83.0768 7.445 83.2588 7.263C83.4408 7.081 83.6661 6.99 83.9348 6.99C84.1948 6.99 84.4158 7.081 84.5978 7.263C84.7798 7.445 84.8708 7.67033 84.8708 7.939C84.8708 8.20767 84.7798 8.433 84.5978 8.615C84.4158 8.797 84.1948 8.888 83.9348 8.888ZM84.6628 9.837V17H83.1808V9.837H84.6628ZM90.1798 17.117C89.5038 17.117 88.8928 16.9653 88.3468 16.662C87.8008 16.35 87.3718 15.9167 87.0598 15.362C86.7478 14.7987 86.5918 14.1487 86.5918 13.412C86.5918 12.684 86.7521 12.0383 87.0728 11.475C87.3935 10.9117 87.8311 10.4783 88.3858 10.175C88.9405 9.87167 89.5601 9.72 90.2448 9.72C90.9295 9.72 91.5491 9.87167 92.1038 10.175C92.6585 10.4783 93.0961 10.9117 93.4168 11.475C93.7375 12.0383 93.8978 12.684 93.8978 13.412C93.8978 14.14 93.7331 14.7857 93.4038 15.349C93.0745 15.9123 92.6238 16.35 92.0518 16.662C91.4885 16.9653 90.8645 17.117 90.1798 17.117ZM90.1798 15.83C90.5611 15.83 90.9165 15.739 91.2458 15.557C91.5838 15.375 91.8568 15.102 92.0648 14.738C92.2728 14.374 92.3768 13.932 92.3768 13.412C92.3768 12.892 92.2771 12.4543 92.0778 12.099C91.8785 11.735 91.6141 11.462 91.2848 11.28C90.9555 11.098 90.6001 11.007 90.2188 11.007C89.8375 11.007 89.4821 11.098 89.1528 11.28C88.8321 11.462 88.5765 11.735 88.3858 12.099C88.1951 12.4543 88.0998 12.892 88.0998 13.412C88.0998 14.1833 88.2948 14.7813 88.6848 15.206C89.0835 15.622 89.5818 15.83 90.1798 15.83ZM99.4411 9.72C100.004 9.72 100.507 9.837 100.949 10.071C101.4 10.305 101.751 10.6517 102.002 11.111C102.253 11.5703 102.379 12.125 102.379 12.775V17H100.91V12.996C100.91 12.3547 100.75 11.865 100.429 11.527C100.108 11.1803 99.6708 11.007 99.1161 11.007C98.5615 11.007 98.1195 11.1803 97.7901 11.527C97.4695 11.865 97.3091 12.3547 97.3091 12.996V17H95.8271V9.837H97.3091V10.656C97.5518 10.3613 97.8595 10.1317 98.2321 9.967C98.6135 9.80233 99.0165 9.72 99.4411 9.72Z" fill="#273240"/>
<path d="M197.766 14.907V14.01L202.329 7.692H203.746V13.88H205.046V14.907H203.746V17H202.576V14.907H197.766ZM202.628 8.927L199.131 13.88H202.628V8.927ZM206.549 16.051C207.649 15.167 208.512 14.4433 209.136 13.88C209.76 13.308 210.284 12.7143 210.709 12.099C211.142 11.475 211.359 10.864 211.359 10.266C211.359 9.70267 211.22 9.26067 210.943 8.94C210.674 8.61067 210.236 8.446 209.63 8.446C209.04 8.446 208.581 8.63233 208.252 9.005C207.931 9.369 207.758 9.85867 207.732 10.474H206.588C206.622 9.50333 206.917 8.75367 207.472 8.225C208.026 7.69633 208.741 7.432 209.617 7.432C210.509 7.432 211.216 7.679 211.736 8.173C212.264 8.667 212.529 9.34733 212.529 10.214C212.529 10.9333 212.312 11.6353 211.879 12.32C211.454 12.996 210.969 13.594 210.423 14.114C209.877 14.6253 209.179 15.2233 208.33 15.908H212.802V16.896H206.549V16.051ZM214.633 12.203C214.633 10.7123 214.876 9.551 215.361 8.719C215.847 7.87833 216.696 7.458 217.909 7.458C219.114 7.458 219.959 7.87833 220.444 8.719C220.93 9.551 221.172 10.7123 221.172 12.203C221.172 13.7197 220.93 14.8983 220.444 15.739C219.959 16.5797 219.114 17 217.909 17C216.696 17 215.847 16.5797 215.361 15.739C214.876 14.8983 214.633 13.7197 214.633 12.203ZM220.002 12.203C220.002 11.449 219.95 10.812 219.846 10.292C219.751 9.76333 219.547 9.33867 219.235 9.018C218.932 8.69733 218.49 8.537 217.909 8.537C217.32 8.537 216.869 8.69733 216.557 9.018C216.254 9.33867 216.05 9.76333 215.946 10.292C215.851 10.812 215.803 11.449 215.803 12.203C215.803 12.983 215.851 13.6373 215.946 14.166C216.05 14.6947 216.254 15.1193 216.557 15.44C216.869 15.7607 217.32 15.921 217.909 15.921C218.49 15.921 218.932 15.7607 219.235 15.44C219.547 15.1193 219.751 14.6947 219.846 14.166C219.95 13.6373 220.002 12.983 220.002 12.203ZM223.833 17.078C223.607 17.078 223.417 17 223.261 16.844C223.105 16.688 223.027 16.4973 223.027 16.272C223.027 16.0467 223.105 15.856 223.261 15.7C223.417 15.544 223.607 15.466 223.833 15.466C224.049 15.466 224.231 15.544 224.379 15.7C224.535 15.856 224.613 16.0467 224.613 16.272C224.613 16.4973 224.535 16.688 224.379 16.844C224.231 17 224.049 17.078 223.833 17.078ZM232.24 8.524L228.626 17H227.43L231.096 8.641H226.078V7.627H232.24V8.524ZM234.016 12.203C234.016 10.7123 234.258 9.551 234.744 8.719C235.229 7.87833 236.078 7.458 237.292 7.458C238.496 7.458 239.341 7.87833 239.827 8.719C240.312 9.551 240.555 10.7123 240.555 12.203C240.555 13.7197 240.312 14.8983 239.827 15.739C239.341 16.5797 238.496 17 237.292 17C236.078 17 235.229 16.5797 234.744 15.739C234.258 14.8983 234.016 13.7197 234.016 12.203ZM239.385 12.203C239.385 11.449 239.333 10.812 239.229 10.292C239.133 9.76333 238.93 9.33867 238.618 9.018C238.314 8.69733 237.872 8.537 237.292 8.537C236.702 8.537 236.252 8.69733 235.94 9.018C235.636 9.33867 235.433 9.76333 235.329 10.292C235.233 10.812 235.186 11.449 235.186 12.203C235.186 12.983 235.233 13.6373 235.329 14.166C235.433 14.6947 235.636 15.1193 235.94 15.44C236.252 15.7607 236.702 15.921 237.292 15.921C237.872 15.921 238.314 15.7607 238.618 15.44C238.93 15.1193 239.133 14.6947 239.229 14.166C239.333 13.6373 239.385 12.983 239.385 12.203ZM242.643 12.203C242.643 10.7123 242.886 9.551 243.371 8.719C243.856 7.87833 244.706 7.458 245.919 7.458C247.124 7.458 247.969 7.87833 248.454 8.719C248.939 9.551 249.182 10.7123 249.182 12.203C249.182 13.7197 248.939 14.8983 248.454 15.739C247.969 16.5797 247.124 17 245.919 17C244.706 17 243.856 16.5797 243.371 15.739C242.886 14.8983 242.643 13.7197 242.643 12.203ZM248.012 12.203C248.012 11.449 247.96 10.812 247.856 10.292C247.761 9.76333 247.557 9.33867 247.245 9.018C246.942 8.69733 246.5 8.537 245.919 8.537C245.33 8.537 244.879 8.69733 244.567 9.018C244.264 9.33867 244.06 9.76333 243.956 10.292C243.861 10.812 243.813 11.449 243.813 12.203C243.813 12.983 243.861 13.6373 243.956 14.166C244.06 14.6947 244.264 15.1193 244.567 15.44C244.879 15.7607 245.33 15.921 245.919 15.921C246.5 15.921 246.942 15.7607 247.245 15.44C247.557 15.1193 247.761 14.6947 247.856 14.166C247.96 13.6373 248.012 12.983 248.012 12.203Z" fill="#273240"/>
<rect y="32" width="250" height="5" rx="2.5" fill="#ECEFF5"/>
<rect y="32" width="60" height="5" rx="2.5" fill="#31BA96"/>
</svg>
