<svg width="250" height="37" viewBox="0 0 250 37" fill="none" xmlns="http://www.w3.org/2000/svg">
<path d="M8.762 7.965L5.369 17H3.653L0.247 7.965H1.833L4.511 15.479L7.202 7.965H8.762ZM17.0307 13.243C17.0307 13.5117 17.0133 13.7543 16.9787 13.971H11.5057C11.549 14.543 11.7613 15.0023 12.1427 15.349C12.524 15.6957 12.992 15.869 13.5467 15.869C14.344 15.869 14.9073 15.5353 15.2367 14.868H16.8357C16.619 15.5267 16.2247 16.0683 15.6527 16.493C15.0893 16.909 14.3873 17.117 13.5467 17.117C12.862 17.117 12.2467 16.9653 11.7007 16.662C11.1633 16.35 10.7387 15.9167 10.4267 15.362C10.1233 14.7987 9.97165 14.1487 9.97165 13.412C9.97165 12.6753 10.119 12.0297 10.4137 11.475C10.717 10.9117 11.1373 10.4783 11.6747 10.175C12.2207 9.87167 12.8447 9.72 13.5467 9.72C14.2227 9.72 14.825 9.86733 15.3537 10.162C15.8823 10.4567 16.294 10.8727 16.5887 11.41C16.8833 11.9387 17.0307 12.5497 17.0307 13.243ZM15.4837 12.775C15.475 12.229 15.28 11.7913 14.8987 11.462C14.5173 11.1327 14.045 10.968 13.4817 10.968C12.9703 10.968 12.5327 11.1327 12.1687 11.462C11.8047 11.7827 11.588 12.2203 11.5187 12.775H15.4837ZM22.6584 9.72C23.2044 9.72 23.6897 9.837 24.1144 10.071C24.5477 10.305 24.8857 10.6517 25.1284 11.111C25.3797 11.5703 25.5054 12.125 25.5054 12.775V17H24.0364V12.996C24.0364 12.3547 23.876 11.865 23.5554 11.527C23.2347 11.1803 22.797 11.007 22.2424 11.007C21.6877 11.007 21.2457 11.1803 20.9164 11.527C20.5957 11.865 20.4354 12.3547 20.4354 12.996V17H18.9534V7.38H20.4354V10.669C20.6867 10.3657 21.003 10.1317 21.3844 9.967C21.7744 9.80233 22.199 9.72 22.6584 9.72ZM28.614 8.888C28.3454 8.888 28.12 8.797 27.938 8.615C27.756 8.433 27.665 8.20767 27.665 7.939C27.665 7.67033 27.756 7.445 27.938 7.263C28.12 7.081 28.3454 6.99 28.614 6.99C28.874 6.99 29.095 7.081 29.277 7.263C29.459 7.445 29.55 7.67033 29.55 7.939C29.55 8.20767 29.459 8.433 29.277 8.615C29.095 8.797 28.874 8.888 28.614 8.888ZM29.342 9.837V17H27.86V9.837H29.342ZM31.2581 13.412C31.2581 12.6753 31.4054 12.0297 31.7001 11.475C32.0034 10.9117 32.4194 10.4783 32.9481 10.175C33.4767 9.87167 34.0834 9.72 34.7681 9.72C35.6347 9.72 36.3497 9.928 36.9131 10.344C37.4851 10.7513 37.8707 11.3363 38.0701 12.099H36.4711C36.3411 11.7437 36.1331 11.4663 35.8471 11.267C35.5611 11.0677 35.2014 10.968 34.7681 10.968C34.1614 10.968 33.6761 11.1847 33.3121 11.618C32.9567 12.0427 32.7791 12.6407 32.7791 13.412C32.7791 14.1833 32.9567 14.7857 33.3121 15.219C33.6761 15.6523 34.1614 15.869 34.7681 15.869C35.6261 15.869 36.1937 15.492 36.4711 14.738H38.0701C37.8621 15.466 37.4721 16.0467 36.9001 16.48C36.3281 16.9047 35.6174 17.117 34.7681 17.117C34.0834 17.117 33.4767 16.9653 32.9481 16.662C32.4194 16.35 32.0034 15.9167 31.7001 15.362C31.4054 14.7987 31.2581 14.1487 31.2581 13.412ZM41.4933 7.38V17H40.0113V7.38H41.4933ZM50.4683 13.243C50.4683 13.5117 50.451 13.7543 50.4163 13.971H44.9433C44.9866 14.543 45.199 15.0023 45.5803 15.349C45.9616 15.6957 46.4296 15.869 46.9843 15.869C47.7816 15.869 48.345 15.5353 48.6743 14.868H50.2733C50.0566 15.5267 49.6623 16.0683 49.0903 16.493C48.527 16.909 47.825 17.117 46.9843 17.117C46.2996 17.117 45.6843 16.9653 45.1383 16.662C44.601 16.35 44.1763 15.9167 43.8643 15.362C43.561 14.7987 43.4093 14.1487 43.4093 13.412C43.4093 12.6753 43.5566 12.0297 43.8513 11.475C44.1546 10.9117 44.575 10.4783 45.1123 10.175C45.6583 9.87167 46.2823 9.72 46.9843 9.72C47.6603 9.72 48.2626 9.86733 48.7913 10.162C49.32 10.4567 49.7316 10.8727 50.0263 11.41C50.321 11.9387 50.4683 12.5497 50.4683 13.243ZM48.9213 12.775C48.9126 12.229 48.7176 11.7913 48.3363 11.462C47.955 11.1327 47.4826 10.968 46.9193 10.968C46.408 10.968 45.9703 11.1327 45.6063 11.462C45.2423 11.7827 45.0256 12.2203 44.9563 12.775H48.9213Z" fill="#273240"/>
<path d="M202.991 8.628H198.428V11.592C198.627 11.3147 198.922 11.0893 199.312 10.916C199.702 10.734 200.122 10.643 200.573 10.643C201.292 10.643 201.877 10.7947 202.328 11.098C202.778 11.3927 203.099 11.7783 203.29 12.255C203.489 12.723 203.589 13.2213 203.589 13.75C203.589 14.374 203.472 14.933 203.238 15.427C203.004 15.921 202.644 16.311 202.159 16.597C201.682 16.883 201.088 17.026 200.378 17.026C199.468 17.026 198.731 16.792 198.168 16.324C197.604 15.856 197.262 15.232 197.141 14.452H198.298C198.41 14.946 198.649 15.3317 199.013 15.609C199.377 15.8863 199.836 16.025 200.391 16.025C201.075 16.025 201.591 15.8213 201.938 15.414C202.284 14.998 202.458 14.452 202.458 13.776C202.458 13.1 202.284 12.58 201.938 12.216C201.591 11.8433 201.08 11.657 200.404 11.657C199.944 11.657 199.541 11.7697 199.195 11.995C198.857 12.2117 198.61 12.5107 198.454 12.892H197.336V7.588H202.991V8.628ZM205.482 16.051C206.583 15.167 207.445 14.4433 208.069 13.88C208.693 13.308 209.218 12.7143 209.642 12.099C210.076 11.475 210.292 10.864 210.292 10.266C210.292 9.70267 210.154 9.26067 209.876 8.94C209.608 8.61067 209.17 8.446 208.563 8.446C207.974 8.446 207.515 8.63233 207.185 9.005C206.865 9.369 206.691 9.85867 206.665 10.474H205.521C205.556 9.50333 205.851 8.75367 206.405 8.225C206.96 7.69633 207.675 7.432 208.55 7.432C209.443 7.432 210.149 7.679 210.669 8.173C211.198 8.667 211.462 9.34733 211.462 10.214C211.462 10.9333 211.246 11.6353 210.812 12.32C210.388 12.996 209.902 13.594 209.356 14.114C208.81 14.6253 208.113 15.2233 207.263 15.908H211.735V16.896H205.482V16.051ZM213.567 12.203C213.567 10.7123 213.81 9.551 214.295 8.719C214.78 7.87833 215.63 7.458 216.843 7.458C218.048 7.458 218.893 7.87833 219.378 8.719C219.863 9.551 220.106 10.7123 220.106 12.203C220.106 13.7197 219.863 14.8983 219.378 15.739C218.893 16.5797 218.048 17 216.843 17C215.63 17 214.78 16.5797 214.295 15.739C213.81 14.8983 213.567 13.7197 213.567 12.203ZM218.936 12.203C218.936 11.449 218.884 10.812 218.78 10.292C218.685 9.76333 218.481 9.33867 218.169 9.018C217.866 8.69733 217.424 8.537 216.843 8.537C216.254 8.537 215.803 8.69733 215.491 9.018C215.188 9.33867 214.984 9.76333 214.88 10.292C214.785 10.812 214.737 11.449 214.737 12.203C214.737 12.983 214.785 13.6373 214.88 14.166C214.984 14.6947 215.188 15.1193 215.491 15.44C215.803 15.7607 216.254 15.921 216.843 15.921C217.424 15.921 217.866 15.7607 218.169 15.44C218.481 15.1193 218.685 14.6947 218.78 14.166C218.884 13.6373 218.936 12.983 218.936 12.203ZM222.766 17.078C222.541 17.078 222.35 17 222.194 16.844C222.038 16.688 221.96 16.4973 221.96 16.272C221.96 16.0467 222.038 15.856 222.194 15.7C222.35 15.544 222.541 15.466 222.766 15.466C222.983 15.466 223.165 15.544 223.312 15.7C223.468 15.856 223.546 16.0467 223.546 16.272C223.546 16.4973 223.468 16.688 223.312 16.844C223.165 17 222.983 17.078 222.766 17.078ZM225.388 12.203C225.388 10.7123 225.631 9.551 226.116 8.719C226.602 7.87833 227.451 7.458 228.664 7.458C229.869 7.458 230.714 7.87833 231.199 8.719C231.685 9.551 231.927 10.7123 231.927 12.203C231.927 13.7197 231.685 14.8983 231.199 15.739C230.714 16.5797 229.869 17 228.664 17C227.451 17 226.602 16.5797 226.116 15.739C225.631 14.8983 225.388 13.7197 225.388 12.203ZM230.757 12.203C230.757 11.449 230.705 10.812 230.601 10.292C230.506 9.76333 230.302 9.33867 229.99 9.018C229.687 8.69733 229.245 8.537 228.664 8.537C228.075 8.537 227.624 8.69733 227.312 9.018C227.009 9.33867 226.805 9.76333 226.701 10.292C226.606 10.812 226.558 11.449 226.558 12.203C226.558 12.983 226.606 13.6373 226.701 14.166C226.805 14.6947 227.009 15.1193 227.312 15.44C227.624 15.7607 228.075 15.921 228.664 15.921C229.245 15.921 229.687 15.7607 229.99 15.44C230.302 15.1193 230.506 14.6947 230.601 14.166C230.705 13.6373 230.757 12.983 230.757 12.203ZM234.016 12.203C234.016 10.7123 234.258 9.551 234.744 8.719C235.229 7.87833 236.078 7.458 237.292 7.458C238.496 7.458 239.341 7.87833 239.827 8.719C240.312 9.551 240.555 10.7123 240.555 12.203C240.555 13.7197 240.312 14.8983 239.827 15.739C239.341 16.5797 238.496 17 237.292 17C236.078 17 235.229 16.5797 234.744 15.739C234.258 14.8983 234.016 13.7197 234.016 12.203ZM239.385 12.203C239.385 11.449 239.333 10.812 239.229 10.292C239.133 9.76333 238.93 9.33867 238.618 9.018C238.314 8.69733 237.872 8.537 237.292 8.537C236.702 8.537 236.252 8.69733 235.94 9.018C235.636 9.33867 235.433 9.76333 235.329 10.292C235.233 10.812 235.186 11.449 235.186 12.203C235.186 12.983 235.233 13.6373 235.329 14.166C235.433 14.6947 235.636 15.1193 235.94 15.44C236.252 15.7607 236.702 15.921 237.292 15.921C237.872 15.921 238.314 15.7607 238.618 15.44C238.93 15.1193 239.133 14.6947 239.229 14.166C239.333 13.6373 239.385 12.983 239.385 12.203ZM242.643 12.203C242.643 10.7123 242.886 9.551 243.371 8.719C243.856 7.87833 244.706 7.458 245.919 7.458C247.124 7.458 247.969 7.87833 248.454 8.719C248.939 9.551 249.182 10.7123 249.182 12.203C249.182 13.7197 248.939 14.8983 248.454 15.739C247.969 16.5797 247.124 17 245.919 17C244.706 17 243.856 16.5797 243.371 15.739C242.886 14.8983 242.643 13.7197 242.643 12.203ZM248.012 12.203C248.012 11.449 247.96 10.812 247.856 10.292C247.761 9.76333 247.557 9.33867 247.245 9.018C246.942 8.69733 246.5 8.537 245.919 8.537C245.33 8.537 244.879 8.69733 244.567 9.018C244.264 9.33867 244.06 9.76333 243.956 10.292C243.861 10.812 243.813 11.449 243.813 12.203C243.813 12.983 243.861 13.6373 243.956 14.166C244.06 14.6947 244.264 15.1193 244.567 15.44C244.879 15.7607 245.33 15.921 245.919 15.921C246.5 15.921 246.942 15.7607 247.245 15.44C247.557 15.1193 247.761 14.6947 247.856 14.166C247.96 13.6373 248.012 12.983 248.012 12.203Z" fill="#273240"/>
<rect y="32" width="250" height="5" rx="2.5" fill="#ECEFF5"/>
<rect y="32" width="90" height="5" rx="2.5" fill="#31BA96"/>
</svg>
