<svg width="500" height="49" viewBox="0 0 500 49" fill="none" xmlns="http://www.w3.org/2000/svg">
<path d="M74.248 10.08C73.96 9.52533 73.56 9.10933 73.048 8.832C72.536 8.544 71.944 8.4 71.272 8.4C70.536 8.4 69.88 8.56533 69.304 8.896C68.728 9.22667 68.2747 9.696 67.944 10.304C67.624 10.912 67.464 11.616 67.464 12.416C67.464 13.216 67.624 13.9253 67.944 14.544C68.2747 15.152 68.728 15.6213 69.304 15.952C69.88 16.2827 70.536 16.448 71.272 16.448C72.264 16.448 73.0693 16.1707 73.688 15.616C74.3067 15.0613 74.6853 14.3093 74.824 13.36H70.648V11.904H76.776V13.328C76.6587 14.192 76.3493 14.9867 75.848 15.712C75.3573 16.4373 74.712 17.0187 73.912 17.456C73.1227 17.8827 72.2427 18.096 71.272 18.096C70.2267 18.096 69.272 17.856 68.408 17.376C67.544 16.8853 66.856 16.208 66.344 15.344C65.8427 14.48 65.592 13.504 65.592 12.416C65.592 11.328 65.8427 10.352 66.344 9.488C66.856 8.624 67.544 7.952 68.408 7.472C69.2827 6.98133 70.2373 6.736 71.272 6.736C72.456 6.736 73.5067 7.02933 74.424 7.616C75.352 8.192 76.024 9.01333 76.44 10.08H74.248ZM80.7419 10.464C81.0085 10.016 81.3605 9.66933 81.7979 9.424C82.2459 9.168 82.7739 9.04 83.3819 9.04V10.928H82.9179C82.2032 10.928 81.6592 11.1093 81.2859 11.472C80.9232 11.8347 80.7419 12.464 80.7419 13.36V18H78.9179V9.184H80.7419V10.464ZM89.2253 18.144C88.3933 18.144 87.6413 17.9573 86.9693 17.584C86.2973 17.2 85.7693 16.6667 85.3853 15.984C85.0013 15.2907 84.8093 14.4907 84.8093 13.584C84.8093 12.688 85.0067 11.8933 85.4013 11.2C85.796 10.5067 86.3347 9.97333 87.0173 9.6C87.7 9.22667 88.4627 9.04 89.3053 9.04C90.148 9.04 90.9107 9.22667 91.5933 9.6C92.276 9.97333 92.8147 10.5067 93.2093 11.2C93.604 11.8933 93.8013 12.688 93.8013 13.584C93.8013 14.48 93.5987 15.2747 93.1933 15.968C92.788 16.6613 92.2333 17.2 91.5293 17.584C90.836 17.9573 90.068 18.144 89.2253 18.144ZM89.2253 16.56C89.6947 16.56 90.132 16.448 90.5373 16.224C90.9533 16 91.2893 15.664 91.5453 15.216C91.8013 14.768 91.9293 14.224 91.9293 13.584C91.9293 12.944 91.8067 12.4053 91.5613 11.968C91.316 11.52 90.9907 11.184 90.5853 10.96C90.18 10.736 89.7427 10.624 89.2733 10.624C88.804 10.624 88.3667 10.736 87.9613 10.96C87.5667 11.184 87.252 11.52 87.0173 11.968C86.7827 12.4053 86.6653 12.944 86.6653 13.584C86.6653 14.5333 86.9053 15.2693 87.3853 15.792C87.876 16.304 88.4893 16.56 89.2253 16.56ZM95.3393 13.584C95.3393 12.6773 95.5207 11.8827 95.8833 11.2C96.2567 10.5067 96.7687 9.97333 97.4193 9.6C98.07 9.22667 98.8167 9.04 99.6593 9.04C100.726 9.04 101.606 9.296 102.299 9.808C103.003 10.3093 103.478 11.0293 103.723 11.968H101.755C101.595 11.5307 101.339 11.1893 100.987 10.944C100.635 10.6987 100.193 10.576 99.6593 10.576C98.9127 10.576 98.3153 10.8427 97.8673 11.376C97.43 11.8987 97.2113 12.6347 97.2113 13.584C97.2113 14.5333 97.43 15.2747 97.8673 15.808C98.3153 16.3413 98.9127 16.608 99.6593 16.608C100.715 16.608 101.414 16.144 101.755 15.216H103.723C103.467 16.112 102.987 16.8267 102.283 17.36C101.579 17.8827 100.705 18.144 99.6593 18.144C98.8167 18.144 98.07 17.9573 97.4193 17.584C96.7687 17.2 96.2567 16.6667 95.8833 15.984C95.5207 15.2907 95.3393 14.4907 95.3393 13.584ZM113.964 13.376C113.964 13.7067 113.943 14.0053 113.9 14.272H107.164C107.217 14.976 107.479 15.5413 107.948 15.968C108.417 16.3947 108.993 16.608 109.676 16.608C110.657 16.608 111.351 16.1973 111.756 15.376H113.724C113.457 16.1867 112.972 16.8533 112.268 17.376C111.575 17.888 110.711 18.144 109.676 18.144C108.833 18.144 108.076 17.9573 107.404 17.584C106.743 17.2 106.22 16.6667 105.836 15.984C105.463 15.2907 105.276 14.4907 105.276 13.584C105.276 12.6773 105.457 11.8827 105.82 11.2C106.193 10.5067 106.711 9.97333 107.372 9.6C108.044 9.22667 108.812 9.04 109.676 9.04C110.508 9.04 111.249 9.22133 111.9 9.584C112.551 9.94667 113.057 10.4587 113.42 11.12C113.783 11.7707 113.964 12.5227 113.964 13.376ZM112.06 12.8C112.049 12.128 111.809 11.5893 111.34 11.184C110.871 10.7787 110.289 10.576 109.596 10.576C108.967 10.576 108.428 10.7787 107.98 11.184C107.532 11.5787 107.265 12.1173 107.18 12.8H112.06ZM117.926 10.464C118.192 10.016 118.544 9.66933 118.982 9.424C119.43 9.168 119.958 9.04 120.566 9.04V10.928H120.102C119.387 10.928 118.843 11.1093 118.47 11.472C118.107 11.8347 117.926 12.464 117.926 13.36V18H116.102V9.184H117.926V10.464ZM130.521 9.184L125.113 22.144H123.225L125.017 17.856L121.545 9.184H123.577L126.057 15.904L128.633 9.184H130.521Z" fill="#273240"/>
<path opacity="0.5" d="M72.322 33.984H67.408V37.176C67.6227 36.8773 67.94 36.6347 68.36 36.448C68.78 36.252 69.2327 36.154 69.718 36.154C70.4927 36.154 71.1227 36.3173 71.608 36.644C72.0933 36.9613 72.4387 37.3767 72.644 37.89C72.8587 38.394 72.966 38.9307 72.966 39.5C72.966 40.172 72.84 40.774 72.588 41.306C72.336 41.838 71.9487 42.258 71.426 42.566C70.9127 42.874 70.2733 43.028 69.508 43.028C68.528 43.028 67.7347 42.776 67.128 42.272C66.5213 41.768 66.1527 41.096 66.022 40.256H67.268C67.3893 40.788 67.646 41.2033 68.038 41.502C68.43 41.8007 68.9247 41.95 69.522 41.95C70.2593 41.95 70.8147 41.7307 71.188 41.292C71.5613 40.844 71.748 40.256 71.748 39.528C71.748 38.8 71.5613 38.24 71.188 37.848C70.8147 37.4467 70.264 37.246 69.536 37.246C69.0413 37.246 68.6073 37.3673 68.234 37.61C67.87 37.8433 67.604 38.1653 67.436 38.576H66.232V32.864H72.322V33.984ZM75.775 43.084C75.5323 43.084 75.327 43 75.159 42.832C74.991 42.664 74.907 42.4587 74.907 42.216C74.907 41.9733 74.991 41.768 75.159 41.6C75.327 41.432 75.5323 41.348 75.775 41.348C76.0083 41.348 76.2043 41.432 76.363 41.6C76.531 41.768 76.615 41.9733 76.615 42.216C76.615 42.4587 76.531 42.664 76.363 42.832C76.2043 43 76.0083 43.084 75.775 43.084ZM75.775 37.092C75.5323 37.092 75.327 37.008 75.159 36.84C74.991 36.672 74.907 36.4667 74.907 36.224C74.907 35.9813 74.991 35.776 75.159 35.608C75.327 35.44 75.5323 35.356 75.775 35.356C76.0083 35.356 76.2043 35.44 76.363 35.608C76.531 35.776 76.615 35.9813 76.615 36.224C76.615 36.4667 76.531 36.672 76.363 36.84C76.2043 37.008 76.0083 37.092 75.775 37.092ZM78.3035 34.04V32.878H80.9355V43H79.6475V34.04H78.3035ZM83.4699 41.978C84.6552 41.026 85.5839 40.2467 86.2559 39.64C86.9279 39.024 87.4925 38.3847 87.9499 37.722C88.4165 37.05 88.6499 36.392 88.6499 35.748C88.6499 35.1413 88.5005 34.6653 88.2019 34.32C87.9125 33.9653 87.4412 33.788 86.7879 33.788C86.1532 33.788 85.6585 33.9887 85.3039 34.39C84.9585 34.782 84.7719 35.3093 84.7439 35.972H83.5119C83.5492 34.9267 83.8665 34.1193 84.4639 33.55C85.0612 32.9807 85.8312 32.696 86.7739 32.696C87.7352 32.696 88.4959 32.962 89.0559 33.494C89.6252 34.026 89.9099 34.7587 89.9099 35.692C89.9099 36.4667 89.6765 37.2227 89.2099 37.96C88.7525 38.688 88.2299 39.332 87.6419 39.892C87.0539 40.4427 86.3025 41.0867 85.3879 41.824H90.2039V42.888H83.4699V41.978ZM97.893 36.742C98.145 36.3033 98.5183 35.9393 99.013 35.65C99.517 35.3513 100.1 35.202 100.763 35.202C101.444 35.202 102.06 35.3653 102.611 35.692C103.171 36.0187 103.61 36.4807 103.927 37.078C104.244 37.666 104.403 38.352 104.403 39.136C104.403 39.9107 104.244 40.6013 103.927 41.208C103.61 41.8147 103.171 42.286 102.611 42.622C102.06 42.958 101.444 43.126 100.763 43.126C100.11 43.126 99.531 42.9813 99.027 42.692C98.5323 42.3933 98.1543 42.0247 97.893 41.586V46.64H96.619V35.328H97.893V36.742ZM103.101 39.136C103.101 38.5573 102.984 38.0533 102.751 37.624C102.518 37.1947 102.2 36.868 101.799 36.644C101.407 36.42 100.973 36.308 100.497 36.308C100.03 36.308 99.5963 36.4247 99.195 36.658C98.803 36.882 98.4857 37.2133 98.243 37.652C98.0097 38.0813 97.893 38.5807 97.893 39.15C97.893 39.7287 98.0097 40.2373 98.243 40.676C98.4857 41.1053 98.803 41.4367 99.195 41.67C99.5963 41.894 100.03 42.006 100.497 42.006C100.973 42.006 101.407 41.894 101.799 41.67C102.2 41.4367 102.518 41.1053 102.751 40.676C102.984 40.2373 103.101 39.724 103.101 39.136ZM115.806 35.188C116.403 35.188 116.935 35.314 117.402 35.566C117.869 35.8087 118.237 36.1773 118.508 36.672C118.779 37.1667 118.914 37.7687 118.914 38.478V43H117.654V38.66C117.654 37.8947 117.463 37.3113 117.08 36.91C116.707 36.4993 116.198 36.294 115.554 36.294C114.891 36.294 114.364 36.5087 113.972 36.938C113.58 37.358 113.384 37.9693 113.384 38.772V43H112.124V38.66C112.124 37.8947 111.933 37.3113 111.55 36.91C111.177 36.4993 110.668 36.294 110.024 36.294C109.361 36.294 108.834 36.5087 108.442 36.938C108.05 37.358 107.854 37.9693 107.854 38.772V43H106.58V35.328H107.854V36.434C108.106 36.0327 108.442 35.7247 108.862 35.51C109.291 35.2953 109.763 35.188 110.276 35.188C110.92 35.188 111.489 35.3327 111.984 35.622C112.479 35.9113 112.847 36.336 113.09 36.896C113.305 36.3547 113.659 35.9347 114.154 35.636C114.649 35.3373 115.199 35.188 115.806 35.188ZM131.761 40.046C131.285 40.046 130.879 39.8827 130.543 39.556C130.216 39.22 130.053 38.814 130.053 38.338C130.053 37.8527 130.216 37.4467 130.543 37.12C130.879 36.784 131.285 36.616 131.761 36.616C132.246 36.616 132.657 36.784 132.993 37.12C133.329 37.4467 133.497 37.8527 133.497 38.338C133.497 38.814 133.329 39.22 132.993 39.556C132.657 39.8827 132.246 40.046 131.761 40.046ZM149.589 37.974C149.944 38.03 150.266 38.1747 150.555 38.408C150.854 38.6413 151.087 38.9307 151.255 39.276C151.432 39.6213 151.521 39.99 151.521 40.382C151.521 40.8767 151.395 41.3247 151.143 41.726C150.891 42.118 150.522 42.4307 150.037 42.664C149.561 42.888 148.996 43 148.343 43H144.703V33.242H148.203C148.866 33.242 149.43 33.354 149.897 33.578C150.364 33.7927 150.714 34.0867 150.947 34.46C151.18 34.8333 151.297 35.2533 151.297 35.72C151.297 36.2987 151.138 36.7793 150.821 37.162C150.513 37.5353 150.102 37.806 149.589 37.974ZM145.977 37.456H148.119C148.716 37.456 149.178 37.316 149.505 37.036C149.832 36.756 149.995 36.3687 149.995 35.874C149.995 35.3793 149.832 34.992 149.505 34.712C149.178 34.432 148.707 34.292 148.091 34.292H145.977V37.456ZM148.231 41.95C148.866 41.95 149.36 41.8007 149.715 41.502C150.07 41.2033 150.247 40.788 150.247 40.256C150.247 39.7147 150.06 39.29 149.687 38.982C149.314 38.6647 148.814 38.506 148.189 38.506H145.977V41.95H148.231ZM160.789 38.87C160.789 39.1127 160.775 39.3693 160.747 39.64H154.615C154.662 40.396 154.918 40.9887 155.385 41.418C155.861 41.838 156.435 42.048 157.107 42.048C157.658 42.048 158.115 41.922 158.479 41.67C158.852 41.4087 159.114 41.0633 159.263 40.634H160.635C160.43 41.3713 160.019 41.9733 159.403 42.44C158.787 42.8973 158.022 43.126 157.107 43.126C156.379 43.126 155.726 42.9627 155.147 42.636C154.578 42.3093 154.13 41.8473 153.803 41.25C153.476 40.6433 153.313 39.9433 153.313 39.15C153.313 38.3567 153.472 37.6613 153.789 37.064C154.106 36.4667 154.55 36.0093 155.119 35.692C155.698 35.3653 156.36 35.202 157.107 35.202C157.835 35.202 158.479 35.3607 159.039 35.678C159.599 35.9953 160.028 36.434 160.327 36.994C160.635 37.5447 160.789 38.17 160.789 38.87ZM159.473 38.604C159.473 38.1187 159.366 37.7033 159.151 37.358C158.936 37.0033 158.642 36.7373 158.269 36.56C157.905 36.3733 157.499 36.28 157.051 36.28C156.407 36.28 155.856 36.4853 155.399 36.896C154.951 37.3067 154.694 37.876 154.629 38.604H159.473ZM164.245 32.64V43H162.971V32.64H164.245ZM166.44 39.136C166.44 38.352 166.599 37.666 166.916 37.078C167.233 36.4807 167.667 36.0187 168.218 35.692C168.778 35.3653 169.399 35.202 170.08 35.202C170.752 35.202 171.335 35.3467 171.83 35.636C172.325 35.9253 172.693 36.2893 172.936 36.728V35.328H174.224V43H172.936V41.572C172.684 42.02 172.306 42.3933 171.802 42.692C171.307 42.9813 170.729 43.126 170.066 43.126C169.385 43.126 168.769 42.958 168.218 42.622C167.667 42.286 167.233 41.8147 166.916 41.208C166.599 40.6013 166.44 39.9107 166.44 39.136ZM172.936 39.15C172.936 38.5713 172.819 38.0673 172.586 37.638C172.353 37.2087 172.035 36.882 171.634 36.658C171.242 36.4247 170.808 36.308 170.332 36.308C169.856 36.308 169.422 36.42 169.03 36.644C168.638 36.868 168.325 37.1947 168.092 37.624C167.859 38.0533 167.742 38.5573 167.742 39.136C167.742 39.724 167.859 40.2373 168.092 40.676C168.325 41.1053 168.638 41.4367 169.03 41.67C169.422 41.894 169.856 42.006 170.332 42.006C170.808 42.006 171.242 41.894 171.634 41.67C172.035 41.4367 172.353 41.1053 172.586 40.676C172.819 40.2373 172.936 39.7287 172.936 39.15ZM180.615 35.188C181.548 35.188 182.304 35.4727 182.883 36.042C183.461 36.602 183.751 37.414 183.751 38.478V43H182.491V38.66C182.491 37.8947 182.299 37.3113 181.917 36.91C181.534 36.4993 181.011 36.294 180.349 36.294C179.677 36.294 179.14 36.504 178.739 36.924C178.347 37.344 178.151 37.9553 178.151 38.758V43H176.877V35.328H178.151V36.42C178.403 36.028 178.743 35.7247 179.173 35.51C179.611 35.2953 180.092 35.188 180.615 35.188ZM187.018 34.082C186.775 34.082 186.57 33.998 186.402 33.83C186.243 33.662 186.164 33.4567 186.164 33.214C186.164 32.9713 186.243 32.766 186.402 32.598C186.57 32.43 186.775 32.346 187.018 32.346C187.261 32.346 187.461 32.43 187.62 32.598C187.788 32.766 187.872 32.9713 187.872 33.214C187.872 33.4567 187.788 33.662 187.62 33.83C187.461 33.998 187.261 34.082 187.018 34.082ZM187.648 44.666C187.648 45.3473 187.475 45.8467 187.13 46.164C186.785 46.4813 186.281 46.64 185.618 46.64H184.876V45.562H185.408C185.763 45.562 186.01 45.492 186.15 45.352C186.299 45.212 186.374 44.974 186.374 44.638V35.328H187.648V44.666ZM189.829 39.136C189.829 38.352 189.987 37.666 190.305 37.078C190.622 36.4807 191.056 36.0187 191.607 35.692C192.167 35.3653 192.787 35.202 193.469 35.202C194.141 35.202 194.724 35.3467 195.219 35.636C195.713 35.9253 196.082 36.2893 196.325 36.728V35.328H197.613V43H196.325V41.572C196.073 42.02 195.695 42.3933 195.191 42.692C194.696 42.9813 194.117 43.126 193.455 43.126C192.773 43.126 192.157 42.958 191.607 42.622C191.056 42.286 190.622 41.8147 190.305 41.208C189.987 40.6013 189.829 39.9107 189.829 39.136ZM196.325 39.15C196.325 38.5713 196.208 38.0673 195.975 37.638C195.741 37.2087 195.424 36.882 195.023 36.658C194.631 36.4247 194.197 36.308 193.721 36.308C193.245 36.308 192.811 36.42 192.419 36.644C192.027 36.868 191.714 37.1947 191.481 37.624C191.247 38.0533 191.131 38.5573 191.131 39.136C191.131 39.724 191.247 40.2373 191.481 40.676C191.714 41.1053 192.027 41.4367 192.419 41.67C192.811 41.894 193.245 42.006 193.721 42.006C194.197 42.006 194.631 41.894 195.023 41.67C195.424 41.4367 195.741 41.1053 195.975 40.676C196.208 40.2373 196.325 39.7287 196.325 39.15ZM204.022 39.136C204.022 38.352 204.181 37.666 204.498 37.078C204.815 36.4807 205.249 36.0187 205.8 35.692C206.36 35.3653 206.985 35.202 207.676 35.202C208.273 35.202 208.829 35.342 209.342 35.622C209.855 35.8927 210.247 36.252 210.518 36.7V32.64H211.806V43H210.518V41.558C210.266 42.0153 209.893 42.3933 209.398 42.692C208.903 42.9813 208.325 43.126 207.662 43.126C206.981 43.126 206.36 42.958 205.8 42.622C205.249 42.286 204.815 41.8147 204.498 41.208C204.181 40.6013 204.022 39.9107 204.022 39.136ZM210.518 39.15C210.518 38.5713 210.401 38.0673 210.168 37.638C209.935 37.2087 209.617 36.882 209.216 36.658C208.824 36.4247 208.39 36.308 207.914 36.308C207.438 36.308 207.004 36.42 206.612 36.644C206.22 36.868 205.907 37.1947 205.674 37.624C205.441 38.0533 205.324 38.5573 205.324 39.136C205.324 39.724 205.441 40.2373 205.674 40.676C205.907 41.1053 206.22 41.4367 206.612 41.67C207.004 41.894 207.438 42.006 207.914 42.006C208.39 42.006 208.824 41.894 209.216 41.67C209.617 41.4367 209.935 41.1053 210.168 40.676C210.401 40.2373 210.518 39.7287 210.518 39.15ZM215.117 34.082C214.874 34.082 214.669 33.998 214.501 33.83C214.333 33.662 214.249 33.4567 214.249 33.214C214.249 32.9713 214.333 32.766 214.501 32.598C214.669 32.43 214.874 32.346 215.117 32.346C215.35 32.346 215.546 32.43 215.705 32.598C215.873 32.766 215.957 32.9713 215.957 33.214C215.957 33.4567 215.873 33.662 215.705 33.83C215.546 33.998 215.35 34.082 215.117 34.082ZM215.733 35.328V43H214.459V35.328H215.733ZM223.911 36.742C224.163 36.3033 224.536 35.9393 225.031 35.65C225.535 35.3513 226.118 35.202 226.781 35.202C227.462 35.202 228.078 35.3653 228.629 35.692C229.189 36.0187 229.627 36.4807 229.945 37.078C230.262 37.666 230.421 38.352 230.421 39.136C230.421 39.9107 230.262 40.6013 229.945 41.208C229.627 41.8147 229.189 42.286 228.629 42.622C228.078 42.958 227.462 43.126 226.781 43.126C226.127 43.126 225.549 42.9813 225.045 42.692C224.55 42.3933 224.172 42.0247 223.911 41.586V46.64H222.637V35.328H223.911V36.742ZM229.119 39.136C229.119 38.5573 229.002 38.0533 228.769 37.624C228.535 37.1947 228.218 36.868 227.817 36.644C227.425 36.42 226.991 36.308 226.515 36.308C226.048 36.308 225.614 36.4247 225.213 36.658C224.821 36.882 224.503 37.2133 224.261 37.652C224.027 38.0813 223.911 38.5807 223.911 39.15C223.911 39.7287 224.027 40.2373 224.261 40.676C224.503 41.1053 224.821 41.4367 225.213 41.67C225.614 41.894 226.048 42.006 226.515 42.006C226.991 42.006 227.425 41.894 227.817 41.67C228.218 41.4367 228.535 41.1053 228.769 40.676C229.002 40.2373 229.119 39.724 229.119 39.136ZM232.122 39.136C232.122 38.352 232.28 37.666 232.598 37.078C232.915 36.4807 233.349 36.0187 233.9 35.692C234.46 35.3653 235.08 35.202 235.762 35.202C236.434 35.202 237.017 35.3467 237.512 35.636C238.006 35.9253 238.375 36.2893 238.618 36.728V35.328H239.906V43H238.618V41.572C238.366 42.02 237.988 42.3933 237.484 42.692C236.989 42.9813 236.41 43.126 235.748 43.126C235.066 43.126 234.45 42.958 233.9 42.622C233.349 42.286 232.915 41.8147 232.598 41.208C232.28 40.6013 232.122 39.9107 232.122 39.136ZM238.618 39.15C238.618 38.5713 238.501 38.0673 238.268 37.638C238.034 37.2087 237.717 36.882 237.316 36.658C236.924 36.4247 236.49 36.308 236.014 36.308C235.538 36.308 235.104 36.42 234.712 36.644C234.32 36.868 234.007 37.1947 233.774 37.624C233.54 38.0533 233.424 38.5573 233.424 39.136C233.424 39.724 233.54 40.2373 233.774 40.676C234.007 41.1053 234.32 41.4367 234.712 41.67C235.104 41.894 235.538 42.006 236.014 42.006C236.49 42.006 236.924 41.894 237.316 41.67C237.717 41.4367 238.034 41.1053 238.268 40.676C238.501 40.2373 238.618 39.7287 238.618 39.15ZM245.274 43.126C244.686 43.126 244.159 43.028 243.692 42.832C243.226 42.6267 242.857 42.3467 242.586 41.992C242.316 41.628 242.166 41.2127 242.138 40.746H243.454C243.492 41.1287 243.669 41.4413 243.986 41.684C244.313 41.9267 244.738 42.048 245.26 42.048C245.746 42.048 246.128 41.9407 246.408 41.726C246.688 41.5113 246.828 41.2407 246.828 40.914C246.828 40.578 246.679 40.3307 246.38 40.172C246.082 40.004 245.62 39.8407 244.994 39.682C244.425 39.5327 243.958 39.3833 243.594 39.234C243.24 39.0753 242.932 38.8467 242.67 38.548C242.418 38.24 242.292 37.8387 242.292 37.344C242.292 36.952 242.409 36.5927 242.642 36.266C242.876 35.9393 243.207 35.6827 243.636 35.496C244.066 35.3 244.556 35.202 245.106 35.202C245.956 35.202 246.642 35.4167 247.164 35.846C247.687 36.2753 247.967 36.8633 248.004 37.61H246.73C246.702 37.2087 246.539 36.8867 246.24 36.644C245.951 36.4013 245.559 36.28 245.064 36.28C244.607 36.28 244.243 36.378 243.972 36.574C243.702 36.77 243.566 37.0267 243.566 37.344C243.566 37.596 243.646 37.806 243.804 37.974C243.972 38.1327 244.178 38.2633 244.42 38.366C244.672 38.4593 245.018 38.5667 245.456 38.688C246.007 38.8373 246.455 38.9867 246.8 39.136C247.146 39.276 247.44 39.4907 247.682 39.78C247.934 40.0693 248.065 40.4473 248.074 40.914C248.074 41.334 247.958 41.712 247.724 42.048C247.491 42.384 247.16 42.65 246.73 42.846C246.31 43.0327 245.825 43.126 245.274 43.126ZM249.897 39.136C249.897 38.352 250.056 37.666 250.373 37.078C250.69 36.4807 251.124 36.0187 251.675 35.692C252.235 35.3653 252.856 35.202 253.537 35.202C254.209 35.202 254.792 35.3467 255.287 35.636C255.782 35.9253 256.15 36.2893 256.393 36.728V35.328H257.681V43H256.393V41.572C256.141 42.02 255.763 42.3933 255.259 42.692C254.764 42.9813 254.186 43.126 253.523 43.126C252.842 43.126 252.226 42.958 251.675 42.622C251.124 42.286 250.69 41.8147 250.373 41.208C250.056 40.6013 249.897 39.9107 249.897 39.136ZM256.393 39.15C256.393 38.5713 256.276 38.0673 256.043 37.638C255.81 37.2087 255.492 36.882 255.091 36.658C254.699 36.4247 254.265 36.308 253.789 36.308C253.313 36.308 252.879 36.42 252.487 36.644C252.095 36.868 251.782 37.1947 251.549 37.624C251.316 38.0533 251.199 38.5573 251.199 39.136C251.199 39.724 251.316 40.2373 251.549 40.676C251.782 41.1053 252.095 41.4367 252.487 41.67C252.879 41.894 253.313 42.006 253.789 42.006C254.265 42.006 254.699 41.894 255.091 41.67C255.492 41.4367 255.81 41.1053 256.043 40.676C256.276 40.2373 256.393 39.7287 256.393 39.15ZM261.608 36.574C261.832 36.1353 262.149 35.7947 262.56 35.552C262.98 35.3093 263.489 35.188 264.086 35.188V36.504H263.75C262.322 36.504 261.608 37.2787 261.608 38.828V43H260.334V35.328H261.608V36.574Z" fill="#404852"/>
<circle cx="24" cy="24" r="24" fill="#32A7E2"/>
<path fill-rule="evenodd" clip-rule="evenodd" d="M20.8 28.8C19.92 28.8 19.208 29.52 19.208 30.4C19.208 31.28 19.92 32 20.8 32C21.68 32 22.4 31.28 22.4 30.4C22.4 29.52 21.68 28.8 20.8 28.8ZM16 16V17.6H17.6L20.48 23.672L19.4 25.632C19.272 25.856 19.2 26.12 19.2 26.4C19.2 27.28 19.92 28 20.8 28H30.4V26.4H21.136C21.024 26.4 20.936 26.312 20.936 26.2L20.96 26.104L21.68 24.8H27.64C28.24 24.8 28.768 24.472 29.04 23.976L31.904 18.784C31.968 18.672 32 18.536 32 18.4C32 17.96 31.64 17.6 31.2 17.6H19.368L18.616 16H16ZM28.8 28.8C27.92 28.8 27.208 29.52 27.208 30.4C27.208 31.28 27.92 32 28.8 32C29.68 32 30.4 31.28 30.4 30.4C30.4 29.52 29.68 28.8 28.8 28.8Z" fill="white"/>
<path d="M432.067 11.344V13.232H425.283V11.344H432.067ZM434.698 9.408C434.751 8.34133 435.125 7.52 435.818 6.944C436.522 6.35733 437.445 6.064 438.586 6.064C439.365 6.064 440.031 6.20267 440.586 6.48C441.141 6.74667 441.557 7.11467 441.834 7.584C442.122 8.04267 442.266 8.56533 442.266 9.152C442.266 9.824 442.09 10.3947 441.738 10.864C441.397 11.3227 440.986 11.632 440.506 11.792V11.856C441.125 12.048 441.605 12.3893 441.946 12.88C442.298 13.3707 442.474 14 442.474 14.768C442.474 15.408 442.325 15.9787 442.026 16.48C441.738 16.9813 441.306 17.376 440.73 17.664C440.165 17.9413 439.482 18.08 438.682 18.08C437.477 18.08 436.495 17.776 435.738 17.168C434.981 16.56 434.581 15.664 434.538 14.48H436.714C436.735 15.0027 436.911 15.424 437.242 15.744C437.583 16.0533 438.047 16.208 438.634 16.208C439.178 16.208 439.594 16.0587 439.882 15.76C440.181 15.4507 440.33 15.056 440.33 14.576C440.33 13.936 440.127 13.4773 439.722 13.2C439.317 12.9227 438.687 12.784 437.834 12.784H437.37V10.944H437.834C439.349 10.944 440.106 10.4373 440.106 9.424C440.106 8.96533 439.967 8.608 439.69 8.352C439.423 8.096 439.034 7.968 438.522 7.968C438.021 7.968 437.631 8.10667 437.354 8.384C437.087 8.65067 436.933 8.992 436.89 9.408H434.698ZM445.291 15.472C446.315 14.6187 447.131 13.9093 447.739 13.344C448.347 12.768 448.854 12.1707 449.259 11.552C449.664 10.9333 449.867 10.3253 449.867 9.728C449.867 9.184 449.739 8.75733 449.483 8.448C449.227 8.13867 448.832 7.984 448.299 7.984C447.766 7.984 447.355 8.16533 447.067 8.528C446.779 8.88 446.63 9.36533 446.619 9.984H444.443C444.486 8.704 444.864 7.73333 445.579 7.072C446.304 6.41067 447.222 6.08 448.331 6.08C449.547 6.08 450.48 6.40533 451.131 7.056C451.782 7.696 452.107 8.544 452.107 9.6C452.107 10.432 451.883 11.2267 451.435 11.984C450.987 12.7413 450.475 13.4027 449.899 13.968C449.323 14.5227 448.571 15.1947 447.643 15.984H452.363V17.84H444.459V16.176L445.291 15.472ZM460.165 9.248C460.059 8.8 459.872 8.464 459.605 8.24C459.349 8.016 458.976 7.904 458.485 7.904C457.749 7.904 457.205 8.20267 456.853 8.8C456.512 9.38667 456.336 10.3467 456.325 11.68C456.581 11.2533 456.955 10.9227 457.445 10.688C457.936 10.4427 458.469 10.32 459.045 10.32C459.739 10.32 460.352 10.4693 460.885 10.768C461.419 11.0667 461.835 11.504 462.133 12.08C462.432 12.6453 462.581 13.328 462.581 14.128C462.581 14.8853 462.427 15.5627 462.117 16.16C461.819 16.7467 461.376 17.2053 460.789 17.536C460.203 17.8667 459.504 18.032 458.693 18.032C457.584 18.032 456.709 17.7867 456.069 17.296C455.44 16.8053 454.997 16.1227 454.741 15.248C454.496 14.3627 454.373 13.2747 454.373 11.984C454.373 10.032 454.709 8.56 455.381 7.568C456.053 6.56533 457.115 6.064 458.565 6.064C459.685 6.064 460.555 6.368 461.173 6.976C461.792 7.584 462.149 8.34133 462.245 9.248H460.165ZM458.533 12.16C457.968 12.16 457.493 12.3253 457.109 12.656C456.725 12.9867 456.533 13.4667 456.533 14.096C456.533 14.7253 456.709 15.2213 457.061 15.584C457.424 15.9467 457.931 16.128 458.581 16.128C459.157 16.128 459.611 15.952 459.941 15.6C460.283 15.248 460.453 14.7733 460.453 14.176C460.453 13.5573 460.288 13.0667 459.957 12.704C459.637 12.3413 459.163 12.16 458.533 12.16ZM465.942 18.112C465.537 18.112 465.201 17.9893 464.934 17.744C464.678 17.488 464.55 17.1733 464.55 16.8C464.55 16.4267 464.678 16.1173 464.934 15.872C465.201 15.616 465.537 15.488 465.942 15.488C466.337 15.488 466.662 15.616 466.918 15.872C467.174 16.1173 467.302 16.4267 467.302 16.8C467.302 17.1733 467.174 17.488 466.918 17.744C466.662 17.9893 466.337 18.112 465.942 18.112ZM471.146 11.824C470.079 11.2693 469.546 10.4107 469.546 9.248C469.546 8.672 469.69 8.14933 469.978 7.68C470.276 7.2 470.719 6.82133 471.306 6.544C471.903 6.256 472.628 6.112 473.482 6.112C474.335 6.112 475.055 6.256 475.642 6.544C476.239 6.82133 476.682 7.2 476.97 7.68C477.268 8.14933 477.418 8.672 477.418 9.248C477.418 9.83467 477.274 10.352 476.986 10.8C476.698 11.2373 476.314 11.5787 475.834 11.824C476.42 12.08 476.879 12.4533 477.21 12.944C477.54 13.4347 477.706 14.016 477.706 14.688C477.706 15.4133 477.519 16.048 477.146 16.592C476.783 17.1253 476.282 17.536 475.642 17.824C475.002 18.112 474.282 18.256 473.482 18.256C472.682 18.256 471.962 18.112 471.322 17.824C470.692 17.536 470.191 17.1253 469.818 16.592C469.455 16.048 469.274 15.4133 469.274 14.688C469.274 14.016 469.439 13.4347 469.77 12.944C470.1 12.4427 470.559 12.0693 471.146 11.824ZM475.242 9.568C475.242 9.04533 475.082 8.64 474.762 8.352C474.452 8.064 474.026 7.92 473.482 7.92C472.948 7.92 472.522 8.064 472.202 8.352C471.892 8.64 471.738 9.05067 471.738 9.584C471.738 10.064 471.898 10.448 472.218 10.736C472.548 11.024 472.97 11.168 473.482 11.168C473.994 11.168 474.415 11.024 474.746 10.736C475.076 10.4373 475.242 10.048 475.242 9.568ZM473.482 12.8C472.874 12.8 472.378 12.9547 471.994 13.264C471.62 13.5733 471.434 14.016 471.434 14.592C471.434 15.1253 471.615 15.5627 471.978 15.904C472.351 16.2347 472.852 16.4 473.482 16.4C474.111 16.4 474.607 16.2293 474.97 15.888C475.332 15.5467 475.514 15.1147 475.514 14.592C475.514 14.0267 475.327 13.5893 474.954 13.28C474.58 12.96 474.09 12.8 473.482 12.8ZM479.818 12.016C479.818 10.1707 480.148 8.72533 480.81 7.68C481.482 6.63467 482.591 6.112 484.138 6.112C485.684 6.112 486.788 6.63467 487.45 7.68C488.122 8.72533 488.458 10.1707 488.458 12.016C488.458 13.872 488.122 15.328 487.45 16.384C486.788 17.44 485.684 17.968 484.138 17.968C482.591 17.968 481.482 17.44 480.81 16.384C480.148 15.328 479.818 13.872 479.818 12.016ZM486.25 12.016C486.25 11.2267 486.196 10.5653 486.09 10.032C485.994 9.488 485.791 9.04533 485.482 8.704C485.183 8.36267 484.735 8.192 484.138 8.192C483.54 8.192 483.087 8.36267 482.778 8.704C482.479 9.04533 482.276 9.488 482.17 10.032C482.074 10.5653 482.026 11.2267 482.026 12.016C482.026 12.8267 482.074 13.5093 482.17 14.064C482.266 14.608 482.468 15.0507 482.778 15.392C483.087 15.7227 483.54 15.888 484.138 15.888C484.735 15.888 485.188 15.7227 485.498 15.392C485.807 15.0507 486.01 14.608 486.106 14.064C486.202 13.5093 486.25 12.8267 486.25 12.016ZM490.504 12.016C490.504 10.1707 490.835 8.72533 491.496 7.68C492.168 6.63467 493.278 6.112 494.824 6.112C496.371 6.112 497.475 6.63467 498.136 7.68C498.808 8.72533 499.144 10.1707 499.144 12.016C499.144 13.872 498.808 15.328 498.136 16.384C497.475 17.44 496.371 17.968 494.824 17.968C493.278 17.968 492.168 17.44 491.496 16.384C490.835 15.328 490.504 13.872 490.504 12.016ZM496.936 12.016C496.936 11.2267 496.883 10.5653 496.776 10.032C496.68 9.488 496.478 9.04533 496.168 8.704C495.87 8.36267 495.422 8.192 494.824 8.192C494.227 8.192 493.774 8.36267 493.464 8.704C493.166 9.04533 492.963 9.488 492.856 10.032C492.76 10.5653 492.712 11.2267 492.712 12.016C492.712 12.8267 492.76 13.5093 492.856 14.064C492.952 14.608 493.155 15.0507 493.464 15.392C493.774 15.7227 494.227 15.888 494.824 15.888C495.422 15.888 495.875 15.7227 496.184 15.392C496.494 15.0507 496.696 14.608 496.792 14.064C496.888 13.5093 496.936 12.8267 496.936 12.016Z" fill="#273240"/>
</svg>
