<svg width="500" height="49" viewBox="0 0 500 49" fill="none" xmlns="http://www.w3.org/2000/svg">
<path d="M73.384 6.88V8.368H70.424V18H68.6V8.368H65.624V6.88H73.384ZM77.3981 10.464C77.6648 10.016 78.0168 9.66933 78.4541 9.424C78.9021 9.168 79.4301 9.04 80.0381 9.04V10.928H79.5741C78.8594 10.928 78.3154 11.1093 77.9421 11.472C77.5794 11.8347 77.3981 12.464 77.3981 13.36V18H75.5741V9.184H77.3981V10.464ZM81.4496 13.552C81.4496 12.6667 81.6309 11.8827 81.9936 11.2C82.3669 10.5173 82.8683 9.98933 83.4976 9.616C84.1376 9.232 84.8416 9.04 85.6096 9.04C86.3029 9.04 86.9056 9.17867 87.4176 9.456C87.9403 9.72267 88.3563 10.0587 88.6656 10.464V9.184H90.5056V18H88.6656V16.688C88.3563 17.104 87.9349 17.4507 87.4016 17.728C86.8683 18.0053 86.2603 18.144 85.5776 18.144C84.8203 18.144 84.1269 17.952 83.4976 17.568C82.8683 17.1733 82.3669 16.6293 81.9936 15.936C81.6309 15.232 81.4496 14.4373 81.4496 13.552ZM88.6656 13.584C88.6656 12.976 88.5376 12.448 88.2816 12C88.0363 11.552 87.7109 11.2107 87.3056 10.976C86.9003 10.7413 86.4629 10.624 85.9936 10.624C85.5243 10.624 85.0869 10.7413 84.6816 10.976C84.2763 11.2 83.9456 11.536 83.6896 11.984C83.4443 12.4213 83.3216 12.944 83.3216 13.552C83.3216 14.16 83.4443 14.6933 83.6896 15.152C83.9456 15.6107 84.2763 15.9627 84.6816 16.208C85.0976 16.4427 85.5349 16.56 85.9936 16.56C86.4629 16.56 86.9003 16.4427 87.3056 16.208C87.7109 15.9733 88.0363 15.632 88.2816 15.184C88.5376 14.7253 88.6656 14.192 88.6656 13.584ZM97.6922 9.04C98.3855 9.04 99.0042 9.184 99.5482 9.472C100.103 9.76 100.535 10.1867 100.844 10.752C101.154 11.3173 101.308 12 101.308 12.8V18H99.5002V13.072C99.5002 12.2827 99.3029 11.68 98.9082 11.264C98.5135 10.8373 97.9749 10.624 97.2922 10.624C96.6095 10.624 96.0655 10.8373 95.6602 11.264C95.2655 11.68 95.0682 12.2827 95.0682 13.072V18H93.2442V9.184H95.0682V10.192C95.3669 9.82933 95.7455 9.54667 96.2042 9.344C96.6735 9.14133 97.1695 9.04 97.6922 9.04ZM107.178 18.144C106.484 18.144 105.86 18.0213 105.306 17.776C104.762 17.52 104.33 17.1787 104.01 16.752C103.69 16.3147 103.519 15.8293 103.498 15.296H105.386C105.418 15.6693 105.594 15.984 105.914 16.24C106.244 16.4853 106.655 16.608 107.146 16.608C107.658 16.608 108.052 16.512 108.33 16.32C108.618 16.1173 108.762 15.8613 108.762 15.552C108.762 15.2213 108.602 14.976 108.282 14.816C107.972 14.656 107.476 14.48 106.794 14.288C106.132 14.1067 105.594 13.9307 105.178 13.76C104.762 13.5893 104.399 13.328 104.09 12.976C103.791 12.624 103.642 12.16 103.642 11.584C103.642 11.1147 103.78 10.688 104.058 10.304C104.335 9.90933 104.73 9.6 105.242 9.376C105.764 9.152 106.362 9.04 107.034 9.04C108.036 9.04 108.842 9.296 109.45 9.808C110.068 10.3093 110.399 10.9973 110.442 11.872H108.618C108.586 11.4773 108.426 11.1627 108.138 10.928C107.85 10.6933 107.46 10.576 106.97 10.576C106.49 10.576 106.122 10.6667 105.866 10.848C105.61 11.0293 105.482 11.2693 105.482 11.568C105.482 11.8027 105.567 12 105.738 12.16C105.908 12.32 106.116 12.448 106.362 12.544C106.607 12.6293 106.97 12.7413 107.45 12.88C108.09 13.0507 108.612 13.2267 109.018 13.408C109.434 13.5787 109.791 13.8347 110.09 14.176C110.388 14.5173 110.543 14.9707 110.554 15.536C110.554 16.0373 110.415 16.4853 110.138 16.88C109.86 17.2747 109.466 17.584 108.954 17.808C108.452 18.032 107.86 18.144 107.178 18.144ZM114.691 10.48C115.001 10.0747 115.422 9.73333 115.955 9.456C116.489 9.17867 117.091 9.04 117.763 9.04C118.531 9.04 119.23 9.232 119.859 9.616C120.499 9.98933 121.001 10.5173 121.363 11.2C121.726 11.8827 121.907 12.6667 121.907 13.552C121.907 14.4373 121.726 15.232 121.363 15.936C121.001 16.6293 120.499 17.1733 119.859 17.568C119.23 17.952 118.531 18.144 117.763 18.144C117.091 18.144 116.494 18.0107 115.971 17.744C115.449 17.4667 115.022 17.1253 114.691 16.72V22.192H112.867V9.184H114.691V10.48ZM120.051 13.552C120.051 12.944 119.923 12.4213 119.667 11.984C119.422 11.536 119.091 11.2 118.675 10.976C118.27 10.7413 117.833 10.624 117.363 10.624C116.905 10.624 116.467 10.7413 116.051 10.976C115.646 11.2107 115.315 11.552 115.059 12C114.814 12.448 114.691 12.976 114.691 13.584C114.691 14.192 114.814 14.7253 115.059 15.184C115.315 15.632 115.646 15.9733 116.051 16.208C116.467 16.4427 116.905 16.56 117.363 16.56C117.833 16.56 118.27 16.4427 118.675 16.208C119.091 15.9627 119.422 15.6107 119.667 15.152C119.923 14.6933 120.051 14.16 120.051 13.552ZM127.878 18.144C127.046 18.144 126.294 17.9573 125.622 17.584C124.95 17.2 124.422 16.6667 124.038 15.984C123.654 15.2907 123.462 14.4907 123.462 13.584C123.462 12.688 123.659 11.8933 124.054 11.2C124.449 10.5067 124.987 9.97333 125.67 9.6C126.353 9.22667 127.115 9.04 127.958 9.04C128.801 9.04 129.563 9.22667 130.246 9.6C130.929 9.97333 131.467 10.5067 131.862 11.2C132.257 11.8933 132.454 12.688 132.454 13.584C132.454 14.48 132.251 15.2747 131.846 15.968C131.441 16.6613 130.886 17.2 130.182 17.584C129.489 17.9573 128.721 18.144 127.878 18.144ZM127.878 16.56C128.347 16.56 128.785 16.448 129.19 16.224C129.606 16 129.942 15.664 130.198 15.216C130.454 14.768 130.582 14.224 130.582 13.584C130.582 12.944 130.459 12.4053 130.214 11.968C129.969 11.52 129.643 11.184 129.238 10.96C128.833 10.736 128.395 10.624 127.926 10.624C127.457 10.624 127.019 10.736 126.614 10.96C126.219 11.184 125.905 11.52 125.67 11.968C125.435 12.4053 125.318 12.944 125.318 13.584C125.318 14.5333 125.558 15.2693 126.038 15.792C126.529 16.304 127.142 16.56 127.878 16.56ZM136.424 10.464C136.691 10.016 137.043 9.66933 137.48 9.424C137.928 9.168 138.456 9.04 139.064 9.04V10.928H138.6C137.885 10.928 137.341 11.1093 136.968 11.472C136.605 11.8347 136.424 12.464 136.424 13.36V18H134.6V9.184H136.424V10.464ZM143.211 10.672V15.552C143.211 15.8827 143.286 16.1227 143.435 16.272C143.595 16.4107 143.862 16.48 144.235 16.48H145.355V18H143.915C143.094 18 142.465 17.808 142.027 17.424C141.59 17.04 141.371 16.416 141.371 15.552V10.672H140.331V9.184H141.371V6.992H143.211V9.184H145.355V10.672H143.211ZM146.771 13.552C146.771 12.6667 146.953 11.8827 147.315 11.2C147.689 10.5173 148.19 9.98933 148.819 9.616C149.459 9.232 150.163 9.04 150.931 9.04C151.625 9.04 152.227 9.17867 152.739 9.456C153.262 9.72267 153.678 10.0587 153.987 10.464V9.184H155.827V18H153.987V16.688C153.678 17.104 153.257 17.4507 152.723 17.728C152.19 18.0053 151.582 18.144 150.899 18.144C150.142 18.144 149.449 17.952 148.819 17.568C148.19 17.1733 147.689 16.6293 147.315 15.936C146.953 15.232 146.771 14.4373 146.771 13.552ZM153.987 13.584C153.987 12.976 153.859 12.448 153.603 12C153.358 11.552 153.033 11.2107 152.627 10.976C152.222 10.7413 151.785 10.624 151.315 10.624C150.846 10.624 150.409 10.7413 150.003 10.976C149.598 11.2 149.267 11.536 149.011 11.984C148.766 12.4213 148.643 12.944 148.643 13.552C148.643 14.16 148.766 14.6933 149.011 15.152C149.267 15.6107 149.598 15.9627 150.003 16.208C150.419 16.4427 150.857 16.56 151.315 16.56C151.785 16.56 152.222 16.4427 152.627 16.208C153.033 15.9733 153.358 15.632 153.603 15.184C153.859 14.7253 153.987 14.192 153.987 13.584ZM160.694 10.672V15.552C160.694 15.8827 160.769 16.1227 160.918 16.272C161.078 16.4107 161.345 16.48 161.718 16.48H162.838V18H161.398C160.577 18 159.947 17.808 159.51 17.424C159.073 17.04 158.854 16.416 158.854 15.552V10.672H157.814V9.184H158.854V6.992H160.694V9.184H162.838V10.672H160.694ZM165.79 8.016C165.459 8.016 165.182 7.904 164.958 7.68C164.734 7.456 164.622 7.17867 164.622 6.848C164.622 6.51733 164.734 6.24 164.958 6.016C165.182 5.792 165.459 5.68 165.79 5.68C166.11 5.68 166.382 5.792 166.606 6.016C166.83 6.24 166.942 6.51733 166.942 6.848C166.942 7.17867 166.83 7.456 166.606 7.68C166.382 7.904 166.11 8.016 165.79 8.016ZM166.686 9.184V18H164.862V9.184H166.686ZM173.248 18.144C172.416 18.144 171.664 17.9573 170.992 17.584C170.32 17.2 169.792 16.6667 169.408 15.984C169.024 15.2907 168.832 14.4907 168.832 13.584C168.832 12.688 169.029 11.8933 169.424 11.2C169.818 10.5067 170.357 9.97333 171.04 9.6C171.722 9.22667 172.485 9.04 173.328 9.04C174.17 9.04 174.933 9.22667 175.616 9.6C176.298 9.97333 176.837 10.5067 177.232 11.2C177.626 11.8933 177.824 12.688 177.824 13.584C177.824 14.48 177.621 15.2747 177.216 15.968C176.81 16.6613 176.256 17.2 175.552 17.584C174.858 17.9573 174.09 18.144 173.248 18.144ZM173.248 16.56C173.717 16.56 174.154 16.448 174.56 16.224C174.976 16 175.312 15.664 175.568 15.216C175.824 14.768 175.952 14.224 175.952 13.584C175.952 12.944 175.829 12.4053 175.584 11.968C175.338 11.52 175.013 11.184 174.608 10.96C174.202 10.736 173.765 10.624 173.296 10.624C172.826 10.624 172.389 10.736 171.984 10.96C171.589 11.184 171.274 11.52 171.04 11.968C170.805 12.4053 170.688 12.944 170.688 13.584C170.688 14.5333 170.928 15.2693 171.408 15.792C171.898 16.304 172.512 16.56 173.248 16.56ZM184.418 9.04C185.111 9.04 185.73 9.184 186.274 9.472C186.828 9.76 187.26 10.1867 187.57 10.752C187.879 11.3173 188.034 12 188.034 12.8V18H186.226V13.072C186.226 12.2827 186.028 11.68 185.634 11.264C185.239 10.8373 184.7 10.624 184.018 10.624C183.335 10.624 182.791 10.8373 182.386 11.264C181.991 11.68 181.794 12.2827 181.794 13.072V18H179.97V9.184H181.794V10.192C182.092 9.82933 182.471 9.54667 182.93 9.344C183.399 9.14133 183.895 9.04 184.418 9.04Z" fill="#273240"/>
<path opacity="0.5" d="M72.322 33.984H67.408V37.176C67.6227 36.8773 67.94 36.6347 68.36 36.448C68.78 36.252 69.2327 36.154 69.718 36.154C70.4927 36.154 71.1227 36.3173 71.608 36.644C72.0933 36.9613 72.4387 37.3767 72.644 37.89C72.8587 38.394 72.966 38.9307 72.966 39.5C72.966 40.172 72.84 40.774 72.588 41.306C72.336 41.838 71.9487 42.258 71.426 42.566C70.9127 42.874 70.2733 43.028 69.508 43.028C68.528 43.028 67.7347 42.776 67.128 42.272C66.5213 41.768 66.1527 41.096 66.022 40.256H67.268C67.3893 40.788 67.646 41.2033 68.038 41.502C68.43 41.8007 68.9247 41.95 69.522 41.95C70.2593 41.95 70.8147 41.7307 71.188 41.292C71.5613 40.844 71.748 40.256 71.748 39.528C71.748 38.8 71.5613 38.24 71.188 37.848C70.8147 37.4467 70.264 37.246 69.536 37.246C69.0413 37.246 68.6073 37.3673 68.234 37.61C67.87 37.8433 67.604 38.1653 67.436 38.576H66.232V32.864H72.322V33.984ZM75.775 43.084C75.5323 43.084 75.327 43 75.159 42.832C74.991 42.664 74.907 42.4587 74.907 42.216C74.907 41.9733 74.991 41.768 75.159 41.6C75.327 41.432 75.5323 41.348 75.775 41.348C76.0083 41.348 76.2043 41.432 76.363 41.6C76.531 41.768 76.615 41.9733 76.615 42.216C76.615 42.4587 76.531 42.664 76.363 42.832C76.2043 43 76.0083 43.084 75.775 43.084ZM75.775 37.092C75.5323 37.092 75.327 37.008 75.159 36.84C74.991 36.672 74.907 36.4667 74.907 36.224C74.907 35.9813 74.991 35.776 75.159 35.608C75.327 35.44 75.5323 35.356 75.775 35.356C76.0083 35.356 76.2043 35.44 76.363 35.608C76.531 35.776 76.615 35.9813 76.615 36.224C76.615 36.4667 76.531 36.672 76.363 36.84C76.2043 37.008 76.0083 37.092 75.775 37.092ZM78.3035 34.04V32.878H80.9355V43H79.6475V34.04H78.3035ZM83.4699 41.978C84.6552 41.026 85.5839 40.2467 86.2559 39.64C86.9279 39.024 87.4925 38.3847 87.9499 37.722C88.4165 37.05 88.6499 36.392 88.6499 35.748C88.6499 35.1413 88.5005 34.6653 88.2019 34.32C87.9125 33.9653 87.4412 33.788 86.7879 33.788C86.1532 33.788 85.6585 33.9887 85.3039 34.39C84.9585 34.782 84.7719 35.3093 84.7439 35.972H83.5119C83.5492 34.9267 83.8665 34.1193 84.4639 33.55C85.0612 32.9807 85.8312 32.696 86.7739 32.696C87.7352 32.696 88.4959 32.962 89.0559 33.494C89.6252 34.026 89.9099 34.7587 89.9099 35.692C89.9099 36.4667 89.6765 37.2227 89.2099 37.96C88.7525 38.688 88.2299 39.332 87.6419 39.892C87.0539 40.4427 86.3025 41.0867 85.3879 41.824H90.2039V42.888H83.4699V41.978ZM97.893 36.742C98.145 36.3033 98.5183 35.9393 99.013 35.65C99.517 35.3513 100.1 35.202 100.763 35.202C101.444 35.202 102.06 35.3653 102.611 35.692C103.171 36.0187 103.61 36.4807 103.927 37.078C104.244 37.666 104.403 38.352 104.403 39.136C104.403 39.9107 104.244 40.6013 103.927 41.208C103.61 41.8147 103.171 42.286 102.611 42.622C102.06 42.958 101.444 43.126 100.763 43.126C100.11 43.126 99.531 42.9813 99.027 42.692C98.5323 42.3933 98.1543 42.0247 97.893 41.586V46.64H96.619V35.328H97.893V36.742ZM103.101 39.136C103.101 38.5573 102.984 38.0533 102.751 37.624C102.518 37.1947 102.2 36.868 101.799 36.644C101.407 36.42 100.973 36.308 100.497 36.308C100.03 36.308 99.5963 36.4247 99.195 36.658C98.803 36.882 98.4857 37.2133 98.243 37.652C98.0097 38.0813 97.893 38.5807 97.893 39.15C97.893 39.7287 98.0097 40.2373 98.243 40.676C98.4857 41.1053 98.803 41.4367 99.195 41.67C99.5963 41.894 100.03 42.006 100.497 42.006C100.973 42.006 101.407 41.894 101.799 41.67C102.2 41.4367 102.518 41.1053 102.751 40.676C102.984 40.2373 103.101 39.724 103.101 39.136ZM115.806 35.188C116.403 35.188 116.935 35.314 117.402 35.566C117.869 35.8087 118.237 36.1773 118.508 36.672C118.779 37.1667 118.914 37.7687 118.914 38.478V43H117.654V38.66C117.654 37.8947 117.463 37.3113 117.08 36.91C116.707 36.4993 116.198 36.294 115.554 36.294C114.891 36.294 114.364 36.5087 113.972 36.938C113.58 37.358 113.384 37.9693 113.384 38.772V43H112.124V38.66C112.124 37.8947 111.933 37.3113 111.55 36.91C111.177 36.4993 110.668 36.294 110.024 36.294C109.361 36.294 108.834 36.5087 108.442 36.938C108.05 37.358 107.854 37.9693 107.854 38.772V43H106.58V35.328H107.854V36.434C108.106 36.0327 108.442 35.7247 108.862 35.51C109.291 35.2953 109.763 35.188 110.276 35.188C110.92 35.188 111.489 35.3327 111.984 35.622C112.479 35.9113 112.847 36.336 113.09 36.896C113.305 36.3547 113.659 35.9347 114.154 35.636C114.649 35.3373 115.199 35.188 115.806 35.188ZM131.761 40.046C131.285 40.046 130.879 39.8827 130.543 39.556C130.216 39.22 130.053 38.814 130.053 38.338C130.053 37.8527 130.216 37.4467 130.543 37.12C130.879 36.784 131.285 36.616 131.761 36.616C132.246 36.616 132.657 36.784 132.993 37.12C133.329 37.4467 133.497 37.8527 133.497 38.338C133.497 38.814 133.329 39.22 132.993 39.556C132.657 39.8827 132.246 40.046 131.761 40.046ZM152.375 43H151.101L145.977 35.23V43H144.703V33.228H145.977L151.101 40.984V33.228H152.375V43ZM154.571 39.136C154.571 38.352 154.729 37.666 155.047 37.078C155.364 36.4807 155.798 36.0187 156.349 35.692C156.909 35.3653 157.529 35.202 158.211 35.202C158.883 35.202 159.466 35.3467 159.961 35.636C160.455 35.9253 160.824 36.2893 161.067 36.728V35.328H162.355V43H161.067V41.572C160.815 42.02 160.437 42.3933 159.933 42.692C159.438 42.9813 158.859 43.126 158.197 43.126C157.515 43.126 156.899 42.958 156.349 42.622C155.798 42.286 155.364 41.8147 155.047 41.208C154.729 40.6013 154.571 39.9107 154.571 39.136ZM161.067 39.15C161.067 38.5713 160.95 38.0673 160.717 37.638C160.483 37.2087 160.166 36.882 159.765 36.658C159.373 36.4247 158.939 36.308 158.463 36.308C157.987 36.308 157.553 36.42 157.161 36.644C156.769 36.868 156.456 37.1947 156.223 37.624C155.989 38.0533 155.873 38.5573 155.873 39.136C155.873 39.724 155.989 40.2373 156.223 40.676C156.456 41.1053 156.769 41.4367 157.161 41.67C157.553 41.894 157.987 42.006 158.463 42.006C158.939 42.006 159.373 41.894 159.765 41.67C160.166 41.4367 160.483 41.1053 160.717 40.676C160.95 40.2373 161.067 39.7287 161.067 39.15ZM165.666 34.082C165.423 34.082 165.218 33.998 165.05 33.83C164.882 33.662 164.798 33.4567 164.798 33.214C164.798 32.9713 164.882 32.766 165.05 32.598C165.218 32.43 165.423 32.346 165.666 32.346C165.899 32.346 166.095 32.43 166.254 32.598C166.422 32.766 166.506 32.9713 166.506 33.214C166.506 33.4567 166.422 33.662 166.254 33.83C166.095 33.998 165.899 34.082 165.666 34.082ZM166.282 35.328V43H165.008V35.328H166.282ZM173.237 43L170.227 39.612V43H168.953V32.64H170.227V38.73L173.181 35.328H174.959L171.347 39.15L174.973 43H173.237ZM182.165 36.756C182.426 36.2987 182.809 35.9253 183.312 35.636C183.817 35.3467 184.391 35.202 185.035 35.202C185.725 35.202 186.346 35.3653 186.897 35.692C187.447 36.0187 187.881 36.4807 188.199 37.078C188.516 37.666 188.675 38.352 188.675 39.136C188.675 39.9107 188.516 40.6013 188.199 41.208C187.881 41.8147 187.442 42.286 186.882 42.622C186.332 42.958 185.716 43.126 185.035 43.126C184.372 43.126 183.789 42.9813 183.285 42.692C182.79 42.4027 182.417 42.034 182.165 41.586V43H180.891V32.64H182.165V36.756ZM187.373 39.136C187.373 38.5573 187.256 38.0533 187.023 37.624C186.789 37.1947 186.472 36.868 186.071 36.644C185.679 36.42 185.245 36.308 184.769 36.308C184.302 36.308 183.868 36.4247 183.467 36.658C183.075 36.882 182.757 37.2133 182.515 37.652C182.281 38.0813 182.165 38.5807 182.165 39.15C182.165 39.7287 182.281 40.2373 182.515 40.676C182.757 41.1053 183.075 41.4367 183.467 41.67C183.868 41.894 184.302 42.006 184.769 42.006C185.245 42.006 185.679 41.894 186.071 41.67C186.472 41.4367 186.789 41.1053 187.023 40.676C187.256 40.2373 187.373 39.724 187.373 39.136ZM197.655 35.328V43H196.381V41.866C196.139 42.258 195.798 42.566 195.359 42.79C194.93 43.0047 194.454 43.112 193.931 43.112C193.334 43.112 192.797 42.9907 192.321 42.748C191.845 42.496 191.467 42.1227 191.187 41.628C190.917 41.1333 190.781 40.5313 190.781 39.822V35.328H192.041V39.654C192.041 40.41 192.233 40.9933 192.615 41.404C192.998 41.8053 193.521 42.006 194.183 42.006C194.865 42.006 195.401 41.796 195.793 41.376C196.185 40.956 196.381 40.3447 196.381 39.542V35.328H197.655ZM203.023 43.126C202.435 43.126 201.907 43.028 201.441 42.832C200.974 42.6267 200.605 42.3467 200.335 41.992C200.064 41.628 199.915 41.2127 199.887 40.746H201.203C201.24 41.1287 201.417 41.4413 201.735 41.684C202.061 41.9267 202.486 42.048 203.009 42.048C203.494 42.048 203.877 41.9407 204.157 41.726C204.437 41.5113 204.577 41.2407 204.577 40.914C204.577 40.578 204.427 40.3307 204.129 40.172C203.83 40.004 203.368 39.8407 202.743 39.682C202.173 39.5327 201.707 39.3833 201.343 39.234C200.988 39.0753 200.68 38.8467 200.419 38.548C200.167 38.24 200.041 37.8387 200.041 37.344C200.041 36.952 200.157 36.5927 200.391 36.266C200.624 35.9393 200.955 35.6827 201.385 35.496C201.814 35.3 202.304 35.202 202.855 35.202C203.704 35.202 204.39 35.4167 204.913 35.846C205.435 36.2753 205.715 36.8633 205.753 37.61H204.479C204.451 37.2087 204.287 36.8867 203.989 36.644C203.699 36.4013 203.307 36.28 202.813 36.28C202.355 36.28 201.991 36.378 201.721 36.574C201.45 36.77 201.315 37.0267 201.315 37.344C201.315 37.596 201.394 37.806 201.553 37.974C201.721 38.1327 201.926 38.2633 202.169 38.366C202.421 38.4593 202.766 38.5667 203.205 38.688C203.755 38.8373 204.203 38.9867 204.549 39.136C204.894 39.276 205.188 39.4907 205.431 39.78C205.683 40.0693 205.813 40.4473 205.823 40.914C205.823 41.334 205.706 41.712 205.473 42.048C205.239 42.384 204.908 42.65 204.479 42.846C204.059 43.0327 203.573 43.126 203.023 43.126ZM219.157 35.328V43H217.883V41.866C217.641 42.258 217.3 42.566 216.861 42.79C216.432 43.0047 215.956 43.112 215.433 43.112C214.836 43.112 214.299 42.9907 213.823 42.748C213.347 42.496 212.969 42.1227 212.689 41.628C212.419 41.1333 212.283 40.5313 212.283 39.822V35.328H213.543V39.654C213.543 40.41 213.735 40.9933 214.117 41.404C214.5 41.8053 215.023 42.006 215.685 42.006C216.367 42.006 216.903 41.796 217.295 41.376C217.687 40.956 217.883 40.3447 217.883 39.542V35.328H219.157ZM231.034 35.188C231.632 35.188 232.164 35.314 232.63 35.566C233.097 35.8087 233.466 36.1773 233.736 36.672C234.007 37.1667 234.142 37.7687 234.142 38.478V43H232.882V38.66C232.882 37.8947 232.691 37.3113 232.308 36.91C231.935 36.4993 231.426 36.294 230.782 36.294C230.12 36.294 229.592 36.5087 229.2 36.938C228.808 37.358 228.612 37.9693 228.612 38.772V43H227.352V38.66C227.352 37.8947 227.161 37.3113 226.778 36.91C226.405 36.4993 225.896 36.294 225.252 36.294C224.59 36.294 224.062 36.5087 223.67 36.938C223.278 37.358 223.082 37.9693 223.082 38.772V43H221.808V35.328H223.082V36.434C223.334 36.0327 223.67 35.7247 224.09 35.51C224.52 35.2953 224.991 35.188 225.504 35.188C226.148 35.188 226.718 35.3327 227.212 35.622C227.707 35.9113 228.076 36.336 228.318 36.896C228.533 36.3547 228.888 35.9347 229.382 35.636C229.877 35.3373 230.428 35.188 231.034 35.188ZM243.536 35.328V43H242.262V41.866C242.02 42.258 241.679 42.566 241.24 42.79C240.811 43.0047 240.335 43.112 239.812 43.112C239.215 43.112 238.678 42.9907 238.202 42.748C237.726 42.496 237.348 42.1227 237.068 41.628C236.798 41.1333 236.662 40.5313 236.662 39.822V35.328H237.922V39.654C237.922 40.41 238.114 40.9933 238.496 41.404C238.879 41.8053 239.402 42.006 240.064 42.006C240.746 42.006 241.282 41.796 241.674 41.376C242.066 40.956 242.262 40.3447 242.262 39.542V35.328H243.536ZM255.413 35.188C256.011 35.188 256.543 35.314 257.009 35.566C257.476 35.8087 257.845 36.1773 258.115 36.672C258.386 37.1667 258.521 37.7687 258.521 38.478V43H257.261V38.66C257.261 37.8947 257.07 37.3113 256.687 36.91C256.314 36.4993 255.805 36.294 255.161 36.294C254.499 36.294 253.971 36.5087 253.579 36.938C253.187 37.358 252.991 37.9693 252.991 38.772V43H251.731V38.66C251.731 37.8947 251.54 37.3113 251.157 36.91C250.784 36.4993 250.275 36.294 249.631 36.294C248.969 36.294 248.441 36.5087 248.049 36.938C247.657 37.358 247.461 37.9693 247.461 38.772V43H246.187V35.328H247.461V36.434C247.713 36.0327 248.049 35.7247 248.469 35.51C248.899 35.2953 249.37 35.188 249.883 35.188C250.527 35.188 251.097 35.3327 251.591 35.622C252.086 35.9113 252.455 36.336 252.697 36.896C252.912 36.3547 253.267 35.9347 253.761 35.636C254.256 35.3373 254.807 35.188 255.413 35.188Z" fill="#404852"/>
<circle cx="24" cy="24" r="24" fill="#B548C6"/>
<path fill-rule="evenodd" clip-rule="evenodd" d="M17 27.7895C17 28.5305 17.3284 29.1958 17.8421 29.6589V31.1579C17.8421 31.6211 18.2211 32 18.6842 32H19.5263C19.9895 32 20.3684 31.6211 20.3684 31.1579V30.3158H27.1053V31.1579C27.1053 31.6211 27.4842 32 27.9474 32H28.7895C29.2526 32 29.6316 31.6211 29.6316 31.1579V29.6589C30.1453 29.1958 30.4737 28.5305 30.4737 27.7895V19.3684C30.4737 16.4211 27.4589 16 23.7368 16C20.0147 16 17 16.4211 17 19.3684V27.7895ZM19.9474 28.6316C19.2484 28.6316 18.6842 28.0674 18.6842 27.3684C18.6842 26.6695 19.2484 26.1053 19.9474 26.1053C20.6463 26.1053 21.2105 26.6695 21.2105 27.3684C21.2105 28.0674 20.6463 28.6316 19.9474 28.6316ZM27.5263 28.6316C26.8274 28.6316 26.2632 28.0674 26.2632 27.3684C26.2632 26.6695 26.8274 26.1053 27.5263 26.1053C28.2253 26.1053 28.7895 26.6695 28.7895 27.3684C28.7895 28.0674 28.2253 28.6316 27.5263 28.6316ZM28.7895 23.5789H18.6842V19.3684H28.7895V23.5789Z" fill="white"/>
<path d="M445.253 11.344V13.232H438.469V11.344H445.253ZM447.58 8.4V6.336H451.436V18H449.132V8.4H447.58ZM461.832 8.272H456.648V11.008C456.872 10.7307 457.192 10.5067 457.608 10.336C458.024 10.1547 458.467 10.064 458.936 10.064C459.79 10.064 460.488 10.2507 461.032 10.624C461.576 10.9973 461.971 11.4773 462.216 12.064C462.462 12.64 462.584 13.2587 462.584 13.92C462.584 15.1467 462.232 16.1333 461.528 16.88C460.835 17.6267 459.843 18 458.552 18C457.336 18 456.366 17.696 455.64 17.088C454.915 16.48 454.504 15.6853 454.408 14.704H456.584C456.68 15.1307 456.894 15.472 457.224 15.728C457.566 15.984 457.998 16.112 458.52 16.112C459.15 16.112 459.624 15.9147 459.944 15.52C460.264 15.1253 460.424 14.6027 460.424 13.952C460.424 13.2907 460.259 12.7893 459.928 12.448C459.608 12.096 459.134 11.92 458.504 11.92C458.056 11.92 457.683 12.032 457.384 12.256C457.086 12.48 456.872 12.7787 456.744 13.152H454.6V6.304H461.832V8.272ZM465.88 18.112C465.475 18.112 465.139 17.9893 464.872 17.744C464.616 17.488 464.488 17.1733 464.488 16.8C464.488 16.4267 464.616 16.1173 464.872 15.872C465.139 15.616 465.475 15.488 465.88 15.488C466.275 15.488 466.6 15.616 466.856 15.872C467.112 16.1173 467.24 16.4267 467.24 16.8C467.24 17.1733 467.112 17.488 466.856 17.744C466.6 17.9893 466.275 18.112 465.88 18.112ZM469.131 12.016C469.131 10.1707 469.462 8.72533 470.123 7.68C470.795 6.63467 471.904 6.112 473.451 6.112C474.998 6.112 476.102 6.63467 476.763 7.68C477.435 8.72533 477.771 10.1707 477.771 12.016C477.771 13.872 477.435 15.328 476.763 16.384C476.102 17.44 474.998 17.968 473.451 17.968C471.904 17.968 470.795 17.44 470.123 16.384C469.462 15.328 469.131 13.872 469.131 12.016ZM475.563 12.016C475.563 11.2267 475.51 10.5653 475.403 10.032C475.307 9.488 475.104 9.04533 474.795 8.704C474.496 8.36267 474.048 8.192 473.451 8.192C472.854 8.192 472.4 8.36267 472.091 8.704C471.792 9.04533 471.59 9.488 471.483 10.032C471.387 10.5653 471.339 11.2267 471.339 12.016C471.339 12.8267 471.387 13.5093 471.483 14.064C471.579 14.608 471.782 15.0507 472.091 15.392C472.4 15.7227 472.854 15.888 473.451 15.888C474.048 15.888 474.502 15.7227 474.811 15.392C475.12 15.0507 475.323 14.608 475.419 14.064C475.515 13.5093 475.563 12.8267 475.563 12.016ZM479.818 12.016C479.818 10.1707 480.148 8.72533 480.81 7.68C481.482 6.63467 482.591 6.112 484.138 6.112C485.684 6.112 486.788 6.63467 487.45 7.68C488.122 8.72533 488.458 10.1707 488.458 12.016C488.458 13.872 488.122 15.328 487.45 16.384C486.788 17.44 485.684 17.968 484.138 17.968C482.591 17.968 481.482 17.44 480.81 16.384C480.148 15.328 479.818 13.872 479.818 12.016ZM486.25 12.016C486.25 11.2267 486.196 10.5653 486.09 10.032C485.994 9.488 485.791 9.04533 485.482 8.704C485.183 8.36267 484.735 8.192 484.138 8.192C483.54 8.192 483.087 8.36267 482.778 8.704C482.479 9.04533 482.276 9.488 482.17 10.032C482.074 10.5653 482.026 11.2267 482.026 12.016C482.026 12.8267 482.074 13.5093 482.17 14.064C482.266 14.608 482.468 15.0507 482.778 15.392C483.087 15.7227 483.54 15.888 484.138 15.888C484.735 15.888 485.188 15.7227 485.498 15.392C485.807 15.0507 486.01 14.608 486.106 14.064C486.202 13.5093 486.25 12.8267 486.25 12.016ZM490.504 12.016C490.504 10.1707 490.835 8.72533 491.496 7.68C492.168 6.63467 493.278 6.112 494.824 6.112C496.371 6.112 497.475 6.63467 498.136 7.68C498.808 8.72533 499.144 10.1707 499.144 12.016C499.144 13.872 498.808 15.328 498.136 16.384C497.475 17.44 496.371 17.968 494.824 17.968C493.278 17.968 492.168 17.44 491.496 16.384C490.835 15.328 490.504 13.872 490.504 12.016ZM496.936 12.016C496.936 11.2267 496.883 10.5653 496.776 10.032C496.68 9.488 496.478 9.04533 496.168 8.704C495.87 8.36267 495.422 8.192 494.824 8.192C494.227 8.192 493.774 8.36267 493.464 8.704C493.166 9.04533 492.963 9.488 492.856 10.032C492.76 10.5653 492.712 11.2267 492.712 12.016C492.712 12.8267 492.76 13.5093 492.856 14.064C492.952 14.608 493.155 15.0507 493.464 15.392C493.774 15.7227 494.227 15.888 494.824 15.888C495.422 15.888 495.875 15.7227 496.184 15.392C496.494 15.0507 496.696 14.608 496.792 14.064C496.888 13.5093 496.936 12.8267 496.936 12.016Z" fill="#273240"/>
</svg>
