<svg width="500" height="49" viewBox="0 0 500 49" fill="none" xmlns="http://www.w3.org/2000/svg">
<path d="M75.08 6.88V18H73.256V13.136H68.024V18H66.2V6.88H68.024V11.648H73.256V6.88H75.08ZM81.6481 18.144C80.8161 18.144 80.0641 17.9573 79.3921 17.584C78.7201 17.2 78.1921 16.6667 77.8081 15.984C77.4241 15.2907 77.2321 14.4907 77.2321 13.584C77.2321 12.688 77.4294 11.8933 77.8241 11.2C78.2188 10.5067 78.7574 9.97333 79.4401 9.6C80.1228 9.22667 80.8854 9.04 81.7281 9.04C82.5708 9.04 83.3334 9.22667 84.0161 9.6C84.6988 9.97333 85.2374 10.5067 85.6321 11.2C86.0268 11.8933 86.2241 12.688 86.2241 13.584C86.2241 14.48 86.0214 15.2747 85.6161 15.968C85.2108 16.6613 84.6561 17.2 83.9521 17.584C83.2588 17.9573 82.4908 18.144 81.6481 18.144ZM81.6481 16.56C82.1174 16.56 82.5548 16.448 82.9601 16.224C83.3761 16 83.7121 15.664 83.9681 15.216C84.2241 14.768 84.3521 14.224 84.3521 13.584C84.3521 12.944 84.2294 12.4053 83.9841 11.968C83.7388 11.52 83.4134 11.184 83.0081 10.96C82.6028 10.736 82.1654 10.624 81.6961 10.624C81.2268 10.624 80.7894 10.736 80.3841 10.96C79.9894 11.184 79.6748 11.52 79.4401 11.968C79.2054 12.4053 79.0881 12.944 79.0881 13.584C79.0881 14.5333 79.3281 15.2693 79.8081 15.792C80.2988 16.304 80.9121 16.56 81.6481 16.56ZM96.3541 9.184V18H94.5301V16.96C94.2421 17.3227 93.8634 17.6107 93.3941 17.824C92.9354 18.0267 92.4448 18.128 91.9221 18.128C91.2288 18.128 90.6048 17.984 90.0501 17.696C89.5061 17.408 89.0741 16.9813 88.7541 16.416C88.4448 15.8507 88.2901 15.168 88.2901 14.368V9.184H90.0981V14.096C90.0981 14.8853 90.2954 15.4933 90.6901 15.92C91.0848 16.336 91.6234 16.544 92.3061 16.544C92.9888 16.544 93.5274 16.336 93.9221 15.92C94.3274 15.4933 94.5301 14.8853 94.5301 14.096V9.184H96.3541ZM102.304 18.144C101.61 18.144 100.986 18.0213 100.432 17.776C99.8876 17.52 99.4556 17.1787 99.1356 16.752C98.8156 16.3147 98.6449 15.8293 98.6236 15.296H100.512C100.544 15.6693 100.72 15.984 101.04 16.24C101.37 16.4853 101.781 16.608 102.272 16.608C102.784 16.608 103.178 16.512 103.456 16.32C103.744 16.1173 103.888 15.8613 103.888 15.552C103.888 15.2213 103.728 14.976 103.408 14.816C103.098 14.656 102.602 14.48 101.92 14.288C101.258 14.1067 100.72 13.9307 100.304 13.76C99.8876 13.5893 99.5249 13.328 99.2156 12.976C98.9169 12.624 98.7676 12.16 98.7676 11.584C98.7676 11.1147 98.9062 10.688 99.1836 10.304C99.4609 9.90933 99.8556 9.6 100.368 9.376C100.89 9.152 101.488 9.04 102.16 9.04C103.162 9.04 103.968 9.296 104.576 9.808C105.194 10.3093 105.525 10.9973 105.568 11.872H103.744C103.712 11.4773 103.552 11.1627 103.264 10.928C102.976 10.6933 102.586 10.576 102.096 10.576C101.616 10.576 101.248 10.6667 100.992 10.848C100.736 11.0293 100.608 11.2693 100.608 11.568C100.608 11.8027 100.693 12 100.864 12.16C101.034 12.32 101.242 12.448 101.488 12.544C101.733 12.6293 102.096 12.7413 102.576 12.88C103.216 13.0507 103.738 13.2267 104.144 13.408C104.56 13.5787 104.917 13.8347 105.216 14.176C105.514 14.5173 105.669 14.9707 105.68 15.536C105.68 16.0373 105.541 16.4853 105.264 16.88C104.986 17.2747 104.592 17.584 104.08 17.808C103.578 18.032 102.986 18.144 102.304 18.144ZM108.921 8.016C108.591 8.016 108.313 7.904 108.089 7.68C107.865 7.456 107.753 7.17867 107.753 6.848C107.753 6.51733 107.865 6.24 108.089 6.016C108.313 5.792 108.591 5.68 108.921 5.68C109.241 5.68 109.513 5.792 109.737 6.016C109.961 6.24 110.073 6.51733 110.073 6.848C110.073 7.17867 109.961 7.456 109.737 7.68C109.513 7.904 109.241 8.016 108.921 8.016ZM109.817 9.184V18H107.993V9.184H109.817ZM117.003 9.04C117.696 9.04 118.315 9.184 118.859 9.472C119.414 9.76 119.846 10.1867 120.155 10.752C120.464 11.3173 120.619 12 120.619 12.8V18H118.811V13.072C118.811 12.2827 118.614 11.68 118.219 11.264C117.824 10.8373 117.286 10.624 116.603 10.624C115.92 10.624 115.376 10.8373 114.971 11.264C114.576 11.68 114.379 12.2827 114.379 13.072V18H112.555V9.184H114.379V10.192C114.678 9.82933 115.056 9.54667 115.515 9.344C115.984 9.14133 116.48 9.04 117.003 9.04ZM126.84 9.04C127.523 9.04 128.126 9.17867 128.648 9.456C129.182 9.72267 129.598 10.0587 129.896 10.464V9.184H131.736V18.144C131.736 18.9547 131.566 19.6747 131.224 20.304C130.883 20.944 130.387 21.4453 129.736 21.808C129.096 22.1707 128.328 22.352 127.432 22.352C126.238 22.352 125.246 22.0693 124.456 21.504C123.667 20.9493 123.219 20.192 123.112 19.232H124.92C125.059 19.6907 125.352 20.0587 125.8 20.336C126.259 20.624 126.803 20.768 127.432 20.768C128.168 20.768 128.76 20.544 129.208 20.096C129.667 19.648 129.896 18.9973 129.896 18.144V16.672C129.587 17.088 129.166 17.44 128.632 17.728C128.11 18.0053 127.512 18.144 126.84 18.144C126.072 18.144 125.368 17.952 124.728 17.568C124.099 17.1733 123.598 16.6293 123.224 15.936C122.862 15.232 122.68 14.4373 122.68 13.552C122.68 12.6667 122.862 11.8827 123.224 11.2C123.598 10.5173 124.099 9.98933 124.728 9.616C125.368 9.232 126.072 9.04 126.84 9.04ZM129.896 13.584C129.896 12.976 129.768 12.448 129.512 12C129.267 11.552 128.942 11.2107 128.536 10.976C128.131 10.7413 127.694 10.624 127.224 10.624C126.755 10.624 126.318 10.7413 125.912 10.976C125.507 11.2 125.176 11.536 124.92 11.984C124.675 12.4213 124.552 12.944 124.552 13.552C124.552 14.16 124.675 14.6933 124.92 15.152C125.176 15.6107 125.507 15.9627 125.912 16.208C126.328 16.4427 126.766 16.56 127.224 16.56C127.694 16.56 128.131 16.4427 128.536 16.208C128.942 15.9733 129.267 15.632 129.512 15.184C129.768 14.7253 129.896 14.192 129.896 13.584Z" fill="#273240"/>
<path opacity="0.5" d="M72.322 33.984H67.408V37.176C67.6227 36.8773 67.94 36.6347 68.36 36.448C68.78 36.252 69.2327 36.154 69.718 36.154C70.4927 36.154 71.1227 36.3173 71.608 36.644C72.0933 36.9613 72.4387 37.3767 72.644 37.89C72.8587 38.394 72.966 38.9307 72.966 39.5C72.966 40.172 72.84 40.774 72.588 41.306C72.336 41.838 71.9487 42.258 71.426 42.566C70.9127 42.874 70.2733 43.028 69.508 43.028C68.528 43.028 67.7347 42.776 67.128 42.272C66.5213 41.768 66.1527 41.096 66.022 40.256H67.268C67.3893 40.788 67.646 41.2033 68.038 41.502C68.43 41.8007 68.9247 41.95 69.522 41.95C70.2593 41.95 70.8147 41.7307 71.188 41.292C71.5613 40.844 71.748 40.256 71.748 39.528C71.748 38.8 71.5613 38.24 71.188 37.848C70.8147 37.4467 70.264 37.246 69.536 37.246C69.0413 37.246 68.6073 37.3673 68.234 37.61C67.87 37.8433 67.604 38.1653 67.436 38.576H66.232V32.864H72.322V33.984ZM75.775 43.084C75.5323 43.084 75.327 43 75.159 42.832C74.991 42.664 74.907 42.4587 74.907 42.216C74.907 41.9733 74.991 41.768 75.159 41.6C75.327 41.432 75.5323 41.348 75.775 41.348C76.0083 41.348 76.2043 41.432 76.363 41.6C76.531 41.768 76.615 41.9733 76.615 42.216C76.615 42.4587 76.531 42.664 76.363 42.832C76.2043 43 76.0083 43.084 75.775 43.084ZM75.775 37.092C75.5323 37.092 75.327 37.008 75.159 36.84C74.991 36.672 74.907 36.4667 74.907 36.224C74.907 35.9813 74.991 35.776 75.159 35.608C75.327 35.44 75.5323 35.356 75.775 35.356C76.0083 35.356 76.2043 35.44 76.363 35.608C76.531 35.776 76.615 35.9813 76.615 36.224C76.615 36.4667 76.531 36.672 76.363 36.84C76.2043 37.008 76.0083 37.092 75.775 37.092ZM78.3035 34.04V32.878H80.9355V43H79.6475V34.04H78.3035ZM83.4699 41.978C84.6552 41.026 85.5839 40.2467 86.2559 39.64C86.9279 39.024 87.4925 38.3847 87.9499 37.722C88.4165 37.05 88.6499 36.392 88.6499 35.748C88.6499 35.1413 88.5005 34.6653 88.2019 34.32C87.9125 33.9653 87.4412 33.788 86.7879 33.788C86.1532 33.788 85.6585 33.9887 85.3039 34.39C84.9585 34.782 84.7719 35.3093 84.7439 35.972H83.5119C83.5492 34.9267 83.8665 34.1193 84.4639 33.55C85.0612 32.9807 85.8312 32.696 86.7739 32.696C87.7352 32.696 88.4959 32.962 89.0559 33.494C89.6252 34.026 89.9099 34.7587 89.9099 35.692C89.9099 36.4667 89.6765 37.2227 89.2099 37.96C88.7525 38.688 88.2299 39.332 87.6419 39.892C87.0539 40.4427 86.3025 41.0867 85.3879 41.824H90.2039V42.888H83.4699V41.978ZM97.893 36.742C98.145 36.3033 98.5183 35.9393 99.013 35.65C99.517 35.3513 100.1 35.202 100.763 35.202C101.444 35.202 102.06 35.3653 102.611 35.692C103.171 36.0187 103.61 36.4807 103.927 37.078C104.244 37.666 104.403 38.352 104.403 39.136C104.403 39.9107 104.244 40.6013 103.927 41.208C103.61 41.8147 103.171 42.286 102.611 42.622C102.06 42.958 101.444 43.126 100.763 43.126C100.11 43.126 99.531 42.9813 99.027 42.692C98.5323 42.3933 98.1543 42.0247 97.893 41.586V46.64H96.619V35.328H97.893V36.742ZM103.101 39.136C103.101 38.5573 102.984 38.0533 102.751 37.624C102.518 37.1947 102.2 36.868 101.799 36.644C101.407 36.42 100.973 36.308 100.497 36.308C100.03 36.308 99.5963 36.4247 99.195 36.658C98.803 36.882 98.4857 37.2133 98.243 37.652C98.0097 38.0813 97.893 38.5807 97.893 39.15C97.893 39.7287 98.0097 40.2373 98.243 40.676C98.4857 41.1053 98.803 41.4367 99.195 41.67C99.5963 41.894 100.03 42.006 100.497 42.006C100.973 42.006 101.407 41.894 101.799 41.67C102.2 41.4367 102.518 41.1053 102.751 40.676C102.984 40.2373 103.101 39.724 103.101 39.136ZM115.806 35.188C116.403 35.188 116.935 35.314 117.402 35.566C117.869 35.8087 118.237 36.1773 118.508 36.672C118.779 37.1667 118.914 37.7687 118.914 38.478V43H117.654V38.66C117.654 37.8947 117.463 37.3113 117.08 36.91C116.707 36.4993 116.198 36.294 115.554 36.294C114.891 36.294 114.364 36.5087 113.972 36.938C113.58 37.358 113.384 37.9693 113.384 38.772V43H112.124V38.66C112.124 37.8947 111.933 37.3113 111.55 36.91C111.177 36.4993 110.668 36.294 110.024 36.294C109.361 36.294 108.834 36.5087 108.442 36.938C108.05 37.358 107.854 37.9693 107.854 38.772V43H106.58V35.328H107.854V36.434C108.106 36.0327 108.442 35.7247 108.862 35.51C109.291 35.2953 109.763 35.188 110.276 35.188C110.92 35.188 111.489 35.3327 111.984 35.622C112.479 35.9113 112.847 36.336 113.09 36.896C113.305 36.3547 113.659 35.9347 114.154 35.636C114.649 35.3373 115.199 35.188 115.806 35.188ZM131.761 40.046C131.285 40.046 130.879 39.8827 130.543 39.556C130.216 39.22 130.053 38.814 130.053 38.338C130.053 37.8527 130.216 37.4467 130.543 37.12C130.879 36.784 131.285 36.616 131.761 36.616C132.246 36.616 132.657 36.784 132.993 37.12C133.329 37.4467 133.497 37.8527 133.497 38.338C133.497 38.814 133.329 39.22 132.993 39.556C132.657 39.8827 132.246 40.046 131.761 40.046ZM149.589 37.974C149.944 38.03 150.266 38.1747 150.555 38.408C150.854 38.6413 151.087 38.9307 151.255 39.276C151.432 39.6213 151.521 39.99 151.521 40.382C151.521 40.8767 151.395 41.3247 151.143 41.726C150.891 42.118 150.522 42.4307 150.037 42.664C149.561 42.888 148.996 43 148.343 43H144.703V33.242H148.203C148.866 33.242 149.43 33.354 149.897 33.578C150.364 33.7927 150.714 34.0867 150.947 34.46C151.18 34.8333 151.297 35.2533 151.297 35.72C151.297 36.2987 151.138 36.7793 150.821 37.162C150.513 37.5353 150.102 37.806 149.589 37.974ZM145.977 37.456H148.119C148.716 37.456 149.178 37.316 149.505 37.036C149.832 36.756 149.995 36.3687 149.995 35.874C149.995 35.3793 149.832 34.992 149.505 34.712C149.178 34.432 148.707 34.292 148.091 34.292H145.977V37.456ZM148.231 41.95C148.866 41.95 149.36 41.8007 149.715 41.502C150.07 41.2033 150.247 40.788 150.247 40.256C150.247 39.7147 150.06 39.29 149.687 38.982C149.314 38.6647 148.814 38.506 148.189 38.506H145.977V41.95H148.231ZM153.313 39.136C153.313 38.352 153.472 37.666 153.789 37.078C154.106 36.4807 154.54 36.0187 155.091 35.692C155.651 35.3653 156.272 35.202 156.953 35.202C157.625 35.202 158.208 35.3467 158.703 35.636C159.198 35.9253 159.566 36.2893 159.809 36.728V35.328H161.097V43H159.809V41.572C159.557 42.02 159.179 42.3933 158.675 42.692C158.18 42.9813 157.602 43.126 156.939 43.126C156.258 43.126 155.642 42.958 155.091 42.622C154.54 42.286 154.106 41.8147 153.789 41.208C153.472 40.6013 153.313 39.9107 153.313 39.136ZM159.809 39.15C159.809 38.5713 159.692 38.0673 159.459 37.638C159.226 37.2087 158.908 36.882 158.507 36.658C158.115 36.4247 157.681 36.308 157.205 36.308C156.729 36.308 156.295 36.42 155.903 36.644C155.511 36.868 155.198 37.1947 154.965 37.624C154.732 38.0533 154.615 38.5573 154.615 39.136C154.615 39.724 154.732 40.2373 154.965 40.676C155.198 41.1053 155.511 41.4367 155.903 41.67C156.295 41.894 156.729 42.006 157.205 42.006C157.681 42.006 158.115 41.894 158.507 41.67C158.908 41.4367 159.226 41.1053 159.459 40.676C159.692 40.2373 159.809 39.7287 159.809 39.15ZM170.358 35.328L165.738 46.612H164.422L165.934 42.916L162.84 35.328H164.254L166.662 41.544L169.042 35.328H170.358ZM171.663 39.136C171.663 38.352 171.821 37.666 172.139 37.078C172.456 36.4807 172.89 36.0187 173.441 35.692C174.001 35.3653 174.621 35.202 175.303 35.202C175.975 35.202 176.558 35.3467 177.053 35.636C177.547 35.9253 177.916 36.2893 178.159 36.728V35.328H179.447V43H178.159V41.572C177.907 42.02 177.529 42.3933 177.025 42.692C176.53 42.9813 175.951 43.126 175.289 43.126C174.607 43.126 173.991 42.958 173.441 42.622C172.89 42.286 172.456 41.8147 172.139 41.208C171.821 40.6013 171.663 39.9107 171.663 39.136ZM178.159 39.15C178.159 38.5713 178.042 38.0673 177.809 37.638C177.575 37.2087 177.258 36.882 176.857 36.658C176.465 36.4247 176.031 36.308 175.555 36.308C175.079 36.308 174.645 36.42 174.253 36.644C173.861 36.868 173.548 37.1947 173.315 37.624C173.081 38.0533 172.965 38.5573 172.965 39.136C172.965 39.724 173.081 40.2373 173.315 40.676C173.548 41.1053 173.861 41.4367 174.253 41.67C174.645 41.894 175.079 42.006 175.555 42.006C176.031 42.006 176.465 41.894 176.857 41.67C177.258 41.4367 177.575 41.1053 177.809 40.676C178.042 40.2373 178.159 39.7287 178.159 39.15ZM183.373 36.574C183.597 36.1353 183.915 35.7947 184.325 35.552C184.745 35.3093 185.254 35.188 185.851 35.188V36.504H185.515C184.087 36.504 183.373 37.2787 183.373 38.828V43H182.099V35.328H183.373V36.574ZM193.329 41.964H196.745V43H192.055V33.242H193.329V41.964ZM199.256 34.082C199.013 34.082 198.808 33.998 198.64 33.83C198.472 33.662 198.388 33.4567 198.388 33.214C198.388 32.9713 198.472 32.766 198.64 32.598C198.808 32.43 199.013 32.346 199.256 32.346C199.489 32.346 199.685 32.43 199.844 32.598C200.012 32.766 200.096 32.9713 200.096 33.214C200.096 33.4567 200.012 33.662 199.844 33.83C199.685 33.998 199.489 34.082 199.256 34.082ZM199.872 35.328V43H198.598V35.328H199.872ZM205.259 43.126C204.671 43.126 204.144 43.028 203.677 42.832C203.21 42.6267 202.842 42.3467 202.571 41.992C202.3 41.628 202.151 41.2127 202.123 40.746H203.439C203.476 41.1287 203.654 41.4413 203.971 41.684C204.298 41.9267 204.722 42.048 205.245 42.048C205.73 42.048 206.113 41.9407 206.393 41.726C206.673 41.5113 206.813 41.2407 206.813 40.914C206.813 40.578 206.664 40.3307 206.365 40.172C206.066 40.004 205.604 39.8407 204.979 39.682C204.41 39.5327 203.943 39.3833 203.579 39.234C203.224 39.0753 202.916 38.8467 202.655 38.548C202.403 38.24 202.277 37.8387 202.277 37.344C202.277 36.952 202.394 36.5927 202.627 36.266C202.86 35.9393 203.192 35.6827 203.621 35.496C204.05 35.3 204.54 35.202 205.091 35.202C205.94 35.202 206.626 35.4167 207.149 35.846C207.672 36.2753 207.952 36.8633 207.989 37.61H206.715C206.687 37.2087 206.524 36.8867 206.225 36.644C205.936 36.4013 205.544 36.28 205.049 36.28C204.592 36.28 204.228 36.378 203.957 36.574C203.686 36.77 203.551 37.0267 203.551 37.344C203.551 37.596 203.63 37.806 203.789 37.974C203.957 38.1327 204.162 38.2633 204.405 38.366C204.657 38.4593 205.002 38.5667 205.441 38.688C205.992 38.8373 206.44 38.9867 206.785 39.136C207.13 39.276 207.424 39.4907 207.667 39.78C207.919 40.0693 208.05 40.4473 208.059 40.914C208.059 41.334 207.942 41.712 207.709 42.048C207.476 42.384 207.144 42.65 206.715 42.846C206.295 43.0327 205.81 43.126 205.259 43.126ZM211.911 36.378V40.9C211.911 41.2733 211.991 41.5393 212.149 41.698C212.308 41.8473 212.583 41.922 212.975 41.922H213.913V43H212.765C212.056 43 211.524 42.8367 211.169 42.51C210.815 42.1833 210.637 41.6467 210.637 40.9V36.378H209.643V35.328H210.637V33.396H211.911V35.328H213.913V36.378H211.911ZM217.231 36.574C217.455 36.1353 217.772 35.7947 218.183 35.552C218.603 35.3093 219.112 35.188 219.709 35.188V36.504H219.373C217.945 36.504 217.231 37.2787 217.231 38.828V43H215.957V35.328H217.231V36.574ZM222.338 34.082C222.095 34.082 221.89 33.998 221.722 33.83C221.554 33.662 221.47 33.4567 221.47 33.214C221.47 32.9713 221.554 32.766 221.722 32.598C221.89 32.43 222.095 32.346 222.338 32.346C222.571 32.346 222.767 32.43 222.926 32.598C223.094 32.766 223.178 32.9713 223.178 33.214C223.178 33.4567 223.094 33.662 222.926 33.83C222.767 33.998 222.571 34.082 222.338 34.082ZM222.954 35.328V43H221.68V35.328H222.954ZM229.909 43L226.899 39.612V43H225.625V32.64H226.899V38.73L229.853 35.328H231.631L228.019 39.15L231.645 43H229.909Z" fill="#404852"/>
<circle cx="24" cy="24" r="24" fill="#FF8700"/>
<path fill-rule="evenodd" clip-rule="evenodd" d="M22.4 30.6V25.8H25.6V30.6H29.6V24.2H32L24 17L16 24.2H18.4V30.6H22.4Z" fill="white"/>
<path d="M436.254 11.344V13.232H429.47V11.344H436.254ZM438.581 8.4V6.336H442.437V18H440.133V8.4H438.581ZM446.945 11.824C445.878 11.2693 445.345 10.4107 445.345 9.248C445.345 8.672 445.489 8.14933 445.777 7.68C446.076 7.2 446.518 6.82133 447.105 6.544C447.702 6.256 448.428 6.112 449.281 6.112C450.134 6.112 450.854 6.256 451.441 6.544C452.038 6.82133 452.481 7.2 452.769 7.68C453.068 8.14933 453.217 8.672 453.217 9.248C453.217 9.83467 453.073 10.352 452.785 10.8C452.497 11.2373 452.113 11.5787 451.633 11.824C452.22 12.08 452.678 12.4533 453.009 12.944C453.34 13.4347 453.505 14.016 453.505 14.688C453.505 15.4133 453.318 16.048 452.945 16.592C452.582 17.1253 452.081 17.536 451.441 17.824C450.801 18.112 450.081 18.256 449.281 18.256C448.481 18.256 447.761 18.112 447.121 17.824C446.492 17.536 445.99 17.1253 445.617 16.592C445.254 16.048 445.073 15.4133 445.073 14.688C445.073 14.016 445.238 13.4347 445.569 12.944C445.9 12.4427 446.358 12.0693 446.945 11.824ZM451.041 9.568C451.041 9.04533 450.881 8.64 450.561 8.352C450.252 8.064 449.825 7.92 449.281 7.92C448.748 7.92 448.321 8.064 448.001 8.352C447.692 8.64 447.537 9.05067 447.537 9.584C447.537 10.064 447.697 10.448 448.017 10.736C448.348 11.024 448.769 11.168 449.281 11.168C449.793 11.168 450.214 11.024 450.545 10.736C450.876 10.4373 451.041 10.048 451.041 9.568ZM449.281 12.8C448.673 12.8 448.177 12.9547 447.793 13.264C447.42 13.5733 447.233 14.016 447.233 14.592C447.233 15.1253 447.414 15.5627 447.777 15.904C448.15 16.2347 448.652 16.4 449.281 16.4C449.91 16.4 450.406 16.2293 450.769 15.888C451.132 15.5467 451.313 15.1147 451.313 14.592C451.313 14.0267 451.126 13.5893 450.753 13.28C450.38 12.96 449.889 12.8 449.281 12.8ZM463.457 8.272H458.273V11.008C458.497 10.7307 458.817 10.5067 459.233 10.336C459.649 10.1547 460.092 10.064 460.561 10.064C461.415 10.064 462.113 10.2507 462.657 10.624C463.201 10.9973 463.596 11.4773 463.841 12.064C464.087 12.64 464.209 13.2587 464.209 13.92C464.209 15.1467 463.857 16.1333 463.153 16.88C462.46 17.6267 461.468 18 460.177 18C458.961 18 457.991 17.696 457.265 17.088C456.54 16.48 456.129 15.6853 456.033 14.704H458.209C458.305 15.1307 458.519 15.472 458.849 15.728C459.191 15.984 459.623 16.112 460.145 16.112C460.775 16.112 461.249 15.9147 461.569 15.52C461.889 15.1253 462.049 14.6027 462.049 13.952C462.049 13.2907 461.884 12.7893 461.553 12.448C461.233 12.096 460.759 11.92 460.129 11.92C459.681 11.92 459.308 12.032 459.009 12.256C458.711 12.48 458.497 12.7787 458.369 13.152H456.225V6.304H463.457V8.272ZM467.505 18.112C467.1 18.112 466.764 17.9893 466.497 17.744C466.241 17.488 466.113 17.1733 466.113 16.8C466.113 16.4267 466.241 16.1173 466.497 15.872C466.764 15.616 467.1 15.488 467.505 15.488C467.9 15.488 468.225 15.616 468.481 15.872C468.737 16.1173 468.865 16.4267 468.865 16.8C468.865 17.1733 468.737 17.488 468.481 17.744C468.225 17.9893 467.9 18.112 467.505 18.112ZM478.18 8.032L473.924 18H471.652L475.94 8.288H470.468V6.368H478.18V8.032ZM487.705 8.272H482.521V11.008C482.745 10.7307 483.065 10.5067 483.481 10.336C483.897 10.1547 484.339 10.064 484.809 10.064C485.662 10.064 486.361 10.2507 486.905 10.624C487.449 10.9973 487.843 11.4773 488.089 12.064C488.334 12.64 488.457 13.2587 488.457 13.92C488.457 15.1467 488.105 16.1333 487.401 16.88C486.707 17.6267 485.715 18 484.425 18C483.209 18 482.238 17.696 481.513 17.088C480.787 16.48 480.377 15.6853 480.281 14.704H482.457C482.553 15.1307 482.766 15.472 483.097 15.728C483.438 15.984 483.87 16.112 484.393 16.112C485.022 16.112 485.497 15.9147 485.817 15.52C486.137 15.1253 486.297 14.6027 486.297 13.952C486.297 13.2907 486.131 12.7893 485.801 12.448C485.481 12.096 485.006 11.92 484.377 11.92C483.929 11.92 483.555 12.032 483.257 12.256C482.958 12.48 482.745 12.7787 482.617 13.152H480.473V6.304H487.705V8.272ZM490.504 12.016C490.504 10.1707 490.835 8.72533 491.496 7.68C492.168 6.63467 493.278 6.112 494.824 6.112C496.371 6.112 497.475 6.63467 498.136 7.68C498.808 8.72533 499.144 10.1707 499.144 12.016C499.144 13.872 498.808 15.328 498.136 16.384C497.475 17.44 496.371 17.968 494.824 17.968C493.278 17.968 492.168 17.44 491.496 16.384C490.835 15.328 490.504 13.872 490.504 12.016ZM496.936 12.016C496.936 11.2267 496.883 10.5653 496.776 10.032C496.68 9.488 496.478 9.04533 496.168 8.704C495.87 8.36267 495.422 8.192 494.824 8.192C494.227 8.192 493.774 8.36267 493.464 8.704C493.166 9.04533 492.963 9.488 492.856 10.032C492.76 10.5653 492.712 11.2267 492.712 12.016C492.712 12.8267 492.76 13.5093 492.856 14.064C492.952 14.608 493.155 15.0507 493.464 15.392C493.774 15.7227 494.227 15.888 494.824 15.888C495.422 15.888 495.875 15.7227 496.184 15.392C496.494 15.0507 496.696 14.608 496.792 14.064C496.888 13.5093 496.936 12.8267 496.936 12.016Z" fill="#273240"/>
</svg>
