<svg width="500" height="49" viewBox="0 0 500 49" fill="none" xmlns="http://www.w3.org/2000/svg">
<path d="M72.744 6.88V8.368H68.024V11.648H71.704V13.136H68.024V18H66.2V6.88H72.744ZM78.6012 18.144C77.7692 18.144 77.0172 17.9573 76.3452 17.584C75.6732 17.2 75.1452 16.6667 74.7612 15.984C74.3772 15.2907 74.1852 14.4907 74.1852 13.584C74.1852 12.688 74.3826 11.8933 74.7772 11.2C75.1719 10.5067 75.7106 9.97333 76.3932 9.6C77.0759 9.22667 77.8386 9.04 78.6812 9.04C79.5239 9.04 80.2866 9.22667 80.9692 9.6C81.6519 9.97333 82.1906 10.5067 82.5852 11.2C82.9799 11.8933 83.1772 12.688 83.1772 13.584C83.1772 14.48 82.9746 15.2747 82.5692 15.968C82.1639 16.6613 81.6092 17.2 80.9052 17.584C80.2119 17.9573 79.4439 18.144 78.6012 18.144ZM78.6012 16.56C79.0706 16.56 79.5079 16.448 79.9132 16.224C80.3292 16 80.6652 15.664 80.9212 15.216C81.1772 14.768 81.3052 14.224 81.3052 13.584C81.3052 12.944 81.1826 12.4053 80.9372 11.968C80.6919 11.52 80.3666 11.184 79.9612 10.96C79.5559 10.736 79.1186 10.624 78.6492 10.624C78.1799 10.624 77.7426 10.736 77.3372 10.96C76.9426 11.184 76.6279 11.52 76.3932 11.968C76.1586 12.4053 76.0412 12.944 76.0412 13.584C76.0412 14.5333 76.2812 15.2693 76.7612 15.792C77.2519 16.304 77.8652 16.56 78.6012 16.56ZM89.1472 18.144C88.3152 18.144 87.5632 17.9573 86.8912 17.584C86.2192 17.2 85.6912 16.6667 85.3072 15.984C84.9232 15.2907 84.7312 14.4907 84.7312 13.584C84.7312 12.688 84.9285 11.8933 85.3232 11.2C85.7179 10.5067 86.2565 9.97333 86.9392 9.6C87.6219 9.22667 88.3845 9.04 89.2272 9.04C90.0699 9.04 90.8325 9.22667 91.5152 9.6C92.1979 9.97333 92.7365 10.5067 93.1312 11.2C93.5259 11.8933 93.7232 12.688 93.7232 13.584C93.7232 14.48 93.5205 15.2747 93.1152 15.968C92.7099 16.6613 92.1552 17.2 91.4512 17.584C90.7579 17.9573 89.9899 18.144 89.1472 18.144ZM89.1472 16.56C89.6165 16.56 90.0539 16.448 90.4592 16.224C90.8752 16 91.2112 15.664 91.4672 15.216C91.7232 14.768 91.8512 14.224 91.8512 13.584C91.8512 12.944 91.7285 12.4053 91.4832 11.968C91.2379 11.52 90.9125 11.184 90.5072 10.96C90.1019 10.736 89.6645 10.624 89.1952 10.624C88.7259 10.624 88.2885 10.736 87.8832 10.96C87.4885 11.184 87.1739 11.52 86.9392 11.968C86.7045 12.4053 86.5872 12.944 86.5872 13.584C86.5872 14.5333 86.8272 15.2693 87.3072 15.792C87.7979 16.304 88.4112 16.56 89.1472 16.56ZM95.2612 13.552C95.2612 12.6667 95.4425 11.8827 95.8052 11.2C96.1785 10.5173 96.6799 9.98933 97.3092 9.616C97.9492 9.232 98.6585 9.04 99.4372 9.04C100.013 9.04 100.579 9.168 101.133 9.424C101.699 9.66933 102.147 10 102.477 10.416V6.16H104.317V18H102.477V16.672C102.179 17.0987 101.763 17.4507 101.229 17.728C100.707 18.0053 100.104 18.144 99.4212 18.144C98.6532 18.144 97.9492 17.952 97.3092 17.568C96.6799 17.1733 96.1785 16.6293 95.8052 15.936C95.4425 15.232 95.2612 14.4373 95.2612 13.552ZM102.477 13.584C102.477 12.976 102.349 12.448 102.093 12C101.848 11.552 101.523 11.2107 101.117 10.976C100.712 10.7413 100.275 10.624 99.8052 10.624C99.3359 10.624 98.8985 10.7413 98.4932 10.976C98.0879 11.2 97.7572 11.536 97.5012 11.984C97.2559 12.4213 97.1332 12.944 97.1332 13.552C97.1332 14.16 97.2559 14.6933 97.5012 15.152C97.7572 15.6107 98.0879 15.9627 98.4932 16.208C98.9092 16.4427 99.3465 16.56 99.8052 16.56C100.275 16.56 100.712 16.4427 101.117 16.208C101.523 15.9733 101.848 15.632 102.093 15.184C102.349 14.7253 102.477 14.192 102.477 13.584ZM110.947 13.552C110.947 12.6667 111.128 11.8827 111.491 11.2C111.864 10.5173 112.366 9.98933 112.995 9.616C113.635 9.232 114.339 9.04 115.107 9.04C115.8 9.04 116.403 9.17867 116.915 9.456C117.438 9.72267 117.854 10.0587 118.163 10.464V9.184H120.003V18H118.163V16.688C117.854 17.104 117.432 17.4507 116.899 17.728C116.366 18.0053 115.758 18.144 115.075 18.144C114.318 18.144 113.624 17.952 112.995 17.568C112.366 17.1733 111.864 16.6293 111.491 15.936C111.128 15.232 110.947 14.4373 110.947 13.552ZM118.163 13.584C118.163 12.976 118.035 12.448 117.779 12C117.534 11.552 117.208 11.2107 116.803 10.976C116.398 10.7413 115.96 10.624 115.491 10.624C115.022 10.624 114.584 10.7413 114.179 10.976C113.774 11.2 113.443 11.536 113.187 11.984C112.942 12.4213 112.819 12.944 112.819 13.552C112.819 14.16 112.942 14.6933 113.187 15.152C113.443 15.6107 113.774 15.9627 114.179 16.208C114.595 16.4427 115.032 16.56 115.491 16.56C115.96 16.56 116.398 16.4427 116.803 16.208C117.208 15.9733 117.534 15.632 117.779 15.184C118.035 14.7253 118.163 14.192 118.163 13.584ZM127.19 9.04C127.883 9.04 128.502 9.184 129.046 9.472C129.6 9.76 130.032 10.1867 130.342 10.752C130.651 11.3173 130.806 12 130.806 12.8V18H128.998V13.072C128.998 12.2827 128.8 11.68 128.406 11.264C128.011 10.8373 127.472 10.624 126.79 10.624C126.107 10.624 125.563 10.8373 125.158 11.264C124.763 11.68 124.566 12.2827 124.566 13.072V18H122.742V9.184H124.566V10.192C124.864 9.82933 125.243 9.54667 125.702 9.344C126.171 9.14133 126.667 9.04 127.19 9.04ZM132.867 13.552C132.867 12.6667 133.048 11.8827 133.411 11.2C133.784 10.5173 134.286 9.98933 134.915 9.616C135.555 9.232 136.264 9.04 137.043 9.04C137.619 9.04 138.184 9.168 138.739 9.424C139.304 9.66933 139.752 10 140.083 10.416V6.16H141.923V18H140.083V16.672C139.784 17.0987 139.368 17.4507 138.835 17.728C138.312 18.0053 137.71 18.144 137.027 18.144C136.259 18.144 135.555 17.952 134.915 17.568C134.286 17.1733 133.784 16.6293 133.411 15.936C133.048 15.232 132.867 14.4373 132.867 13.552ZM140.083 13.584C140.083 12.976 139.955 12.448 139.699 12C139.454 11.552 139.128 11.2107 138.723 10.976C138.318 10.7413 137.88 10.624 137.411 10.624C136.942 10.624 136.504 10.7413 136.099 10.976C135.694 11.2 135.363 11.536 135.107 11.984C134.862 12.4213 134.739 12.944 134.739 13.552C134.739 14.16 134.862 14.6933 135.107 15.152C135.363 15.6107 135.694 15.9627 136.099 16.208C136.515 16.4427 136.952 16.56 137.411 16.56C137.88 16.56 138.318 16.4427 138.723 16.208C139.128 15.9733 139.454 15.632 139.699 15.184C139.955 14.7253 140.083 14.192 140.083 13.584ZM152.793 6.88C153.977 6.88 155.011 7.10933 155.897 7.568C156.793 8.016 157.481 8.66667 157.961 9.52C158.451 10.3627 158.697 11.3493 158.697 12.48C158.697 13.6107 158.451 14.592 157.961 15.424C157.481 16.256 156.793 16.896 155.897 17.344C155.011 17.7813 153.977 18 152.793 18H149.161V6.88H152.793ZM152.793 16.512C154.094 16.512 155.091 16.16 155.785 15.456C156.478 14.752 156.825 13.76 156.825 12.48C156.825 11.1893 156.478 10.1813 155.785 9.456C155.091 8.73067 154.094 8.368 152.793 8.368H150.985V16.512H152.793ZM162.671 10.464C162.938 10.016 163.29 9.66933 163.727 9.424C164.175 9.168 164.703 9.04 165.311 9.04V10.928H164.847C164.133 10.928 163.589 11.1093 163.215 11.472C162.853 11.8347 162.671 12.464 162.671 13.36V18H160.847V9.184H162.671V10.464ZM168.259 8.016C167.928 8.016 167.651 7.904 167.427 7.68C167.203 7.456 167.091 7.17867 167.091 6.848C167.091 6.51733 167.203 6.24 167.427 6.016C167.651 5.792 167.928 5.68 168.259 5.68C168.579 5.68 168.851 5.792 169.075 6.016C169.299 6.24 169.411 6.51733 169.411 6.848C169.411 7.17867 169.299 7.456 169.075 7.68C168.851 7.904 168.579 8.016 168.259 8.016ZM169.155 9.184V18H167.331V9.184H169.155ZM176.34 9.04C177.034 9.04 177.652 9.184 178.196 9.472C178.751 9.76 179.183 10.1867 179.492 10.752C179.802 11.3173 179.956 12 179.956 12.8V18H178.148V13.072C178.148 12.2827 177.951 11.68 177.556 11.264C177.162 10.8373 176.623 10.624 175.94 10.624C175.258 10.624 174.714 10.8373 174.308 11.264C173.914 11.68 173.716 12.2827 173.716 13.072V18H171.892V9.184H173.716V10.192C174.015 9.82933 174.394 9.54667 174.852 9.344C175.322 9.14133 175.818 9.04 176.34 9.04ZM186.114 13.6L190.178 18H187.714L184.45 14.208V18H182.626V6.16H184.45V13.04L187.65 9.184H190.178L186.114 13.6Z" fill="#273240"/>
<path opacity="0.5" d="M72.322 33.984H67.408V37.176C67.6227 36.8773 67.94 36.6347 68.36 36.448C68.78 36.252 69.2327 36.154 69.718 36.154C70.4927 36.154 71.1227 36.3173 71.608 36.644C72.0933 36.9613 72.4387 37.3767 72.644 37.89C72.8587 38.394 72.966 38.9307 72.966 39.5C72.966 40.172 72.84 40.774 72.588 41.306C72.336 41.838 71.9487 42.258 71.426 42.566C70.9127 42.874 70.2733 43.028 69.508 43.028C68.528 43.028 67.7347 42.776 67.128 42.272C66.5213 41.768 66.1527 41.096 66.022 40.256H67.268C67.3893 40.788 67.646 41.2033 68.038 41.502C68.43 41.8007 68.9247 41.95 69.522 41.95C70.2593 41.95 70.8147 41.7307 71.188 41.292C71.5613 40.844 71.748 40.256 71.748 39.528C71.748 38.8 71.5613 38.24 71.188 37.848C70.8147 37.4467 70.264 37.246 69.536 37.246C69.0413 37.246 68.6073 37.3673 68.234 37.61C67.87 37.8433 67.604 38.1653 67.436 38.576H66.232V32.864H72.322V33.984ZM75.775 43.084C75.5323 43.084 75.327 43 75.159 42.832C74.991 42.664 74.907 42.4587 74.907 42.216C74.907 41.9733 74.991 41.768 75.159 41.6C75.327 41.432 75.5323 41.348 75.775 41.348C76.0083 41.348 76.2043 41.432 76.363 41.6C76.531 41.768 76.615 41.9733 76.615 42.216C76.615 42.4587 76.531 42.664 76.363 42.832C76.2043 43 76.0083 43.084 75.775 43.084ZM75.775 37.092C75.5323 37.092 75.327 37.008 75.159 36.84C74.991 36.672 74.907 36.4667 74.907 36.224C74.907 35.9813 74.991 35.776 75.159 35.608C75.327 35.44 75.5323 35.356 75.775 35.356C76.0083 35.356 76.2043 35.44 76.363 35.608C76.531 35.776 76.615 35.9813 76.615 36.224C76.615 36.4667 76.531 36.672 76.363 36.84C76.2043 37.008 76.0083 37.092 75.775 37.092ZM78.3035 34.04V32.878H80.9355V43H79.6475V34.04H78.3035ZM83.4699 41.978C84.6552 41.026 85.5839 40.2467 86.2559 39.64C86.9279 39.024 87.4925 38.3847 87.9499 37.722C88.4165 37.05 88.6499 36.392 88.6499 35.748C88.6499 35.1413 88.5005 34.6653 88.2019 34.32C87.9125 33.9653 87.4412 33.788 86.7879 33.788C86.1532 33.788 85.6585 33.9887 85.3039 34.39C84.9585 34.782 84.7719 35.3093 84.7439 35.972H83.5119C83.5492 34.9267 83.8665 34.1193 84.4639 33.55C85.0612 32.9807 85.8312 32.696 86.7739 32.696C87.7352 32.696 88.4959 32.962 89.0559 33.494C89.6252 34.026 89.9099 34.7587 89.9099 35.692C89.9099 36.4667 89.6765 37.2227 89.2099 37.96C88.7525 38.688 88.2299 39.332 87.6419 39.892C87.0539 40.4427 86.3025 41.0867 85.3879 41.824H90.2039V42.888H83.4699V41.978ZM97.893 36.742C98.145 36.3033 98.5183 35.9393 99.013 35.65C99.517 35.3513 100.1 35.202 100.763 35.202C101.444 35.202 102.06 35.3653 102.611 35.692C103.171 36.0187 103.61 36.4807 103.927 37.078C104.244 37.666 104.403 38.352 104.403 39.136C104.403 39.9107 104.244 40.6013 103.927 41.208C103.61 41.8147 103.171 42.286 102.611 42.622C102.06 42.958 101.444 43.126 100.763 43.126C100.11 43.126 99.531 42.9813 99.027 42.692C98.5323 42.3933 98.1543 42.0247 97.893 41.586V46.64H96.619V35.328H97.893V36.742ZM103.101 39.136C103.101 38.5573 102.984 38.0533 102.751 37.624C102.518 37.1947 102.2 36.868 101.799 36.644C101.407 36.42 100.973 36.308 100.497 36.308C100.03 36.308 99.5963 36.4247 99.195 36.658C98.803 36.882 98.4857 37.2133 98.243 37.652C98.0097 38.0813 97.893 38.5807 97.893 39.15C97.893 39.7287 98.0097 40.2373 98.243 40.676C98.4857 41.1053 98.803 41.4367 99.195 41.67C99.5963 41.894 100.03 42.006 100.497 42.006C100.973 42.006 101.407 41.894 101.799 41.67C102.2 41.4367 102.518 41.1053 102.751 40.676C102.984 40.2373 103.101 39.724 103.101 39.136ZM115.806 35.188C116.403 35.188 116.935 35.314 117.402 35.566C117.869 35.8087 118.237 36.1773 118.508 36.672C118.779 37.1667 118.914 37.7687 118.914 38.478V43H117.654V38.66C117.654 37.8947 117.463 37.3113 117.08 36.91C116.707 36.4993 116.198 36.294 115.554 36.294C114.891 36.294 114.364 36.5087 113.972 36.938C113.58 37.358 113.384 37.9693 113.384 38.772V43H112.124V38.66C112.124 37.8947 111.933 37.3113 111.55 36.91C111.177 36.4993 110.668 36.294 110.024 36.294C109.361 36.294 108.834 36.5087 108.442 36.938C108.05 37.358 107.854 37.9693 107.854 38.772V43H106.58V35.328H107.854V36.434C108.106 36.0327 108.442 35.7247 108.862 35.51C109.291 35.2953 109.763 35.188 110.276 35.188C110.92 35.188 111.489 35.3327 111.984 35.622C112.479 35.9113 112.847 36.336 113.09 36.896C113.305 36.3547 113.659 35.9347 114.154 35.636C114.649 35.3373 115.199 35.188 115.806 35.188ZM131.761 40.046C131.285 40.046 130.879 39.8827 130.543 39.556C130.216 39.22 130.053 38.814 130.053 38.338C130.053 37.8527 130.216 37.4467 130.543 37.12C130.879 36.784 131.285 36.616 131.761 36.616C132.246 36.616 132.657 36.784 132.993 37.12C133.329 37.4467 133.497 37.8527 133.497 38.338C133.497 38.814 133.329 39.22 132.993 39.556C132.657 39.8827 132.246 40.046 131.761 40.046ZM154.601 33.312V43H153.327V35.776L150.107 43H149.211L145.977 35.762V43H144.703V33.312H146.075L149.659 41.32L153.243 33.312H154.601ZM156.786 39.136C156.786 38.352 156.944 37.666 157.262 37.078C157.579 36.4807 158.013 36.0187 158.564 35.692C159.124 35.3653 159.744 35.202 160.426 35.202C161.098 35.202 161.681 35.3467 162.176 35.636C162.67 35.9253 163.039 36.2893 163.282 36.728V35.328H164.57V43H163.282V41.572C163.03 42.02 162.652 42.3933 162.148 42.692C161.653 42.9813 161.074 43.126 160.412 43.126C159.73 43.126 159.114 42.958 158.564 42.622C158.013 42.286 157.579 41.8147 157.262 41.208C156.944 40.6013 156.786 39.9107 156.786 39.136ZM163.282 39.15C163.282 38.5713 163.165 38.0673 162.932 37.638C162.698 37.2087 162.381 36.882 161.98 36.658C161.588 36.4247 161.154 36.308 160.678 36.308C160.202 36.308 159.768 36.42 159.376 36.644C158.984 36.868 158.671 37.1947 158.438 37.624C158.204 38.0533 158.088 38.5573 158.088 39.136C158.088 39.724 158.204 40.2373 158.438 40.676C158.671 41.1053 158.984 41.4367 159.376 41.67C159.768 41.894 160.202 42.006 160.678 42.006C161.154 42.006 161.588 41.894 161.98 41.67C162.381 41.4367 162.698 41.1053 162.932 40.676C163.165 40.2373 163.282 39.7287 163.282 39.15ZM171.507 43L168.497 39.612V43H167.223V32.64H168.497V38.73L171.451 35.328H173.229L169.617 39.15L173.243 43H171.507ZM174.452 39.136C174.452 38.352 174.61 37.666 174.928 37.078C175.245 36.4807 175.679 36.0187 176.23 35.692C176.79 35.3653 177.41 35.202 178.092 35.202C178.764 35.202 179.347 35.3467 179.842 35.636C180.336 35.9253 180.705 36.2893 180.948 36.728V35.328H182.236V43H180.948V41.572C180.696 42.02 180.318 42.3933 179.814 42.692C179.319 42.9813 178.74 43.126 178.078 43.126C177.396 43.126 176.78 42.958 176.23 42.622C175.679 42.286 175.245 41.8147 174.928 41.208C174.61 40.6013 174.452 39.9107 174.452 39.136ZM180.948 39.15C180.948 38.5713 180.831 38.0673 180.598 37.638C180.364 37.2087 180.047 36.882 179.646 36.658C179.254 36.4247 178.82 36.308 178.344 36.308C177.868 36.308 177.434 36.42 177.042 36.644C176.65 36.868 176.337 37.1947 176.104 37.624C175.87 38.0533 175.754 38.5573 175.754 39.136C175.754 39.724 175.87 40.2373 176.104 40.676C176.337 41.1053 176.65 41.4367 177.042 41.67C177.434 41.894 177.868 42.006 178.344 42.006C178.82 42.006 179.254 41.894 179.646 41.67C180.047 41.4367 180.364 41.1053 180.598 40.676C180.831 40.2373 180.948 39.7287 180.948 39.15ZM188.627 35.188C189.56 35.188 190.316 35.4727 190.895 36.042C191.473 36.602 191.763 37.414 191.763 38.478V43H190.503V38.66C190.503 37.8947 190.311 37.3113 189.929 36.91C189.546 36.4993 189.023 36.294 188.361 36.294C187.689 36.294 187.152 36.504 186.751 36.924C186.359 37.344 186.163 37.9553 186.163 38.758V43H184.889V35.328H186.163V36.42C186.415 36.028 186.755 35.7247 187.185 35.51C187.623 35.2953 188.104 35.188 188.627 35.188ZM201.67 43.098C201.026 43.098 200.447 42.986 199.934 42.762C199.43 42.5287 199.033 42.2113 198.744 41.81C198.455 41.3993 198.305 40.928 198.296 40.396H199.654C199.701 40.8533 199.887 41.2407 200.214 41.558C200.55 41.866 201.035 42.02 201.67 42.02C202.277 42.02 202.753 41.8707 203.098 41.572C203.453 41.264 203.63 40.872 203.63 40.396C203.63 40.0227 203.527 39.7193 203.322 39.486C203.117 39.2527 202.86 39.0753 202.552 38.954C202.244 38.8327 201.829 38.702 201.306 38.562C200.662 38.394 200.144 38.226 199.752 38.058C199.369 37.89 199.038 37.6287 198.758 37.274C198.487 36.91 198.352 36.4247 198.352 35.818C198.352 35.286 198.487 34.8147 198.758 34.404C199.029 33.9933 199.407 33.676 199.892 33.452C200.387 33.228 200.951 33.116 201.586 33.116C202.501 33.116 203.247 33.3447 203.826 33.802C204.414 34.2593 204.745 34.866 204.82 35.622H203.42C203.373 35.2487 203.177 34.922 202.832 34.642C202.487 34.3527 202.029 34.208 201.46 34.208C200.928 34.208 200.494 34.348 200.158 34.628C199.822 34.8987 199.654 35.2813 199.654 35.776C199.654 36.1307 199.752 36.42 199.948 36.644C200.153 36.868 200.401 37.0407 200.69 37.162C200.989 37.274 201.404 37.4047 201.936 37.554C202.58 37.7313 203.098 37.9087 203.49 38.086C203.882 38.254 204.218 38.52 204.498 38.884C204.778 39.2387 204.918 39.724 204.918 40.34C204.918 40.816 204.792 41.264 204.54 41.684C204.288 42.104 203.915 42.4447 203.42 42.706C202.925 42.9673 202.342 43.098 201.67 43.098ZM208.847 36.378V40.9C208.847 41.2733 208.926 41.5393 209.085 41.698C209.244 41.8473 209.519 41.922 209.911 41.922H210.849V43H209.701C208.992 43 208.46 42.8367 208.105 42.51C207.75 42.1833 207.573 41.6467 207.573 40.9V36.378H206.579V35.328H207.573V33.396H208.847V35.328H210.849V36.378H208.847ZM219.892 38.87C219.892 39.1127 219.878 39.3693 219.85 39.64H213.718C213.765 40.396 214.022 40.9887 214.488 41.418C214.964 41.838 215.538 42.048 216.21 42.048C216.761 42.048 217.218 41.922 217.582 41.67C217.956 41.4087 218.217 41.0633 218.366 40.634H219.738C219.533 41.3713 219.122 41.9733 218.506 42.44C217.89 42.8973 217.125 43.126 216.21 43.126C215.482 43.126 214.829 42.9627 214.25 42.636C213.681 42.3093 213.233 41.8473 212.906 41.25C212.58 40.6433 212.416 39.9433 212.416 39.15C212.416 38.3567 212.575 37.6613 212.892 37.064C213.21 36.4667 213.653 36.0093 214.222 35.692C214.801 35.3653 215.464 35.202 216.21 35.202C216.938 35.202 217.582 35.3607 218.142 35.678C218.702 35.9953 219.132 36.434 219.43 36.994C219.738 37.5447 219.892 38.17 219.892 38.87ZM218.576 38.604C218.576 38.1187 218.469 37.7033 218.254 37.358C218.04 37.0033 217.746 36.7373 217.372 36.56C217.008 36.3733 216.602 36.28 216.154 36.28C215.51 36.28 214.96 36.4853 214.502 36.896C214.054 37.3067 213.798 37.876 213.732 38.604H218.576ZM221.598 39.136C221.598 38.352 221.757 37.666 222.074 37.078C222.391 36.4807 222.825 36.0187 223.376 35.692C223.936 35.3653 224.557 35.202 225.238 35.202C225.91 35.202 226.493 35.3467 226.988 35.636C227.483 35.9253 227.851 36.2893 228.094 36.728V35.328H229.382V43H228.094V41.572C227.842 42.02 227.464 42.3933 226.96 42.692C226.465 42.9813 225.887 43.126 225.224 43.126C224.543 43.126 223.927 42.958 223.376 42.622C222.825 42.286 222.391 41.8147 222.074 41.208C221.757 40.6013 221.598 39.9107 221.598 39.136ZM228.094 39.15C228.094 38.5713 227.977 38.0673 227.744 37.638C227.511 37.2087 227.193 36.882 226.792 36.658C226.4 36.4247 225.966 36.308 225.49 36.308C225.014 36.308 224.58 36.42 224.188 36.644C223.796 36.868 223.483 37.1947 223.25 37.624C223.017 38.0533 222.9 38.5573 222.9 39.136C222.9 39.724 223.017 40.2373 223.25 40.676C223.483 41.1053 223.796 41.4367 224.188 41.67C224.58 41.894 225.014 42.006 225.49 42.006C225.966 42.006 226.4 41.894 226.792 41.67C227.193 41.4367 227.511 41.1053 227.744 40.676C227.977 40.2373 228.094 39.7287 228.094 39.15ZM236.319 43L233.309 39.612V43H232.035V32.64H233.309V38.73L236.263 35.328H238.041L234.429 39.15L238.055 43H236.319Z" fill="#404852"/>
<circle cx="24" cy="24" r="24" fill="#DC3434"/>
<path fill-rule="evenodd" clip-rule="evenodd" d="M32.4013 28.7446H31.9798C31.4686 28.7446 31.4883 28.2573 31.4883 28.2573C31.4883 28.2573 31.485 28.2585 31.4841 28.2585C31.1996 25.3973 29.3357 23.0069 26.7749 21.9657C26.7676 21.9621 26.7625 21.9584 26.7552 21.955C26.3399 21.7734 26.3301 21.3666 26.3301 21.3666V20.2745C26.3301 19.571 25.7602 19 25.0558 19H22.7719C22.0682 19 21.4974 19.571 21.4974 20.2745V21.5288C21.4859 21.6339 21.4238 21.8086 21.1522 21.9235C21.1347 21.9311 21.1215 21.9385 21.1075 21.9449C18.525 22.972 16.6389 25.3661 16.3451 28.2385L16.3417 28.2374C16.3417 28.2374 16.2995 28.7446 15.8148 28.7446H15.4993C15.3993 28.7469 15 28.782 15 29.1936V29.5229C15.0059 29.664 15.0672 30 15.5294 30H32.2781C32.7361 30 32.8157 29.7037 32.8275 29.5552V29.22C32.8275 28.8242 32.5447 28.7544 32.4013 28.7446ZM25.4098 21.028C25.4073 21.1298 25.3685 21.5057 24.897 21.4619C24.8711 21.4593 24.854 21.4602 24.8365 21.461C24.5334 21.4236 24.2275 21.3986 23.9138 21.3986C23.557 21.3986 23.208 21.4332 22.8639 21.4818C22.84 21.4807 22.8124 21.4818 22.7784 21.4861C22.4042 21.5305 22.3387 21.296 22.3297 21.1757V20.595C22.3297 20.1463 22.6929 19.7825 23.142 19.7825H24.5978C25.0466 19.7825 25.4101 20.1463 25.4101 20.595V21.028H25.4098ZM28.8949 28.7384H28.2513C27.922 28.7384 27.8383 28.5616 27.8191 28.4378C27.8191 28.4083 27.8177 28.3678 27.816 28.32C27.7941 27.6739 27.6288 25.4567 26.4029 23.7028L26.4088 23.7025L26.2671 23.4624C26.2519 23.3741 26.2573 23.2456 26.4738 23.4258C27.5363 24.3413 29.1069 26.0848 29.1971 28.4648C29.1912 28.568 29.1454 28.7384 28.8949 28.7384Z" fill="white"/>
<path d="M434.676 11.344V13.232H427.892V11.344H434.676ZM437.003 8.4V6.336H440.859V18H438.555V8.4H437.003ZM451.255 8.272H446.071V11.008C446.295 10.7307 446.615 10.5067 447.031 10.336C447.447 10.1547 447.89 10.064 448.359 10.064C449.212 10.064 449.911 10.2507 450.455 10.624C450.999 10.9973 451.394 11.4773 451.639 12.064C451.884 12.64 452.007 13.2587 452.007 13.92C452.007 15.1467 451.655 16.1333 450.951 16.88C450.258 17.6267 449.266 18 447.975 18C446.759 18 445.788 17.696 445.063 17.088C444.338 16.48 443.927 15.6853 443.831 14.704H446.007C446.103 15.1307 446.316 15.472 446.647 15.728C446.988 15.984 447.42 16.112 447.943 16.112C448.572 16.112 449.047 15.9147 449.367 15.52C449.687 15.1253 449.847 14.6027 449.847 13.952C449.847 13.2907 449.682 12.7893 449.351 12.448C449.031 12.096 448.556 11.92 447.927 11.92C447.479 11.92 447.106 12.032 446.807 12.256C446.508 12.48 446.295 12.7787 446.167 13.152H444.023V6.304H451.255V8.272ZM460.103 9.248C459.996 8.8 459.809 8.464 459.543 8.24C459.287 8.016 458.913 7.904 458.423 7.904C457.687 7.904 457.143 8.20267 456.791 8.8C456.449 9.38667 456.273 10.3467 456.263 11.68C456.519 11.2533 456.892 10.9227 457.383 10.688C457.873 10.4427 458.407 10.32 458.983 10.32C459.676 10.32 460.289 10.4693 460.823 10.768C461.356 11.0667 461.772 11.504 462.071 12.08C462.369 12.6453 462.519 13.328 462.519 14.128C462.519 14.8853 462.364 15.5627 462.055 16.16C461.756 16.7467 461.313 17.2053 460.727 17.536C460.14 17.8667 459.441 18.032 458.631 18.032C457.521 18.032 456.647 17.7867 456.007 17.296C455.377 16.8053 454.935 16.1227 454.679 15.248C454.433 14.3627 454.311 13.2747 454.311 11.984C454.311 10.032 454.647 8.56 455.319 7.568C455.991 6.56533 457.052 6.064 458.503 6.064C459.623 6.064 460.492 6.368 461.111 6.976C461.729 7.584 462.087 8.34133 462.183 9.248H460.103ZM458.471 12.16C457.905 12.16 457.431 12.3253 457.047 12.656C456.663 12.9867 456.471 13.4667 456.471 14.096C456.471 14.7253 456.647 15.2213 456.999 15.584C457.361 15.9467 457.868 16.128 458.519 16.128C459.095 16.128 459.548 15.952 459.879 15.6C460.22 15.248 460.391 14.7733 460.391 14.176C460.391 13.5573 460.225 13.0667 459.895 12.704C459.575 12.3413 459.1 12.16 458.471 12.16ZM465.88 18.112C465.475 18.112 465.139 17.9893 464.872 17.744C464.616 17.488 464.488 17.1733 464.488 16.8C464.488 16.4267 464.616 16.1173 464.872 15.872C465.139 15.616 465.475 15.488 465.88 15.488C466.275 15.488 466.6 15.616 466.856 15.872C467.112 16.1173 467.24 16.4267 467.24 16.8C467.24 17.1733 467.112 17.488 466.856 17.744C466.6 17.9893 466.275 18.112 465.88 18.112ZM469.131 12.016C469.131 10.1707 469.462 8.72533 470.123 7.68C470.795 6.63467 471.904 6.112 473.451 6.112C474.998 6.112 476.102 6.63467 476.763 7.68C477.435 8.72533 477.771 10.1707 477.771 12.016C477.771 13.872 477.435 15.328 476.763 16.384C476.102 17.44 474.998 17.968 473.451 17.968C471.904 17.968 470.795 17.44 470.123 16.384C469.462 15.328 469.131 13.872 469.131 12.016ZM475.563 12.016C475.563 11.2267 475.51 10.5653 475.403 10.032C475.307 9.488 475.104 9.04533 474.795 8.704C474.496 8.36267 474.048 8.192 473.451 8.192C472.854 8.192 472.4 8.36267 472.091 8.704C471.792 9.04533 471.59 9.488 471.483 10.032C471.387 10.5653 471.339 11.2267 471.339 12.016C471.339 12.8267 471.387 13.5093 471.483 14.064C471.579 14.608 471.782 15.0507 472.091 15.392C472.4 15.7227 472.854 15.888 473.451 15.888C474.048 15.888 474.502 15.7227 474.811 15.392C475.12 15.0507 475.323 14.608 475.419 14.064C475.515 13.5093 475.563 12.8267 475.563 12.016ZM479.818 12.016C479.818 10.1707 480.148 8.72533 480.81 7.68C481.482 6.63467 482.591 6.112 484.138 6.112C485.684 6.112 486.788 6.63467 487.45 7.68C488.122 8.72533 488.458 10.1707 488.458 12.016C488.458 13.872 488.122 15.328 487.45 16.384C486.788 17.44 485.684 17.968 484.138 17.968C482.591 17.968 481.482 17.44 480.81 16.384C480.148 15.328 479.818 13.872 479.818 12.016ZM486.25 12.016C486.25 11.2267 486.196 10.5653 486.09 10.032C485.994 9.488 485.791 9.04533 485.482 8.704C485.183 8.36267 484.735 8.192 484.138 8.192C483.54 8.192 483.087 8.36267 482.778 8.704C482.479 9.04533 482.276 9.488 482.17 10.032C482.074 10.5653 482.026 11.2267 482.026 12.016C482.026 12.8267 482.074 13.5093 482.17 14.064C482.266 14.608 482.468 15.0507 482.778 15.392C483.087 15.7227 483.54 15.888 484.138 15.888C484.735 15.888 485.188 15.7227 485.498 15.392C485.807 15.0507 486.01 14.608 486.106 14.064C486.202 13.5093 486.25 12.8267 486.25 12.016ZM490.504 12.016C490.504 10.1707 490.835 8.72533 491.496 7.68C492.168 6.63467 493.278 6.112 494.824 6.112C496.371 6.112 497.475 6.63467 498.136 7.68C498.808 8.72533 499.144 10.1707 499.144 12.016C499.144 13.872 498.808 15.328 498.136 16.384C497.475 17.44 496.371 17.968 494.824 17.968C493.278 17.968 492.168 17.44 491.496 16.384C490.835 15.328 490.504 13.872 490.504 12.016ZM496.936 12.016C496.936 11.2267 496.883 10.5653 496.776 10.032C496.68 9.488 496.478 9.04533 496.168 8.704C495.87 8.36267 495.422 8.192 494.824 8.192C494.227 8.192 493.774 8.36267 493.464 8.704C493.166 9.04533 492.963 9.488 492.856 10.032C492.76 10.5653 492.712 11.2267 492.712 12.016C492.712 12.8267 492.76 13.5093 492.856 14.064C492.952 14.608 493.155 15.0507 493.464 15.392C493.774 15.7227 494.227 15.888 494.824 15.888C495.422 15.888 495.875 15.7227 496.184 15.392C496.494 15.0507 496.696 14.608 496.792 14.064C496.888 13.5093 496.936 12.8267 496.936 12.016Z" fill="#273240"/>
</svg>
