<svg width="500" height="49" viewBox="0 0 500 49" fill="none" xmlns="http://www.w3.org/2000/svg">
<path d="M68.024 8.352V11.616H71.864V13.104H68.024V16.512H72.344V18H66.2V6.864H72.344V8.352H68.024ZM79.3815 9.04C80.0748 9.04 80.6935 9.184 81.2375 9.472C81.7921 9.76 82.2241 10.1867 82.5335 10.752C82.8428 11.3173 82.9975 12 82.9975 12.8V18H81.1895V13.072C81.1895 12.2827 80.9921 11.68 80.5975 11.264C80.2028 10.8373 79.6641 10.624 78.9815 10.624C78.2988 10.624 77.7548 10.8373 77.3495 11.264C76.9548 11.68 76.7575 12.2827 76.7575 13.072V18H74.9335V9.184H76.7575V10.192C77.0561 9.82933 77.4348 9.54667 77.8935 9.344C78.3628 9.14133 78.8588 9.04 79.3815 9.04ZM87.795 10.672V15.552C87.795 15.8827 87.8696 16.1227 88.019 16.272C88.179 16.4107 88.4456 16.48 88.819 16.48H89.939V18H88.499C87.6776 18 87.0483 17.808 86.611 17.424C86.1736 17.04 85.955 16.416 85.955 15.552V10.672H84.915V9.184H85.955V6.992H87.795V9.184H89.939V10.672H87.795ZM100.043 13.376C100.043 13.7067 100.022 14.0053 99.9789 14.272H93.2429C93.2963 14.976 93.5576 15.5413 94.0269 15.968C94.4963 16.3947 95.0723 16.608 95.7549 16.608C96.7363 16.608 97.4296 16.1973 97.8349 15.376H99.8029C99.5363 16.1867 99.0509 16.8533 98.3469 17.376C97.6536 17.888 96.7896 18.144 95.7549 18.144C94.9123 18.144 94.1549 17.9573 93.4829 17.584C92.8216 17.2 92.2989 16.6667 91.9149 15.984C91.5416 15.2907 91.3549 14.4907 91.3549 13.584C91.3549 12.6773 91.5363 11.8827 91.8989 11.2C92.2723 10.5067 92.7896 9.97333 93.4509 9.6C94.1229 9.22667 94.8909 9.04 95.7549 9.04C96.5869 9.04 97.3283 9.22133 97.9789 9.584C98.6296 9.94667 99.1363 10.4587 99.4989 11.12C99.8616 11.7707 100.043 12.5227 100.043 13.376ZM98.1389 12.8C98.1283 12.128 97.8883 11.5893 97.4189 11.184C96.9496 10.7787 96.3683 10.576 95.6749 10.576C95.0456 10.576 94.5069 10.7787 94.0589 11.184C93.6109 11.5787 93.3443 12.1173 93.2589 12.8H98.1389ZM104.005 10.464C104.271 10.016 104.623 9.66933 105.061 9.424C105.509 9.168 106.037 9.04 106.645 9.04V10.928H106.181C105.466 10.928 104.922 11.1093 104.549 11.472C104.186 11.8347 104.005 12.464 104.005 13.36V18H102.181V9.184H104.005V10.464ZM110.792 10.672V15.552C110.792 15.8827 110.867 16.1227 111.016 16.272C111.176 16.4107 111.443 16.48 111.816 16.48H112.936V18H111.496C110.675 18 110.046 17.808 109.608 17.424C109.171 17.04 108.952 16.416 108.952 15.552V10.672H107.912V9.184H108.952V6.992H110.792V9.184H112.936V10.672H110.792ZM114.352 13.552C114.352 12.6667 114.534 11.8827 114.896 11.2C115.27 10.5173 115.771 9.98933 116.4 9.616C117.04 9.232 117.744 9.04 118.512 9.04C119.206 9.04 119.808 9.17867 120.32 9.456C120.843 9.72267 121.259 10.0587 121.568 10.464V9.184H123.408V18H121.568V16.688C121.259 17.104 120.838 17.4507 120.304 17.728C119.771 18.0053 119.163 18.144 118.48 18.144C117.723 18.144 117.03 17.952 116.4 17.568C115.771 17.1733 115.27 16.6293 114.896 15.936C114.534 15.232 114.352 14.4373 114.352 13.552ZM121.568 13.584C121.568 12.976 121.44 12.448 121.184 12C120.939 11.552 120.614 11.2107 120.208 10.976C119.803 10.7413 119.366 10.624 118.896 10.624C118.427 10.624 117.99 10.7413 117.584 10.976C117.179 11.2 116.848 11.536 116.592 11.984C116.347 12.4213 116.224 12.944 116.224 13.552C116.224 14.16 116.347 14.6933 116.592 15.152C116.848 15.6107 117.179 15.9627 117.584 16.208C118 16.4427 118.438 16.56 118.896 16.56C119.366 16.56 119.803 16.4427 120.208 16.208C120.614 15.9733 120.939 15.632 121.184 15.184C121.44 14.7253 121.568 14.192 121.568 13.584ZM127.075 8.016C126.744 8.016 126.467 7.904 126.243 7.68C126.019 7.456 125.907 7.17867 125.907 6.848C125.907 6.51733 126.019 6.24 126.243 6.016C126.467 5.792 126.744 5.68 127.075 5.68C127.395 5.68 127.667 5.792 127.891 6.016C128.115 6.24 128.227 6.51733 128.227 6.848C128.227 7.17867 128.115 7.456 127.891 7.68C127.667 7.904 127.395 8.016 127.075 8.016ZM127.971 9.184V18H126.147V9.184H127.971ZM135.156 9.04C135.85 9.04 136.468 9.184 137.012 9.472C137.567 9.76 137.999 10.1867 138.308 10.752C138.618 11.3173 138.772 12 138.772 12.8V18H136.964V13.072C136.964 12.2827 136.767 11.68 136.372 11.264C135.978 10.8373 135.439 10.624 134.756 10.624C134.074 10.624 133.53 10.8373 133.124 11.264C132.73 11.68 132.532 12.2827 132.532 13.072V18H130.708V9.184H132.532V10.192C132.831 9.82933 133.21 9.54667 133.668 9.344C134.138 9.14133 134.634 9.04 135.156 9.04ZM152.114 9.04C152.807 9.04 153.426 9.184 153.97 9.472C154.525 9.76 154.957 10.1867 155.266 10.752C155.586 11.3173 155.746 12 155.746 12.8V18H153.938V13.072C153.938 12.2827 153.741 11.68 153.346 11.264C152.951 10.8373 152.413 10.624 151.73 10.624C151.047 10.624 150.503 10.8373 150.098 11.264C149.703 11.68 149.506 12.2827 149.506 13.072V18H147.698V13.072C147.698 12.2827 147.501 11.68 147.106 11.264C146.711 10.8373 146.173 10.624 145.49 10.624C144.807 10.624 144.263 10.8373 143.858 11.264C143.463 11.68 143.266 12.2827 143.266 13.072V18H141.442V9.184H143.266V10.192C143.565 9.82933 143.943 9.54667 144.402 9.344C144.861 9.14133 145.351 9.04 145.874 9.04C146.578 9.04 147.207 9.18933 147.762 9.488C148.317 9.78667 148.743 10.2187 149.042 10.784C149.309 10.2507 149.725 9.82933 150.29 9.52C150.855 9.2 151.463 9.04 152.114 9.04ZM166.49 13.376C166.49 13.7067 166.468 14.0053 166.426 14.272H159.69C159.743 14.976 160.004 15.5413 160.474 15.968C160.943 16.3947 161.519 16.608 162.202 16.608C163.183 16.608 163.876 16.1973 164.282 15.376H166.25C165.983 16.1867 165.498 16.8533 164.794 17.376C164.1 17.888 163.236 18.144 162.202 18.144C161.359 18.144 160.602 17.9573 159.93 17.584C159.268 17.2 158.746 16.6667 158.362 15.984C157.988 15.2907 157.802 14.4907 157.802 13.584C157.802 12.6773 157.983 11.8827 158.346 11.2C158.719 10.5067 159.236 9.97333 159.898 9.6C160.57 9.22667 161.338 9.04 162.202 9.04C163.034 9.04 163.775 9.22133 164.426 9.584C165.076 9.94667 165.583 10.4587 165.946 11.12C166.308 11.7707 166.49 12.5227 166.49 13.376ZM164.586 12.8C164.575 12.128 164.335 11.5893 163.866 11.184C163.396 10.7787 162.815 10.576 162.122 10.576C161.492 10.576 160.954 10.7787 160.506 11.184C160.058 11.5787 159.791 12.1173 159.706 12.8H164.586ZM173.076 9.04C173.769 9.04 174.388 9.184 174.932 9.472C175.486 9.76 175.918 10.1867 176.228 10.752C176.537 11.3173 176.692 12 176.692 12.8V18H174.884V13.072C174.884 12.2827 174.686 11.68 174.292 11.264C173.897 10.8373 173.358 10.624 172.676 10.624C171.993 10.624 171.449 10.8373 171.044 11.264C170.649 11.68 170.452 12.2827 170.452 13.072V18H168.628V9.184H170.452V10.192C170.75 9.82933 171.129 9.54667 171.588 9.344C172.057 9.14133 172.553 9.04 173.076 9.04ZM181.489 10.672V15.552C181.489 15.8827 181.564 16.1227 181.713 16.272C181.873 16.4107 182.14 16.48 182.513 16.48H183.633V18H182.193C181.372 18 180.742 17.808 180.305 17.424C179.868 17.04 179.649 16.416 179.649 15.552V10.672H178.609V9.184H179.649V6.992H181.489V9.184H183.633V10.672H181.489Z" fill="#273240"/>
<path opacity="0.5" d="M72.322 33.984H67.408V37.176C67.6227 36.8773 67.94 36.6347 68.36 36.448C68.78 36.252 69.2327 36.154 69.718 36.154C70.4927 36.154 71.1227 36.3173 71.608 36.644C72.0933 36.9613 72.4387 37.3767 72.644 37.89C72.8587 38.394 72.966 38.9307 72.966 39.5C72.966 40.172 72.84 40.774 72.588 41.306C72.336 41.838 71.9487 42.258 71.426 42.566C70.9127 42.874 70.2733 43.028 69.508 43.028C68.528 43.028 67.7347 42.776 67.128 42.272C66.5213 41.768 66.1527 41.096 66.022 40.256H67.268C67.3893 40.788 67.646 41.2033 68.038 41.502C68.43 41.8007 68.9247 41.95 69.522 41.95C70.2593 41.95 70.8147 41.7307 71.188 41.292C71.5613 40.844 71.748 40.256 71.748 39.528C71.748 38.8 71.5613 38.24 71.188 37.848C70.8147 37.4467 70.264 37.246 69.536 37.246C69.0413 37.246 68.6073 37.3673 68.234 37.61C67.87 37.8433 67.604 38.1653 67.436 38.576H66.232V32.864H72.322V33.984ZM75.775 43.084C75.5323 43.084 75.327 43 75.159 42.832C74.991 42.664 74.907 42.4587 74.907 42.216C74.907 41.9733 74.991 41.768 75.159 41.6C75.327 41.432 75.5323 41.348 75.775 41.348C76.0083 41.348 76.2043 41.432 76.363 41.6C76.531 41.768 76.615 41.9733 76.615 42.216C76.615 42.4587 76.531 42.664 76.363 42.832C76.2043 43 76.0083 43.084 75.775 43.084ZM75.775 37.092C75.5323 37.092 75.327 37.008 75.159 36.84C74.991 36.672 74.907 36.4667 74.907 36.224C74.907 35.9813 74.991 35.776 75.159 35.608C75.327 35.44 75.5323 35.356 75.775 35.356C76.0083 35.356 76.2043 35.44 76.363 35.608C76.531 35.776 76.615 35.9813 76.615 36.224C76.615 36.4667 76.531 36.672 76.363 36.84C76.2043 37.008 76.0083 37.092 75.775 37.092ZM78.3035 34.04V32.878H80.9355V43H79.6475V34.04H78.3035ZM83.4699 41.978C84.6552 41.026 85.5839 40.2467 86.2559 39.64C86.9279 39.024 87.4925 38.3847 87.9499 37.722C88.4165 37.05 88.6499 36.392 88.6499 35.748C88.6499 35.1413 88.5005 34.6653 88.2019 34.32C87.9125 33.9653 87.4412 33.788 86.7879 33.788C86.1532 33.788 85.6585 33.9887 85.3039 34.39C84.9585 34.782 84.7719 35.3093 84.7439 35.972H83.5119C83.5492 34.9267 83.8665 34.1193 84.4639 33.55C85.0612 32.9807 85.8312 32.696 86.7739 32.696C87.7352 32.696 88.4959 32.962 89.0559 33.494C89.6252 34.026 89.9099 34.7587 89.9099 35.692C89.9099 36.4667 89.6765 37.2227 89.2099 37.96C88.7525 38.688 88.2299 39.332 87.6419 39.892C87.0539 40.4427 86.3025 41.0867 85.3879 41.824H90.2039V42.888H83.4699V41.978ZM97.893 36.742C98.145 36.3033 98.5183 35.9393 99.013 35.65C99.517 35.3513 100.1 35.202 100.763 35.202C101.444 35.202 102.06 35.3653 102.611 35.692C103.171 36.0187 103.61 36.4807 103.927 37.078C104.244 37.666 104.403 38.352 104.403 39.136C104.403 39.9107 104.244 40.6013 103.927 41.208C103.61 41.8147 103.171 42.286 102.611 42.622C102.06 42.958 101.444 43.126 100.763 43.126C100.11 43.126 99.531 42.9813 99.027 42.692C98.5323 42.3933 98.1543 42.0247 97.893 41.586V46.64H96.619V35.328H97.893V36.742ZM103.101 39.136C103.101 38.5573 102.984 38.0533 102.751 37.624C102.518 37.1947 102.2 36.868 101.799 36.644C101.407 36.42 100.973 36.308 100.497 36.308C100.03 36.308 99.5963 36.4247 99.195 36.658C98.803 36.882 98.4857 37.2133 98.243 37.652C98.0097 38.0813 97.893 38.5807 97.893 39.15C97.893 39.7287 98.0097 40.2373 98.243 40.676C98.4857 41.1053 98.803 41.4367 99.195 41.67C99.5963 41.894 100.03 42.006 100.497 42.006C100.973 42.006 101.407 41.894 101.799 41.67C102.2 41.4367 102.518 41.1053 102.751 40.676C102.984 40.2373 103.101 39.724 103.101 39.136ZM115.806 35.188C116.403 35.188 116.935 35.314 117.402 35.566C117.869 35.8087 118.237 36.1773 118.508 36.672C118.779 37.1667 118.914 37.7687 118.914 38.478V43H117.654V38.66C117.654 37.8947 117.463 37.3113 117.08 36.91C116.707 36.4993 116.198 36.294 115.554 36.294C114.891 36.294 114.364 36.5087 113.972 36.938C113.58 37.358 113.384 37.9693 113.384 38.772V43H112.124V38.66C112.124 37.8947 111.933 37.3113 111.55 36.91C111.177 36.4993 110.668 36.294 110.024 36.294C109.361 36.294 108.834 36.5087 108.442 36.938C108.05 37.358 107.854 37.9693 107.854 38.772V43H106.58V35.328H107.854V36.434C108.106 36.0327 108.442 35.7247 108.862 35.51C109.291 35.2953 109.763 35.188 110.276 35.188C110.92 35.188 111.489 35.3327 111.984 35.622C112.479 35.9113 112.847 36.336 113.09 36.896C113.305 36.3547 113.659 35.9347 114.154 35.636C114.649 35.3373 115.199 35.188 115.806 35.188ZM131.761 40.046C131.285 40.046 130.879 39.8827 130.543 39.556C130.216 39.22 130.053 38.814 130.053 38.338C130.053 37.8527 130.216 37.4467 130.543 37.12C130.879 36.784 131.285 36.616 131.761 36.616C132.246 36.616 132.657 36.784 132.993 37.12C133.329 37.4467 133.497 37.8527 133.497 38.338C133.497 38.814 133.329 39.22 132.993 39.556C132.657 39.8827 132.246 40.046 131.761 40.046ZM152.375 43H151.101L145.977 35.23V43H144.703V33.228H145.977L151.101 40.984V33.228H152.375V43ZM158.393 43.126C157.674 43.126 157.021 42.9627 156.433 42.636C155.854 42.3093 155.397 41.8473 155.061 41.25C154.734 40.6433 154.571 39.9433 154.571 39.15C154.571 38.366 154.739 37.6753 155.075 37.078C155.42 36.4713 155.887 36.0093 156.475 35.692C157.063 35.3653 157.721 35.202 158.449 35.202C159.177 35.202 159.835 35.3653 160.423 35.692C161.011 36.0093 161.473 36.4667 161.809 37.064C162.154 37.6613 162.327 38.3567 162.327 39.15C162.327 39.9433 162.149 40.6433 161.795 41.25C161.449 41.8473 160.978 42.3093 160.381 42.636C159.783 42.9627 159.121 43.126 158.393 43.126ZM158.393 42.006C158.85 42.006 159.279 41.8987 159.681 41.684C160.082 41.4693 160.404 41.1473 160.647 40.718C160.899 40.2887 161.025 39.766 161.025 39.15C161.025 38.534 160.903 38.0113 160.661 37.582C160.418 37.1527 160.101 36.8353 159.709 36.63C159.317 36.4153 158.892 36.308 158.435 36.308C157.968 36.308 157.539 36.4153 157.147 36.63C156.764 36.8353 156.456 37.1527 156.223 37.582C155.989 38.0113 155.873 38.534 155.873 39.15C155.873 39.7753 155.985 40.3027 156.209 40.732C156.442 41.1613 156.75 41.4833 157.133 41.698C157.515 41.9033 157.935 42.006 158.393 42.006ZM168.24 35.188C169.173 35.188 169.929 35.4727 170.508 36.042C171.086 36.602 171.376 37.414 171.376 38.478V43H170.116V38.66C170.116 37.8947 169.924 37.3113 169.542 36.91C169.159 36.4993 168.636 36.294 167.974 36.294C167.302 36.294 166.765 36.504 166.364 36.924C165.972 37.344 165.776 37.9553 165.776 38.758V43H164.502V35.328H165.776V36.42C166.028 36.028 166.368 35.7247 166.798 35.51C167.236 35.2953 167.717 35.188 168.24 35.188ZM175.511 36.378V40.9C175.511 41.2733 175.59 41.5393 175.749 41.698C175.908 41.8473 176.183 41.922 176.575 41.922H177.513V43H176.365C175.656 43 175.124 42.8367 174.769 42.51C174.414 42.1833 174.237 41.6467 174.237 40.9V36.378H173.243V35.328H174.237V33.396H175.511V35.328H177.513V36.378H175.511ZM182.903 43.126C182.184 43.126 181.531 42.9627 180.943 42.636C180.364 42.3093 179.907 41.8473 179.571 41.25C179.244 40.6433 179.081 39.9433 179.081 39.15C179.081 38.366 179.249 37.6753 179.585 37.078C179.93 36.4713 180.397 36.0093 180.985 35.692C181.573 35.3653 182.231 35.202 182.959 35.202C183.687 35.202 184.345 35.3653 184.933 35.692C185.521 36.0093 185.983 36.4667 186.319 37.064C186.664 37.6613 186.837 38.3567 186.837 39.15C186.837 39.9433 186.659 40.6433 186.305 41.25C185.959 41.8473 185.488 42.3093 184.891 42.636C184.293 42.9627 183.631 43.126 182.903 43.126ZM182.903 42.006C183.36 42.006 183.789 41.8987 184.191 41.684C184.592 41.4693 184.914 41.1473 185.157 40.718C185.409 40.2887 185.535 39.766 185.535 39.15C185.535 38.534 185.413 38.0113 185.171 37.582C184.928 37.1527 184.611 36.8353 184.219 36.63C183.827 36.4153 183.402 36.308 182.945 36.308C182.478 36.308 182.049 36.4153 181.657 36.63C181.274 36.8353 180.966 37.1527 180.733 37.582C180.499 38.0113 180.383 38.534 180.383 39.15C180.383 39.7753 180.495 40.3027 180.719 40.732C180.952 41.1613 181.26 41.4833 181.643 41.698C182.025 41.9033 182.445 42.006 182.903 42.006ZM192.75 35.188C193.683 35.188 194.439 35.4727 195.018 36.042C195.596 36.602 195.886 37.414 195.886 38.478V43H194.626V38.66C194.626 37.8947 194.434 37.3113 194.052 36.91C193.669 36.4993 193.146 36.294 192.484 36.294C191.812 36.294 191.275 36.504 190.874 36.924C190.482 37.344 190.286 37.9553 190.286 38.758V43H189.012V35.328H190.286V36.42C190.538 36.028 190.878 35.7247 191.308 35.51C191.746 35.2953 192.227 35.188 192.75 35.188ZM207.585 37.974C207.94 38.03 208.262 38.1747 208.551 38.408C208.85 38.6413 209.083 38.9307 209.251 39.276C209.428 39.6213 209.517 39.99 209.517 40.382C209.517 40.8767 209.391 41.3247 209.139 41.726C208.887 42.118 208.518 42.4307 208.033 42.664C207.557 42.888 206.992 43 206.339 43H202.699V33.242H206.199C206.862 33.242 207.426 33.354 207.893 33.578C208.36 33.7927 208.71 34.0867 208.943 34.46C209.176 34.8333 209.293 35.2533 209.293 35.72C209.293 36.2987 209.134 36.7793 208.817 37.162C208.509 37.5353 208.098 37.806 207.585 37.974ZM203.973 37.456H206.115C206.712 37.456 207.174 37.316 207.501 37.036C207.828 36.756 207.991 36.3687 207.991 35.874C207.991 35.3793 207.828 34.992 207.501 34.712C207.174 34.432 206.703 34.292 206.087 34.292H203.973V37.456ZM206.227 41.95C206.862 41.95 207.356 41.8007 207.711 41.502C208.066 41.2033 208.243 40.788 208.243 40.256C208.243 39.7147 208.056 39.29 207.683 38.982C207.31 38.6647 206.81 38.506 206.185 38.506H203.973V41.95H206.227ZM212.443 34.082C212.2 34.082 211.995 33.998 211.827 33.83C211.659 33.662 211.575 33.4567 211.575 33.214C211.575 32.9713 211.659 32.766 211.827 32.598C211.995 32.43 212.2 32.346 212.443 32.346C212.676 32.346 212.872 32.43 213.031 32.598C213.199 32.766 213.283 32.9713 213.283 33.214C213.283 33.4567 213.199 33.662 213.031 33.83C212.872 33.998 212.676 34.082 212.443 34.082ZM213.059 35.328V43H211.785V35.328H213.059ZM219.076 43.126C218.358 43.126 217.704 42.9627 217.116 42.636C216.538 42.3093 216.08 41.8473 215.744 41.25C215.418 40.6433 215.254 39.9433 215.254 39.15C215.254 38.366 215.422 37.6753 215.758 37.078C216.104 36.4713 216.57 36.0093 217.158 35.692C217.746 35.3653 218.404 35.202 219.132 35.202C219.86 35.202 220.518 35.3653 221.106 35.692C221.694 36.0093 222.156 36.4667 222.492 37.064C222.838 37.6613 223.01 38.3567 223.01 39.15C223.01 39.9433 222.833 40.6433 222.478 41.25C222.133 41.8473 221.662 42.3093 221.064 42.636C220.467 42.9627 219.804 43.126 219.076 43.126ZM219.076 42.006C219.534 42.006 219.963 41.8987 220.364 41.684C220.766 41.4693 221.088 41.1473 221.33 40.718C221.582 40.2887 221.708 39.766 221.708 39.15C221.708 38.534 221.587 38.0113 221.344 37.582C221.102 37.1527 220.784 36.8353 220.392 36.63C220 36.4153 219.576 36.308 219.118 36.308C218.652 36.308 218.222 36.4153 217.83 36.63C217.448 36.8353 217.14 37.1527 216.906 37.582C216.673 38.0113 216.556 38.534 216.556 39.15C216.556 39.7753 216.668 40.3027 216.892 40.732C217.126 41.1613 217.434 41.4833 217.816 41.698C218.199 41.9033 218.619 42.006 219.076 42.006ZM227.901 43.126C227.313 43.126 226.786 43.028 226.319 42.832C225.853 42.6267 225.484 42.3467 225.213 41.992C224.943 41.628 224.793 41.2127 224.765 40.746H226.081C226.119 41.1287 226.296 41.4413 226.613 41.684C226.94 41.9267 227.365 42.048 227.887 42.048C228.373 42.048 228.755 41.9407 229.035 41.726C229.315 41.5113 229.455 41.2407 229.455 40.914C229.455 40.578 229.306 40.3307 229.007 40.172C228.709 40.004 228.247 39.8407 227.621 39.682C227.052 39.5327 226.585 39.3833 226.221 39.234C225.867 39.0753 225.559 38.8467 225.297 38.548C225.045 38.24 224.919 37.8387 224.919 37.344C224.919 36.952 225.036 36.5927 225.269 36.266C225.503 35.9393 225.834 35.6827 226.263 35.496C226.693 35.3 227.183 35.202 227.733 35.202C228.583 35.202 229.269 35.4167 229.791 35.846C230.314 36.2753 230.594 36.8633 230.631 37.61H229.357C229.329 37.2087 229.166 36.8867 228.867 36.644C228.578 36.4013 228.186 36.28 227.691 36.28C227.234 36.28 226.87 36.378 226.599 36.574C226.329 36.77 226.193 37.0267 226.193 37.344C226.193 37.596 226.273 37.806 226.431 37.974C226.599 38.1327 226.805 38.2633 227.047 38.366C227.299 38.4593 227.645 38.5667 228.083 38.688C228.634 38.8373 229.082 38.9867 229.427 39.136C229.773 39.276 230.067 39.4907 230.309 39.78C230.561 40.0693 230.692 40.4473 230.701 40.914C230.701 41.334 230.585 41.712 230.351 42.048C230.118 42.384 229.787 42.65 229.357 42.846C228.937 43.0327 228.452 43.126 227.901 43.126ZM237.284 43L234.274 39.612V43H233V32.64H234.274V38.73L237.228 35.328H239.006L235.394 39.15L239.02 43H237.284ZM244.051 43.126C243.332 43.126 242.679 42.9627 242.091 42.636C241.512 42.3093 241.055 41.8473 240.719 41.25C240.392 40.6433 240.229 39.9433 240.229 39.15C240.229 38.366 240.397 37.6753 240.733 37.078C241.078 36.4713 241.545 36.0093 242.133 35.692C242.721 35.3653 243.379 35.202 244.107 35.202C244.835 35.202 245.493 35.3653 246.081 35.692C246.669 36.0093 247.131 36.4667 247.467 37.064C247.812 37.6613 247.985 38.3567 247.985 39.15C247.985 39.9433 247.808 40.6433 247.453 41.25C247.108 41.8473 246.636 42.3093 246.039 42.636C245.442 42.9627 244.779 43.126 244.051 43.126ZM244.051 42.006C244.508 42.006 244.938 41.8987 245.339 41.684C245.74 41.4693 246.062 41.1473 246.305 40.718C246.557 40.2887 246.683 39.766 246.683 39.15C246.683 38.534 246.562 38.0113 246.319 37.582C246.076 37.1527 245.759 36.8353 245.367 36.63C244.975 36.4153 244.55 36.308 244.093 36.308C243.626 36.308 243.197 36.4153 242.805 36.63C242.422 36.8353 242.114 37.1527 241.881 37.582C241.648 38.0113 241.531 38.534 241.531 39.15C241.531 39.7753 241.643 40.3027 241.867 40.732C242.1 41.1613 242.408 41.4833 242.791 41.698C243.174 41.9033 243.594 42.006 244.051 42.006ZM251.434 36.742C251.686 36.3033 252.059 35.9393 252.554 35.65C253.058 35.3513 253.641 35.202 254.304 35.202C254.985 35.202 255.601 35.3653 256.152 35.692C256.712 36.0187 257.151 36.4807 257.468 37.078C257.785 37.666 257.944 38.352 257.944 39.136C257.944 39.9107 257.785 40.6013 257.468 41.208C257.151 41.8147 256.712 42.286 256.152 42.622C255.601 42.958 254.985 43.126 254.304 43.126C253.651 43.126 253.072 42.9813 252.568 42.692C252.073 42.3933 251.695 42.0247 251.434 41.586V46.64H250.16V35.328H251.434V36.742ZM256.642 39.136C256.642 38.5573 256.525 38.0533 256.292 37.624C256.059 37.1947 255.741 36.868 255.34 36.644C254.948 36.42 254.514 36.308 254.038 36.308C253.571 36.308 253.137 36.4247 252.736 36.658C252.344 36.882 252.027 37.2133 251.784 37.652C251.551 38.0813 251.434 38.5807 251.434 39.15C251.434 39.7287 251.551 40.2373 251.784 40.676C252.027 41.1053 252.344 41.4367 252.736 41.67C253.137 41.894 253.571 42.006 254.038 42.006C254.514 42.006 254.948 41.894 255.34 41.67C255.741 41.4367 256.059 41.1053 256.292 40.676C256.525 40.2373 256.642 39.724 256.642 39.136Z" fill="#404852"/>
<circle cx="24" cy="24" r="24" fill="#4BA83D"/>
<path fill-rule="evenodd" clip-rule="evenodd" d="M24 15C19.032 15 15 19.032 15 24C15 28.968 19.032 33 24 33C28.968 33 33 28.968 33 24C33 19.032 28.968 15 24 15ZM22.2 28.05V19.95L27.6 24L22.2 28.05Z" fill="white"/>
<path d="M442.628 11.344V13.232H435.844V11.344H442.628ZM445.259 9.408C445.313 8.34133 445.686 7.52 446.379 6.944C447.083 6.35733 448.006 6.064 449.147 6.064C449.926 6.064 450.593 6.20267 451.147 6.48C451.702 6.74667 452.118 7.11467 452.395 7.584C452.683 8.04267 452.827 8.56533 452.827 9.152C452.827 9.824 452.651 10.3947 452.299 10.864C451.958 11.3227 451.547 11.632 451.067 11.792V11.856C451.686 12.048 452.166 12.3893 452.507 12.88C452.859 13.3707 453.035 14 453.035 14.768C453.035 15.408 452.886 15.9787 452.587 16.48C452.299 16.9813 451.867 17.376 451.291 17.664C450.726 17.9413 450.043 18.08 449.243 18.08C448.038 18.08 447.057 17.776 446.299 17.168C445.542 16.56 445.142 15.664 445.099 14.48H447.275C447.297 15.0027 447.473 15.424 447.803 15.744C448.145 16.0533 448.609 16.208 449.195 16.208C449.739 16.208 450.155 16.0587 450.443 15.76C450.742 15.4507 450.891 15.056 450.891 14.576C450.891 13.936 450.689 13.4773 450.283 13.2C449.878 12.9227 449.249 12.784 448.395 12.784H447.931V10.944H448.395C449.91 10.944 450.667 10.4373 450.667 9.424C450.667 8.96533 450.529 8.608 450.251 8.352C449.985 8.096 449.595 7.968 449.083 7.968C448.582 7.968 448.193 8.10667 447.915 8.384C447.649 8.65067 447.494 8.992 447.451 9.408H445.259ZM462.988 8.272H457.804V11.008C458.028 10.7307 458.348 10.5067 458.764 10.336C459.18 10.1547 459.623 10.064 460.092 10.064C460.946 10.064 461.644 10.2507 462.188 10.624C462.732 10.9973 463.127 11.4773 463.372 12.064C463.618 12.64 463.74 13.2587 463.74 13.92C463.74 15.1467 463.388 16.1333 462.684 16.88C461.991 17.6267 460.999 18 459.708 18C458.492 18 457.522 17.696 456.796 17.088C456.071 16.48 455.66 15.6853 455.564 14.704H457.74C457.836 15.1307 458.05 15.472 458.38 15.728C458.722 15.984 459.154 16.112 459.676 16.112C460.306 16.112 460.78 15.9147 461.1 15.52C461.42 15.1253 461.58 14.6027 461.58 13.952C461.58 13.2907 461.415 12.7893 461.084 12.448C460.764 12.096 460.29 11.92 459.66 11.92C459.212 11.92 458.839 12.032 458.54 12.256C458.242 12.48 458.028 12.7787 457.9 13.152H455.756V6.304H462.988V8.272ZM467.036 18.112C466.631 18.112 466.295 17.9893 466.028 17.744C465.772 17.488 465.644 17.1733 465.644 16.8C465.644 16.4267 465.772 16.1173 466.028 15.872C466.295 15.616 466.631 15.488 467.036 15.488C467.431 15.488 467.756 15.616 468.012 15.872C468.268 16.1173 468.396 16.4267 468.396 16.8C468.396 17.1733 468.268 17.488 468.012 17.744C467.756 17.9893 467.431 18.112 467.036 18.112ZM470.991 15.472C472.015 14.6187 472.831 13.9093 473.439 13.344C474.047 12.768 474.554 12.1707 474.959 11.552C475.365 10.9333 475.567 10.3253 475.567 9.728C475.567 9.184 475.439 8.75733 475.183 8.448C474.927 8.13867 474.533 7.984 473.999 7.984C473.466 7.984 473.055 8.16533 472.767 8.528C472.479 8.88 472.33 9.36533 472.319 9.984H470.143C470.186 8.704 470.565 7.73333 471.279 7.072C472.005 6.41067 472.922 6.08 474.031 6.08C475.247 6.08 476.181 6.40533 476.831 7.056C477.482 7.696 477.807 8.544 477.807 9.6C477.807 10.432 477.583 11.2267 477.135 11.984C476.687 12.7413 476.175 13.4027 475.599 13.968C475.023 14.5227 474.271 15.1947 473.343 15.984H478.063V17.84H470.159V16.176L470.991 15.472ZM479.818 12.016C479.818 10.1707 480.148 8.72533 480.81 7.68C481.482 6.63467 482.591 6.112 484.138 6.112C485.684 6.112 486.788 6.63467 487.45 7.68C488.122 8.72533 488.458 10.1707 488.458 12.016C488.458 13.872 488.122 15.328 487.45 16.384C486.788 17.44 485.684 17.968 484.138 17.968C482.591 17.968 481.482 17.44 480.81 16.384C480.148 15.328 479.818 13.872 479.818 12.016ZM486.25 12.016C486.25 11.2267 486.196 10.5653 486.09 10.032C485.994 9.488 485.791 9.04533 485.482 8.704C485.183 8.36267 484.735 8.192 484.138 8.192C483.54 8.192 483.087 8.36267 482.778 8.704C482.479 9.04533 482.276 9.488 482.17 10.032C482.074 10.5653 482.026 11.2267 482.026 12.016C482.026 12.8267 482.074 13.5093 482.17 14.064C482.266 14.608 482.468 15.0507 482.778 15.392C483.087 15.7227 483.54 15.888 484.138 15.888C484.735 15.888 485.188 15.7227 485.498 15.392C485.807 15.0507 486.01 14.608 486.106 14.064C486.202 13.5093 486.25 12.8267 486.25 12.016ZM490.504 12.016C490.504 10.1707 490.835 8.72533 491.496 7.68C492.168 6.63467 493.278 6.112 494.824 6.112C496.371 6.112 497.475 6.63467 498.136 7.68C498.808 8.72533 499.144 10.1707 499.144 12.016C499.144 13.872 498.808 15.328 498.136 16.384C497.475 17.44 496.371 17.968 494.824 17.968C493.278 17.968 492.168 17.44 491.496 16.384C490.835 15.328 490.504 13.872 490.504 12.016ZM496.936 12.016C496.936 11.2267 496.883 10.5653 496.776 10.032C496.68 9.488 496.478 9.04533 496.168 8.704C495.87 8.36267 495.422 8.192 494.824 8.192C494.227 8.192 493.774 8.36267 493.464 8.704C493.166 9.04533 492.963 9.488 492.856 10.032C492.76 10.5653 492.712 11.2267 492.712 12.016C492.712 12.8267 492.76 13.5093 492.856 14.064C492.952 14.608 493.155 15.0507 493.464 15.392C493.774 15.7227 494.227 15.888 494.824 15.888C495.422 15.888 495.875 15.7227 496.184 15.392C496.494 15.0507 496.696 14.608 496.792 14.064C496.888 13.5093 496.936 12.8267 496.936 12.016Z" fill="#273240"/>
</svg>
